<?xml version="1.0" standalone="no"?>
<!DOCTYPE svg PUBLIC "-//W3C//DTD SVG 1.1//EN" "http://www.w3.org/Graphics/SVG/1.1/DTD/svg11.dtd" >
<svg>
<metadata>
Created by FontForge 20120731 at Sat Jun 24 12:50:52 2017
 By www
Copyright (c) 2008-2011 Canada Type. All rights reserved.
</metadata>
<defs>
<font id="MemoriamProHeadlineW00-Rg" horiz-adv-x="659" >
  <font-face 
    font-family="MemoriamProHeadlineW00-Rg"
    font-weight="400"
    font-stretch="normal"
    units-per-em="1000"
    panose-1="2 0 5 7 0 0 0 2 0 3"
    ascent="800"
    descent="-200"
    x-height="488"
    cap-height="876"
    bbox="-1049 -896 2309 1514"
    underline-thickness="50"
    underline-position="-75"
    unicode-range="U+0020-FB02"
  />
<missing-glyph horiz-adv-x="0" 
 />
    <glyph glyph-name="uniFB00" unicode="ff" horiz-adv-x="664" 
d="M41 290l3 10h78l34 151q21 93 54 162t82 108.5t119 39.5q37 0 66.5 -17.5t40.5 -40.5t11 -42q0 -24 -9 -50l-10 2q9 27 9 50q0 24 -17.5 44.5t-40.5 20.5q-42 0 -71 -26t-55.5 -95t-61.5 -227l-18 -80h188l34 151q21 93 54 162t82 108.5t119 39.5q37 0 66.5 -17.5
t40.5 -40.5t11 -42q0 -24 -9 -50l-10 2q9 27 9 50q0 24 -17.5 44.5t-40.5 20.5q-42 0 -71 -26t-55.5 -95t-61.5 -227l-18 -80h84l-3 -10h-83l-114 -512q-36 18 -61 18q-28 0 -65 -14l-16 -75h-8l131 583h-188l-114 -512q-36 18 -61 18q-28 0 -65 -14l-16 -75h-8l131 583h-79
z" />
    <glyph glyph-name="uniFB01" unicode="fi" horiz-adv-x="603" 
d="M489 634q0 37 21.5 63.5t49.5 26.5q35 0 62 -41q-3 33 -21.5 61t-43.5 39.5t-46 11.5q-48 0 -90 -37.5t-74.5 -114.5t-61.5 -209l-28 -125h83l-1 -9h-84l-115 -518q-34 15 -68 15q-23 0 -42 -14t-25 -41l-8 -35h-8l133 593h-78l1 9h79l44 196q35 155 107 238.5t184 83.5
q55 0 95 -24.5t60.5 -63t20.5 -88.5q0 -25 -12.5 -47.5t-31 -32t-34.5 -9.5q-28 0 -48 20t-20 52zM575 402q0 -6 -2 -25.5t-9 -50.5t-41 -153t-34 -159q0 -26 8.5 -39t22.5 -13q15 0 38.5 21t39.5 53t19 71l9 1q-5 -38 -22 -76.5t-50 -61t-69 -22.5q-35 0 -62.5 17t-38 43
t-10.5 49q0 13 2 31t8 47.5t36 149t30 165.5q0 36 -30 36q-19 0 -44 -14.5t-37 -30.5h-9q17 25 55.5 43t83.5 18q33 0 58.5 -13t36.5 -36.5t11 -50.5z" />
    <glyph glyph-name="uniFB02" unicode="fl" horiz-adv-x="593" 
d="M624 654q0 -3 -1 -14t-10 -63.5t-69.5 -299t-60.5 -268.5q0 -19 5.5 -29.5t25.5 -10.5q16 0 40.5 23.5t37.5 55.5t15 59l8 1q-4 -39 -21.5 -77.5t-52 -60.5t-69.5 -22q-33 0 -57 10t-37 29.5t-13 50.5q0 3 1 12.5t8 50t45.5 202.5t52.5 225t22.5 109t8.5 67
q0 34 -14 55.5t-34 21.5q-90 0 -182 -401l-18 -78h85l-2 -9h-84l-114 -511q-34 15 -68 15q-55 0 -67 -55l-8 -35h-8l132 586h-78l2 9h77l34 149q21 91 50.5 150t58.5 94t61 56.5t64.5 31.5t63.5 10q69 0 119.5 -41.5t50.5 -97.5z" />
    <glyph glyph-name="a_z.liga" unicode="a&#x7a;" horiz-adv-x="1122" 
d="M542 -16l6 -6q-17 -16 -41.5 -25t-49.5 -9q-28 0 -52 10t-35.5 29t-13.5 38q-62 -73 -150 -73q-55 0 -93 22.5t-59 65t-21 104.5q0 28 8 76t37 108t68 98t81 57t87 19q44 0 74.5 -25t43.5 -74l17 77q36 -18 61 -18q28 0 65 14l8 38h8q-8 -41 -61.5 -267.5t-53.5 -242.5
q0 -14 4.5 -24.5t24.5 -10.5q18 0 37 19zM355 32q-2 29 33.5 179t40.5 173q-13 48 -39 74.5t-61 26.5q-14 0 -33 -10.5t-39.5 -37.5t-39.5 -70.5t-32 -103.5t-13 -115q0 -74 25 -119t75 -45q45 0 83 48zM573 -20l-8 -1q-5 18 -5 38q0 35 22.5 66.5t74 61t159.5 67.5
q111 40 148.5 56t68.5 33.5t59 41t43 55.5q-23 -33 -84 -58t-117 -25q-26 0 -55.5 8t-80.5 28t-69 20q-42 0 -62.5 -26.5t-21.5 -86.5h-8q0 49 13.5 93t39.5 76.5t64.5 51t87.5 18.5q55 0 128 -49t91 -55t29 -6q19 0 34 10.5t17 19.5l9 -1q-13 -53 -72.5 -98.5t-205 -97.5
t-184 -71t-62.5 -36t-39 -37.5t-18 -43.5q6 19 31 40t76.5 37t98.5 16q26 0 59.5 -8t97 -29.5t84.5 -21.5q42 0 62.5 26.5t21.5 86.5h8q0 -49 -13.5 -93t-39.5 -76.5t-64.5 -51t-87.5 -18.5q-17 0 -41 6.5t-49.5 20.5t-78.5 49.5t-72.5 42.5t-30.5 7q-25 0 -43.5 -18
t-18.5 -43q0 -12 4 -25z" />
    <glyph glyph-name="i_z.liga" unicode="i&#x7a;" horiz-adv-x="833" 
d="M258 -13l6 -5q-17 -16 -39.5 -25t-44.5 -9q-35 0 -62.5 17t-38 43t-10.5 49q0 13 2 31t8 47.5t36 149t30 165.5q0 36 -30 36q-19 0 -44 -14.5t-37 -30.5h-9q17 25 55.5 43t83.5 18q33 0 58.5 -13t36.5 -36.5t11 -50.5q0 -6 -2 -25.5t-9 -50.5t-41 -153t-34 -159
q0 -26 8.5 -39t22.5 -13q7 0 19 7t24 18zM266 726q27 0 45.5 -23t18.5 -52q0 -25 -12.5 -47.5t-31 -32t-34.5 -9.5q-28 0 -48 20t-20 52q0 25 12.5 48.5t32 33.5t37.5 10zM284 -20l-8 -1q-5 18 -5 38q0 35 22.5 66.5t74 61t159.5 67.5q111 40 148.5 56t68.5 33.5t59 41
t43 55.5q-23 -33 -84 -58t-117 -25q-26 0 -55.5 8t-80.5 28t-69 20q-42 0 -62.5 -26.5t-21.5 -86.5h-8q0 49 13.5 93t39.5 76.5t64.5 51t87.5 18.5q55 0 128 -49t91 -55t29 -6q19 0 34 10.5t17 19.5l9 -1q-13 -53 -72.5 -98.5t-205 -97.5t-184 -71t-62.5 -36t-39 -37.5
t-18 -43.5q6 19 31 40t76.5 37t98.5 16q26 0 59.5 -8t97 -29.5t84.5 -21.5q42 0 62.5 26.5t21.5 86.5h8q0 -49 -13.5 -93t-39.5 -76.5t-64.5 -51t-87.5 -18.5q-17 0 -41 6.5t-49.5 20.5t-78.5 49.5t-72.5 42.5t-30.5 7q-25 0 -43.5 -18t-18.5 -43q0 -12 4 -25z" />
    <glyph glyph-name="t_t.liga" unicode="tt" horiz-adv-x="574" 
d="M243 432q-86 -386 -86 -429q0 -18 11 -26t24 -8q19 0 42 17.5t38.5 47.5t19.5 74h9q-8 -81 -49.5 -120.5t-111.5 -39.5q-43 0 -74 27t-31 76q0 41 74 381h-67l3 10h66l30 135q35 -15 68 -15q23 0 42 14t25 41l8 35h8l-47 -210h153l48 220q35 -15 68 -15q23 0 42 14t25 41
l8 35h8l-65 -295h112l-3 -10h-112q-85 -388 -85 -429q0 -18 11 -26t24 -8q19 0 42 17.5t38.5 47.5t19.5 74h9q-8 -81 -49.5 -120.5t-111.5 -39.5q-43 0 -74 27t-31 76q0 38 74 381h-153z" />
    <glyph glyph-name="u_z.liga" unicode="u&#x7a;" horiz-adv-x="1122" 
d="M61 46q0 11 5.5 43.5t44.5 175.5t39 172q0 17 -6 27.5t-26 10.5q-16 0 -39.5 -19t-36.5 -51.5t-16 -67.5h-8q3 39 16 69t33.5 50.5t46 30t48.5 9.5q31 0 56.5 -13.5t36.5 -36.5t11 -49q0 -3 -0.5 -11t-4 -32t-23 -100.5t-27 -108t-11.5 -59t-4 -48.5q0 -30 13.5 -45
t34.5 -15q27 0 60 19.5t54 44.5v9q0 13 7 54t21 109t35 160t23 103q36 -18 61 -18q29 0 65 13l8 39h8q-1 -6 -53.5 -235.5t-52.5 -271.5q0 -13 8.5 -24t31.5 -11q17 0 35 12l2 -10q-36 -23 -94 -23q-28 0 -53 12.5t-37 33t-14 40.5q-13 -17 -41 -37t-70.5 -34.5t-80.5 -14.5
q-34 0 -59.5 13t-36 35.5t-10.5 49.5zM573 -20l-8 -1q-5 18 -5 38q0 35 22.5 66.5t74 61t159.5 67.5q111 40 148.5 56t68.5 33.5t59 41t43 55.5q-23 -33 -84 -58t-117 -25q-26 0 -55.5 8t-80.5 28t-69 20q-42 0 -62.5 -26.5t-21.5 -86.5h-8q0 49 13.5 93t39.5 76.5t64.5 51
t87.5 18.5q55 0 128 -49t91 -55t29 -6q19 0 34 10.5t17 19.5l9 -1q-13 -53 -72.5 -98.5t-205 -97.5t-184 -71t-62.5 -36t-39 -37.5t-18 -43.5q6 19 31 40t76.5 37t98.5 16q26 0 59.5 -8t97 -29.5t84.5 -21.5q42 0 62.5 26.5t21.5 86.5h8q0 -49 -13.5 -93t-39.5 -76.5
t-64.5 -51t-87.5 -18.5q-17 0 -41 6.5t-49.5 20.5t-78.5 49.5t-72.5 42.5t-30.5 7q-25 0 -43.5 -18t-18.5 -43q0 -12 4 -25z" />
    <glyph glyph-name=".notdef" horiz-adv-x="0" 
 />
    <glyph glyph-name=".null" horiz-adv-x="0" 
 />
    <glyph glyph-name="nonmarkingreturn" horiz-adv-x="333" 
 />
    <glyph glyph-name="space" unicode=" " horiz-adv-x="300" 
 />
    <glyph glyph-name="exclam" unicode="!" horiz-adv-x="283" 
d="M110 205l-9 -1q14 151 41 276.5t64 209t81 122.5q26 0 48.5 -17t31 -22t23.5 -8.5t32 -3.5q-69 -59 -137 -151t-115.5 -196t-59.5 -209zM105 140q27 0 45.5 -23t18.5 -52q0 -25 -12.5 -47.5t-31 -32t-34.5 -9.5q-28 0 -48 20t-20 52q0 25 12.5 48.5t32 33.5t37.5 10z" />
    <glyph glyph-name="quotedbl" unicode="&#x22;" horiz-adv-x="235" 
d="M92 507l31 223l11 -1l34 3q11 0 17 -2l-85 -223h-8zM182 507l31 223l11 -1l34 3q11 0 17 -2l-85 -223h-8z" />
    <glyph glyph-name="numbersign" unicode="#" horiz-adv-x="1029" 
d="M34 -84l-9 -1q3 57 19.5 111.5t48.5 115.5t103.5 160t95 135.5t41.5 71t28.5 64.5t17.5 61.5t7 69.5q0 24 -10 49t-34.5 41t-55.5 16q-32 0 -67.5 -18t-66 -54t-50 -91t-20.5 -124l-8 1q0 71 20 128t53 94.5t73 56.5t78 19q28 0 60.5 -12t61.5 -38t47.5 -67t18.5 -95
q0 -16 -5 -38q75 60 143 60q24 0 50.5 -11.5t44 -40.5t17.5 -66q0 -69 -25.5 -135t-80.5 -155t-72 -122t-28 -61.5t-19.5 -64t-8.5 -76.5q0 -78 39.5 -127t113.5 -49q32 0 62 18.5t42 44t12 46.5q0 22 -14 43t-32.5 29.5t-32.5 8.5v9q16 0 37.5 -10t38 -34.5t16.5 -51.5
q0 -56 -21 -101t-56.5 -75.5t-80 -46t-91.5 -15.5q-48 0 -94.5 16.5t-83 50t-58 84t-21.5 114.5q0 80 41 165.5t166.5 217t152.5 172t42 76.5t15 76q0 27 -17 43t-52 16q-75 0 -149 -65q-11 -37 -38 -89.5t-99 -162t-92 -144t-32 -59t-21 -51t-9 -49.5q-15 -5 -33 -5
q-12 0 -43.5 6t-44.5 6q-8 0 -17 -3q-10 -32 -14 -88zM902 354q46 0 77 -31.5t31 -96.5q0 -38 -13.5 -80t-38 -77.5t-58 -57t-69.5 -21.5q-47 0 -75.5 23t-37.5 56t-9 60q0 38 13 78.5t38 73.5t61.5 53t80.5 20zM876 26q22 0 49.5 23t51 76.5t23.5 100.5q0 56 -26 86.5
t-61 30.5q-37 0 -66 -36.5t-40 -83.5t-11 -80q0 -38 11 -66.5t30.5 -39.5t38.5 -11z" />
    <glyph glyph-name="dollar" unicode="$" horiz-adv-x="632" 
d="M255 -125l-10 1l12 56q-56 5 -101 26t-75.5 52t-46 68.5t-15.5 74.5q0 23 7.5 50t27 53t55 47t89.5 28l-1 -9q-32 -4 -63 -16.5t-57.5 -37t-37.5 -57t-11 -58.5q0 -79 62.5 -140.5t168.5 -70.5l83 372q-71 57 -98.5 84t-45 55t-26.5 58.5t-9 64.5q0 35 12 74t46 76.5
t89.5 56.5t116.5 19l22 -1l13 58l9 -2l-13 -57q45 -5 88 -26.5t67 -59t24 -79.5q0 -28 -12 -54.5t-38 -43.5t-52 -17q-17 0 -38 8.5t-35.5 29t-14.5 44.5q0 23 13 39.5t29 25.5l7 -1q-40 -25 -40 -64q0 -27 22 -50t57 -23q24 0 48 16t34.5 41t10.5 49q0 23 -9.5 48.5t-34 50
t-61 38.5t-67.5 16l-60 -272q5 -4 55.5 -42.5t82 -72.5t50 -78t18.5 -100q0 -65 -24.5 -120t-67 -93.5t-98 -59t-116.5 -20.5l-29 1zM460 138q0 37 -21.5 76t-88.5 93l-80 -365l20 -1q31 0 61.5 11t54.5 36t39 63t15 87zM301 670q0 -33 17 -68.5t70 -78.5l59 266h-7
q-28 0 -61 -9t-55.5 -36.5t-22.5 -73.5z" />
    <glyph glyph-name="percent" unicode="%" horiz-adv-x="712" 
d="M119 -52l-10 1l475 741l9 -2zM219 362q22 0 49.5 23t51 76.5t23.5 100.5q0 56 -26 86.5t-61 30.5q-37 0 -66 -36.5t-40 -83.5t-11 -80q0 -38 11 -66.5t30.5 -39.5t38.5 -11zM245 690q46 0 77 -31.5t31 -96.5q0 -38 -13.5 -80t-38 -77.5t-58 -57t-69.5 -21.5
q-47 0 -75.5 23t-37.5 56t-9 60q0 38 13 78.5t38 73.5t61.5 53t80.5 20zM567 34q22 0 49.5 23t51 76.5t23.5 100.5q0 56 -26 86.5t-61 30.5q-37 0 -66 -36.5t-40 -83.5t-11 -80q0 -38 11 -66.5t30.5 -39.5t38.5 -11zM593 362q46 0 77 -31.5t31 -96.5q0 -38 -13.5 -80
t-38 -77.5t-58 -57t-69.5 -21.5q-47 0 -75.5 23t-37.5 56t-9 60q0 38 13 78.5t38 73.5t61.5 53t80.5 20z" />
    <glyph glyph-name="ampersand" unicode="&#x26;" horiz-adv-x="1109" 
d="M529 425q-22 0 -40.5 -17.5t-19.5 -51.5h-9q0 35 21 56.5t48 21.5q37 0 56.5 -25t19.5 -65q0 -56 -34 -130t-89 -136q44 -19 97.5 -29.5t100.5 -10.5q76 0 134.5 22t96 57t53.5 80t16 90q24 -18 49 -47.5t39 -69t14 -79.5q0 -25 -7.5 -59.5t-28 -71.5t-57.5 -73
t-95 -60.5t-124 -24.5q-101 0 -207.5 48.5t-188.5 138.5q-31 -17 -68.5 -29t-74.5 -12q-40 0 -76 13.5t-63 39t-42 61.5t-15 78q0 36 16.5 77t57.5 84.5t98 88.5q-3 35 -3 72q0 46 11.5 89.5t32.5 77t49 53t59 19.5q29 0 48.5 -21t19.5 -60q0 -23 -10 -45.5t-29.5 -46
t-45 -45.5t-118.5 -93q5 -26 16 -59.5t30.5 -67.5t44.5 -63t64.5 -60.5t97.5 -57.5q54 60 88 134t34 128q0 37 -17.5 59t-49.5 22zM231 -42q33 0 69 10.5t67 27.5q-64 72 -106 170t-53 213q-95 -75 -129 -130.5t-34 -108.5q0 -31 10 -63.5t33.5 -58.5t59.5 -43t83 -17z
M214 474q0 -39 6 -74q9 7 45 34t64.5 51.5t45 44t23 31.5t12 26.5t5.5 32.5q0 34 -16.5 53t-42.5 19q-37 0 -69 -30t-52.5 -82.5t-20.5 -105.5z" />
    <glyph glyph-name="quotesingle" unicode="'" horiz-adv-x="145" 
d="M92 507l31 223l11 -1l34 3q11 0 17 -2l-85 -223h-8z" />
    <glyph glyph-name="parenleft" unicode="(" horiz-adv-x="295" 
d="M575 890l2 -9q-39 -13 -75.5 -32.5t-72.5 -46.5t-80.5 -76t-88.5 -131t-69 -188t-25 -209q0 -53 6.5 -101.5t19 -91t36 -86t58.5 -71.5l-2 -7q-102 53 -163 168.5t-61 253.5q0 92 29.5 184.5t92.5 177.5t161.5 153.5t231.5 111.5z" />
    <glyph glyph-name="parenright" unicode=")" horiz-adv-x="352" 
d="M-138 -159l-2 9q102 37 181 109.5t129.5 166.5t75.5 199.5t25 207.5q0 53 -6.5 101.5t-19 91t-36 86t-58.5 71.5l2 7q102 -53 163 -168.5t61 -253.5q0 -92 -29.5 -184.5t-92.5 -177.5t-161.5 -153.5t-231.5 -111.5z" />
    <glyph glyph-name="asterisk" unicode="*" horiz-adv-x="364" 
d="M67 628l1 43l145 -20l-99 122l43 1l59 -122l59 122l43 -1l-99 -122l144 20l-1 -43l-143 20l99 -121l-43 -2l-59 121l-59 -121l-43 2l99 121z" />
    <glyph glyph-name="plus" unicode="+" horiz-adv-x="364" 
d="M52 256l3 10h144l-2 -10h-145zM199 266l31 140h10l-31 -140h-10zM177 117l-10 1l30 138h10zM347 256h-140l2 10h141z" />
    <glyph glyph-name="comma" unicode="," horiz-adv-x="242" 
d="M70 -172l-12 1q45 35 84.5 89.5t54.5 104.5q-11 -18 -30 -32.5t-37 -14.5q-15 0 -31 8t-25.5 26.5t-9.5 40.5q0 20 9.5 41.5t32 35.5t45.5 14q27 0 45.5 -18.5t18.5 -52.5q0 -39 -25.5 -90.5t-59.5 -91t-60 -61.5z" />
    <glyph glyph-name="hyphen" unicode="-" horiz-adv-x="364" 
d="M52 256l3 10h295l-3 -10h-295z" />
    <glyph glyph-name="period" unicode="." horiz-adv-x="236" 
d="M145 140q27 0 45.5 -23t18.5 -52q0 -25 -12.5 -47.5t-31 -32t-34.5 -9.5q-28 0 -48 20t-20 52q0 25 12.5 48.5t32 33.5t37.5 10z" />
    <glyph glyph-name="slash" unicode="/" horiz-adv-x="316" 
d="M48 -39l-10 1l345 821l9 -2z" />
    <glyph glyph-name="zero" unicode="0" horiz-adv-x="546" 
d="M295 -6q39 0 82 42.5t80 112.5t59.5 151.5t22.5 153.5q0 115 -38.5 176.5t-98.5 61.5q-40 0 -81 -26.5t-74.5 -79.5t-53.5 -135.5t-20 -186.5q0 -70 14 -135t43 -100t65 -35zM215 -71q-52 0 -90.5 25.5t-59.5 79.5t-21 132q0 55 11 124.5t39.5 139t67.5 123.5t84 89.5
t83 48.5t64 13q42 0 79 -26.5t57 -86t20 -138.5q0 -80 -27.5 -173t-74 -171.5t-107 -129t-125.5 -50.5z" />
    <glyph glyph-name="one" unicode="1" horiz-adv-x="296" 
d="M197 680l-1 -8q-11 11 -30 11q-20 0 -32 -14.5t-12 -33.5q0 -15 9 -29.5t30.5 -22t47.5 -7.5l22 1q46 84 81 122.5t55 38.5q10 0 15.5 -8t5.5 -20q0 -24 -19 -56t-48.5 -52.5t-60.5 -28.5q-62 -191 -62 -537l1 -102q-35 14 -82 15t-92.5 -19.5t-61.5 -49.5
q140 458 263 687h-17q-29 0 -53 10t-33.5 26.5t-9.5 31.5q0 22 15.5 39.5t37.5 17.5q19 0 31 -12zM367 729q-20 0 -48.5 -35t-54.5 -111q29 8 55.5 28t43 49t16.5 50q0 19 -12 19z" />
    <glyph glyph-name="two" unicode="2" horiz-adv-x="707" 
d="M508 150l-1 8q37 29 70 29q27 0 54 -13.5t45.5 -47.5t18.5 -73q0 -46 -22.5 -83t-60.5 -57.5t-92 -20.5q-18 0 -41.5 4t-50 14.5t-58 29.5t-115.5 86q-96 -52 -147 -52q-36 0 -59 21.5t-21 47.5q2 20 19 37.5t45 24.5t56 7q54 0 159 -31q41 36 77 84t64 105t44 123
t16 134q0 47 -16.5 81t-41.5 46t-47 12q-27 0 -60 -13.5t-62 -38.5t-47.5 -58.5t-18.5 -71.5q0 -23 8.5 -49.5t30.5 -44.5t50 -18q51 0 66 48h9q-9 -28 -29 -42.5t-46 -14.5q-29 0 -53.5 18.5t-34.5 47.5t-10 55q0 53 26 105t69 92t93 63.5t94 23.5q61 0 103.5 -24t67 -71
t24.5 -118q0 -45 -17.5 -95t-48.5 -99.5t-72 -96.5t-95 -96.5t-119 -94.5q13 -4 53.5 -17.5t68.5 -21t47 -7.5q29 0 58 5.5t53.5 19t36.5 31.5t12 31q0 25 -24.5 44.5t-58.5 19.5q-15 0 -33.5 -7.5t-35.5 -20.5zM108 -16q62 0 137 49q-78 64 -122 64q-20 0 -40 -6t-32 -20
t-12 -33.5t19 -36.5t50 -17z" />
    <glyph glyph-name="three" unicode="3" horiz-adv-x="623" 
d="M279 316q-27 0 -47.5 16.5t-20.5 39.5q0 15 11 30.5t37 24.5t55 9q46 0 97 -18q6 12 19 40t39 105q-49 -16 -105 -16q-60 0 -101.5 18.5t-65.5 51t-24 73.5q0 31 16 58t40.5 38t46.5 11q21 0 38.5 -11t26.5 -31l-1 -8q-8 19 -26 30t-37 11q-20 0 -33 -12t-13 -28
q0 -21 37 -46.5t100 -46.5t124 -23q25 67 48 88.5t46 21.5q13 0 24.5 -10t11.5 -28q0 -43 -40.5 -80.5t-101.5 -57.5q-36 -108 -60 -152q77 -32 121.5 -99t44.5 -161q0 -73 -26 -130t-69.5 -94t-98.5 -55t-113 -18q-53 0 -103.5 15t-90.5 43t-63 69.5t-23 90.5q0 45 26.5 78
t64.5 33q11 0 26.5 -3.5t37.5 -22.5l-1 -9q-29 26 -60 26q-29 0 -44.5 -15t-15.5 -38q0 -27 20.5 -51t67.5 -38.5t93 -14.5q21 0 50 5.5t61 21t63.5 45t53 78.5t21.5 109q0 38 -15 67.5t-40 48.5q-50 -79 -129 -79zM279 326q72 0 121 74q-19 12 -44.5 19t-46.5 7
q-37 0 -63 -15t-26 -39q0 -18 17 -32t42 -14zM586 733q-20 0 -41 -20t-43 -81h3q21 0 46.5 6.5t43.5 23.5t18 41q0 13 -9 21.5t-18 8.5z" />
    <glyph glyph-name="four" unicode="4" horiz-adv-x="743" 
d="M669 492l-7 2q19 19 19 48q0 13 -6 24.5t-21 11.5q-26 0 -59 -45.5t-61 -119t-46 -170.5l30 1q67 0 111.5 -14.5t68.5 -40t24 -60.5q0 -19 -10 -43t-34.5 -43t-52.5 -19q-20 0 -40 10t-34 27l1 8q13 -16 33.5 -26.5t38.5 -10.5q3 0 10.5 2t7.5 10q0 11 -28 34t-67 42
t-73 30q-11 -96 -11 -203l1 -82q-28 11 -57 12.5t-59 -12.5t-46 -43q36 184 89 349q-54 9 -95 9q-21 0 -61 -4q-41 -46 -83 -79t-75 -45.5t-55 -12.5q-14 0 -24.5 5.5t-10.5 18.5q0 14 17 30.5t45 31.5q75 39 168 68q52 82 84 187t32 208q0 55 -30 85t-70 30
q-43 0 -73.5 -32t-30.5 -87q0 -21 7.5 -42t25 -34t37.5 -13q40 0 53 39h8q-7 -23 -23.5 -35t-37.5 -12q-32 0 -55.5 27t-23.5 70q0 33 11 68t36.5 64.5t64 49t84.5 19.5q48 0 78 -22.5t43.5 -58t13.5 -71.5q0 -32 -10 -78t-36 -109t-67 -129t-78 -112q27 8 71.5 17.5
t81.5 14.5q40 111 85 195.5t84 121.5t64 37q20 0 31.5 -14.5t11.5 -34.5q0 -13 -5.5 -27t-14.5 -23zM22 48q21 0 51 11t64.5 40.5t64.5 70.5q-77 -15 -153 -55q-18 -10 -35.5 -24t-17.5 -27q0 -6 7.5 -11t18.5 -5z" />
    <glyph glyph-name="five" unicode="5" horiz-adv-x="674" 
d="M400 711q0 -19 -16 -85q28 -8 70 -8q53 0 106.5 16t88 50.5t34.5 65.5q0 15 -9.5 24.5t-27.5 9.5q-21 0 -37.5 -10.5t-25.5 -30.5l-1 8q9 20 26.5 31t38.5 11q22 0 46.5 -11t40.5 -38t16 -58q0 -41 -24 -73.5t-65.5 -51t-101.5 -18.5q-48 0 -97 14t-86 38
q-22 -85 -51 -156q28 4 46 4q67 0 114 -26t75 -75t28 -116q0 -37 -10 -81t-36 -84.5t-68 -74t-102 -53t-121 -19.5t-119.5 21.5t-91 66t-32.5 98.5q0 25 10.5 57t37.5 55.5t62 23.5q11 0 26.5 -3.5t37.5 -22.5l-1 -9q-29 26 -60 26q-29 0 -44.5 -15t-15.5 -38
q0 -33 16.5 -57.5t49.5 -40t76 -15.5q44 0 89.5 17t84 50.5t61.5 83t23 110.5q0 48 -28.5 78.5t-78.5 30.5q-17 0 -34 -3q-17 -40 -35 -69.5t-34 -41t-28 -11.5q-23 0 -29 16.5t6 40t41.5 44.5t71.5 30q28 67 55 164q-60 44 -60 99q0 28 16 46t36 18q16 0 28 -14t12 -39z
M317 699q0 -48 58 -70q15 63 15 82q0 18 -7.5 31t-22.5 13q-18 0 -30.5 -16t-12.5 -40zM225 316q18 0 40 30t43 79q-24 -6 -52 -22t-43 -38t-11.5 -35.5t23.5 -13.5z" />
    <glyph glyph-name="six" unicode="6" horiz-adv-x="589" 
d="M573 776l31 -3v-8l-14 1q-32 0 -63 -7t-63.5 -22.5t-74.5 -50t-86.5 -100t-72.5 -155.5t-28 -172q0 -58 13.5 -106.5t33.5 -74.5t45.5 -39.5t57.5 -13.5q38 0 76 17.5t68.5 49.5t48.5 77.5t18 97.5q0 76 -38 127.5t-105 51.5q-35 0 -62.5 -18.5t-38 -47.5t-10.5 -56
q0 -52 41 -77l-8 -3q-42 27 -42 80q0 27 10.5 57.5t39 52t73.5 21.5t78 -24t53.5 -69t20.5 -107q0 -74 -24 -135.5t-65 -103.5t-92 -64t-103 -22q-47 0 -90 18.5t-77 55.5t-53.5 94.5t-19.5 130.5q0 42 11.5 103.5t44 131.5t84 131t112.5 100.5t128.5 60t141.5 20.5z" />
    <glyph glyph-name="seven" unicode="7" horiz-adv-x="542" 
d="M82 312l3 10h100q20 53 58 123t98 146q-17 -3 -46.5 -6t-46.5 -3q-74 0 -125.5 19.5t-80.5 53t-29 73.5t28 66t71 26q18 0 37 -9.5t31 -24.5l-1 -8q-11 14 -30.5 23.5t-36.5 9.5q-16 0 -37.5 -8t-37 -26.5t-15.5 -50.5q0 -31 23.5 -62t73.5 -51.5t128 -20.5q46 0 103 10
q87 107 182 173.5t158 66.5q9 0 16 -4.5t7 -13.5q0 -15 -14.5 -38t-48.5 -52.5t-89 -62t-124 -56.5q-91 -140 -128 -293h111l-3 -10h-110q-15 -75 -15 -132q0 -45 14 -89.5t40.5 -71.5t47 -24.5t27.5 19.5t7 37q0 21 -8 42.5t-19 32.5l7 1q11 -11 20 -35.5t9 -45.5
q0 -82 -41.5 -124.5t-111.5 -42.5q-45 0 -80 28.5t-51 76t-16 92.5q0 59 13 120.5t32 115.5h-100zM690 833q-49 0 -115.5 -56.5t-128.5 -147.5q47 17 90.5 40t83 51t62 56.5t22.5 46.5q0 10 -14 10z" />
    <glyph glyph-name="eight" unicode="8" horiz-adv-x="503" 
d="M509 617q0 -27 -14 -56t-47 -57.5t-82 -57.5q67 -74 91.5 -134t24.5 -125q0 -59 -21.5 -107.5t-58.5 -82t-82.5 -50.5t-91.5 -17q-40 0 -82 15t-71.5 48t-41 70.5t-11.5 74.5q0 67 45.5 123.5t148.5 114.5q-45 56 -60.5 104.5t-15.5 92.5q0 31 10 63.5t35.5 61t67 48
t99.5 19.5q38 0 76 -17.5t59.5 -53t21.5 -77.5zM369 127q0 44 -20 84t-67 91.5t-59 65.5q-103 -59 -147.5 -112.5t-44.5 -116.5q0 -34 10.5 -69t34.5 -63.5t60.5 -47t81.5 -18.5q66 0 108.5 51.5t42.5 134.5zM251 642q0 -26 10.5 -56t32 -57.5t64.5 -74.5q49 27 81.5 54.5
t46.5 55t14 53.5q0 22 -7.5 45.5t-27.5 45.5t-49.5 33.5t-54.5 11.5q-33 0 -60 -16t-38.5 -41.5t-11.5 -53.5z" />
    <glyph glyph-name="nine" unicode="9" horiz-adv-x="632" 
d="M47 -82l-33 3v8l14 -1q47 0 95 16.5t100.5 59.5t101 124.5t75 180.5t26.5 185q0 91 -40.5 150t-107.5 59q-40 0 -80 -15.5t-71.5 -50t-51 -85t-19.5 -110.5q0 -46 15.5 -90.5t50.5 -69.5t81 -25q51 0 83 33.5t32 92.5q0 53 -41 80l7 3q43 -29 43 -83q0 -28 -11 -60
t-41 -53.5t-75 -21.5q-46 0 -79.5 23.5t-53.5 67.5t-20 105q0 56 19 114t56.5 105.5t93.5 76.5t125 29q59 0 105.5 -22.5t76.5 -62t45 -92t15 -112.5q0 -93 -37 -192.5t-98 -173t-123.5 -114t-132 -61.5t-145.5 -21z" />
    <glyph glyph-name="colon" unicode=":" horiz-adv-x="263" 
d="M145 140q27 0 45.5 -23t18.5 -52q0 -25 -12.5 -47.5t-31 -32t-34.5 -9.5q-28 0 -48 20t-20 52q0 25 12.5 48.5t32 33.5t37.5 10zM221 464q27 0 45.5 -23t18.5 -52q0 -25 -12.5 -47.5t-31 -32t-34.5 -9.5q-28 0 -48 20t-20 52q0 25 12.5 48.5t32 33.5t37.5 10z" />
    <glyph glyph-name="semicolon" unicode=";" horiz-adv-x="263" 
d="M221 464q27 0 45.5 -23t18.5 -52q0 -25 -12.5 -47.5t-31 -32t-34.5 -9.5q-28 0 -48 20t-20 52q0 25 12.5 48.5t32 33.5t37.5 10zM70 -172l-12 1q45 35 84.5 89.5t54.5 104.5q-11 -18 -30 -32.5t-37 -14.5q-15 0 -31 8t-25.5 26.5t-9.5 40.5q0 20 9.5 41.5t32 35.5
t45.5 14q27 0 45.5 -18.5t18.5 -52.5q0 -39 -25.5 -90.5t-59.5 -91t-60 -61.5z" />
    <glyph glyph-name="less" unicode="&#x3c;" horiz-adv-x="476" 
d="M472 449l-404 -211l312 -211l-1 -10l-326 221l420 222z" />
    <glyph glyph-name="equal" unicode="=" horiz-adv-x="364" 
d="M72 376l3 10h295l-3 -10h-295zM56 286l3 10h295l-3 -10h-295z" />
    <glyph glyph-name="greater" unicode="&#x3e;" horiz-adv-x="513" 
d="M55 28l404 211l-312 211l1 10l326 -221l-420 -222z" />
    <glyph glyph-name="question" unicode="?" horiz-adv-x="454" 
d="M195 140q27 0 45.5 -23t18.5 -52q0 -25 -12.5 -47.5t-31 -32t-34.5 -9.5q-28 0 -48 20t-20 52q0 25 12.5 48.5t32 33.5t37.5 10zM195 225h-9q-8 24 -8 41q0 23 11 59t68.5 109t73 107.5t15.5 66.5q0 55 -26.5 82.5t-68.5 27.5q-33 0 -69.5 -16t-67 -43t-49.5 -62.5
t-19 -72.5q0 -23 8.5 -49.5t30.5 -44.5t50 -18q51 0 66 48h9q-9 -28 -29 -42.5t-46 -14.5q-29 0 -53.5 18.5t-34.5 47.5t-10 55q0 53 26 105t69 92t93 63.5t94 23.5q60 0 103 -20.5t67.5 -59.5t24.5 -93q0 -56 -20.5 -98t-57.5 -73.5t-105.5 -65t-93 -50.5t-37.5 -37
t-13 -45q0 -17 8 -41z" />
    <glyph glyph-name="at" unicode="@" horiz-adv-x="887" 
d="M729 503h8q-9 -45 -62.5 -266.5t-53.5 -236.5q0 -27 4 -35t13 -8q37 1 92 50t92 132t37 182q0 65 -17.5 122.5t-53.5 101t-94 68t-134 24.5q-121 0 -217.5 -43.5t-162.5 -117t-99.5 -164t-33.5 -179.5q0 -75 24 -144.5t73 -124t124.5 -86t173.5 -31.5q78 0 139.5 20
t110 52t84 75.5t48.5 74.5h9q-14 -33 -50 -78.5t-87 -80.5t-114 -55t-140 -20q-99 0 -176.5 32t-128 88t-76 128t-25.5 150q0 93 34.5 185t102.5 167.5t166.5 119.5t220.5 44q76 0 135.5 -25t98 -69.5t58 -104.5t19.5 -128q0 -74 -23 -144t-62 -123t-87.5 -83.5t-96.5 -30.5
q-37 0 -65.5 21.5t-33.5 58.5q-62 -73 -150 -73q-55 0 -93 22.5t-59 65t-21 104.5q0 28 8 76t37 108t68 98t81 57t87 19q44 0 74.5 -25t43.5 -74l17 77q36 -18 61 -18q28 0 65 14zM502 33q0 35 35 183.5t39 166.5q-13 48 -39.5 74.5t-61.5 26.5q-22 0 -47.5 -20.5t-52.5 -73
t-41.5 -120t-14.5 -122.5q0 -74 25 -118.5t75 -44.5q45 0 83 48z" />
    <glyph glyph-name="A" unicode="A" horiz-adv-x="890" 
d="M195 611q-50 0 -80 -35.5t-30 -81.5q0 -33 19 -69t62 -57.5t99 -21.5q150 222 243 326t170 148.5t144 44.5l24 -1q-72 -31 -143 -152t-104 -261q48 16 81 16q58 0 88.5 -29t30.5 -69q0 -26 -13.5 -50t-33.5 -33.5t-38 -9.5q-19 0 -37 8.5t-30 23.5l1 8q10 -13 29 -22
t36 -9q15 0 33.5 8.5t31 29t12.5 45.5q0 27 -15.5 49t-42 31t-52.5 9q-30 0 -83 -17q-17 -77 -17 -145q0 -53 9 -99.5t28.5 -81.5t50.5 -54.5t72 -19.5q24 0 47.5 13t40 41.5t16.5 57.5q0 25 -18 43.5t-51 18.5q-23 0 -42 -13l-1 8q20 13 44 13q21 0 44 -12t38 -42t15 -65
q0 -31 -11.5 -62t-35 -56t-59.5 -40t-82 -15t-87.5 19.5t-72.5 55t-48 86.5t-17 110q0 101 25 196l-77 -29q-6 -16 -15.5 -44.5t-77 -230.5t-131 -337t-134 -227t-154 -155.5t-190.5 -98.5t-238 -35q-102 0 -191 30t-163 95t-118.5 166t-44.5 198q0 66 20 127t56 107t83 72
t98 26q28 0 61 -9.5t64 -30.5v-8q-28 19 -61 29t-62 10q-48 0 -93.5 -25t-80.5 -69.5t-55 -103.5t-20 -123q0 -267 364 -267q84 0 166.5 32t166 94t174.5 162q47 52 101 120t111.5 150t128.5 187.5t86 127.5q-34 1 -67 10t-59 29.5t-41.5 51t-15.5 66.5q0 51 32.5 88.5
t86.5 37.5q19 0 37 -8.5t30 -23.5l-1 -8q-11 14 -30.5 22.5t-35.5 8.5zM810 856q-72 -8 -138.5 -51.5t-129.5 -140.5t-131 -287l77 30q11 41 36 102.5t73.5 136t107.5 130.5t105 80z" />
    <glyph glyph-name="B" unicode="B" horiz-adv-x="1204" 
d="M269 215v-8q-35 12 -67 12q-49 0 -87.5 -22.5t-56.5 -62t-18 -78.5q0 -33 11.5 -64.5t34.5 -56.5t59 -39.5t83 -14.5q109 0 200 150q-41 56 -77 130l10 1q31 -66 73 -121q42 73 84.5 187t98 309.5t73.5 253.5t32 99q-27 3 -55 3q-56 0 -116 -14t-114 -45.5t-92.5 -74
t-58.5 -83.5t-29 -81t-2.5 -86t41 -77.5t91.5 -31.5q34 0 64.5 15t47.5 41.5t17 64.5q0 22 -5 39h8q5 -19 5 -42q0 -31 -15 -61t-50.5 -48.5t-71.5 -18.5q-48 0 -82 22t-50.5 59t-14.5 84.5t22 95.5q21 51 61 98.5t99 85t138.5 60.5t172.5 25q28 76 50 117l9 2
q-26 -55 -51 -118h7q74 0 137.5 -14.5t110 -39.5t78.5 -59t52.5 -79.5t20.5 -100.5q0 -46 -16.5 -91.5t-42.5 -77.5t-50 -51q31 -18 64.5 -50.5t53.5 -78.5t20 -87q0 -58 -28 -116t-82.5 -105t-136 -75t-181.5 -28q-111 0 -200 54q-47 -48 -117 -75.5t-140 -27.5
q-51 0 -98 14.5t-83.5 44t-58 74.5t-21.5 103q0 51 23.5 90.5t61 61t86.5 21.5q34 0 68 -13zM867 450q61 0 112 -17q19 30 28 68.5t9 74.5q0 52 -17 103.5t-52.5 95.5t-90.5 74.5t-126 39.5q-28 -80 -47.5 -166.5t-30.5 -181.5t-16.5 -263.5t-20.5 -234.5
q-7 -30 -22.5 -59.5t-35.5 -52.5q32 -17 69.5 -27t70.5 -10q31 0 72 12t82 42.5t78.5 79.5t62 116t24.5 127q0 29 -7.5 58t-19.5 49q-59 -27 -127 -27q-34 0 -55.5 15t-21.5 36t21 34.5t61 13.5zM858 362q61 0 103 47q-17 14 -41.5 22t-52.5 8q-32 0 -50.5 -11.5
t-18.5 -25.5q0 -15 18 -27.5t42 -12.5z" />
    <glyph glyph-name="C" unicode="C" 
d="M410 265h-10q11 37 38.5 56t61.5 19q23 0 49 -10.5t47 -31.5t33 -51t12 -66q0 -57 -25.5 -106t-68.5 -84t-96.5 -54t-107.5 -19q-66 0 -116 21t-82 59t-47.5 89t-15.5 110q0 114 51 238q-67 18 -100 57.5t-33 83.5q0 30 16.5 56.5t38.5 37t40 10.5q22 0 43 -13.5
t32 -39.5h-7q-20 44 -68 44q-36 0 -60.5 -27.5t-24.5 -66.5q0 -45 30 -81t96 -53q33 77 76.5 138t89 105t98 76.5t112 50.5t120.5 18q52 0 83.5 -23t31.5 -65q0 -32 -24 -79.5t-82 -100t-130 -85t-135 -44.5t-113 -13q-21 -79 -21 -157q0 -51 11.5 -101t37.5 -87.5t65 -60
t88 -22.5q36 0 69.5 13.5t60 38.5t41.5 60t15 76q0 66 -39 107.5t-91 41.5q-71 0 -90 -65zM632 820q-41 0 -95 -28.5t-107 -81t-97.5 -125t-67.5 -154.5q88 2 174.5 29.5t156 78.5t103.5 102t37.5 91t-23 64t-81.5 24z" />
    <glyph glyph-name="D" unicode="D" horiz-adv-x="1296" 
d="M269 215v-8q-35 12 -67 12q-49 0 -87.5 -22.5t-56.5 -62t-18 -78.5q0 -33 11.5 -64.5t34.5 -56.5t59 -39.5t83 -14.5q109 0 200 150q-41 56 -77 130l10 1q31 -66 73 -121q42 73 84.5 187t98 309.5t73.5 253.5t32 99q-27 3 -55 3q-56 0 -116 -14t-114 -45.5t-92.5 -74
t-58.5 -83.5t-29 -81t-2.5 -86t41 -77.5t91.5 -31.5q34 0 64.5 15t47.5 41.5t17 64.5q0 22 -5 39h8q5 -19 5 -42q0 -31 -15 -61t-50.5 -48.5t-71.5 -18.5q-48 0 -82 22t-50.5 59t-14.5 84.5t22 95.5q21 51 61 98.5t99 85t138.5 60.5t172.5 25q28 76 50 117l9 2
q-26 -55 -51 -118h7q63 0 127 -13t132.5 -48t129.5 -104.5t94 -163.5t33 -193q0 -73 -18.5 -147t-55 -137.5t-95.5 -120t-149 -91.5t-198 -35q-111 0 -200 54q-47 -48 -117 -75.5t-140 -27.5q-51 0 -98 14.5t-83.5 44t-58 74.5t-21.5 103q0 51 23.5 90.5t61 61t86.5 21.5
q34 0 68 -13zM1022 503q0 73 -16.5 138t-51 117t-91.5 86.5t-133 44.5q-28 -80 -47.5 -166.5t-30.5 -181.5t-16.5 -263.5t-20.5 -234.5q-7 -30 -22.5 -59.5t-35.5 -52.5q32 -17 69.5 -27t70.5 -10q28 0 54 12.5t48.5 31t53 55t71.5 114t69.5 186.5t28.5 210z" />
    <glyph glyph-name="E" unicode="E" horiz-adv-x="743" 
d="M235 262q0 -76 22.5 -139.5t62 -106.5t91.5 -65.5t108 -22.5q36 0 69.5 13.5t60 38.5t41.5 60t15 76q0 28 -11 60t-32 52.5t-43.5 28.5t-43.5 8q-71 0 -90 -65h-10q11 37 38.5 56t61.5 19q23 0 49 -10.5t47 -31.5t33 -51t12 -66q0 -53 -19 -108.5t-62.5 -101.5t-93.5 -70
t-89 -31t-67 -7q-79 0 -140 25.5t-101 69.5t-59.5 100.5t-19.5 118.5q0 45 13 100.5t45.5 112t76 94t83.5 56t72 26.5l-14 27q-50 -8 -89 -8q-50 0 -94 14t-67.5 46t-23.5 75q0 18 5.5 39t20 40t40 33.5t62.5 14.5q21 0 42.5 -8t36.5 -24t23 -33h-8q-15 24 -36 40t-58 16
q-57 0 -88 -35.5t-31 -82.5q0 -42 20.5 -69.5t59.5 -42t96 -14.5q46 0 86 8q-14 35 -14 82q0 43 17.5 85t46.5 77t71.5 66.5t87 47t74.5 15.5q37 0 59.5 -20t22.5 -59q0 -59 -36 -113t-102 -99t-154 -73q3 -19 9 -34l32 1q23 0 47.5 -5.5t42 -18t25 -30t-3 -33t-35.5 -15.5
q-53 0 -95 20t-68 55q-61 -26 -95.5 -88.5t-34.5 -135.5zM406 600q0 -25 3 -46q55 17 106.5 44t91.5 63t63.5 79.5t23.5 91.5q0 34 -13.5 48.5t-41.5 14.5q-33 0 -73.5 -21.5t-77 -61t-59.5 -94.5t-23 -118zM452 504l-28 -2q9 -19 24.5 -39t37.5 -31.5t42 -11.5
q10 0 19.5 4.5t13 16t-7 27t-37.5 26t-64 10.5z" />
    <glyph glyph-name="F" unicode="F" horiz-adv-x="801" 
d="M347 393q-47 0 -80 13t-56.5 33t-40.5 54t-17 76v7q-20 10 -41 32t-33.5 57t-12.5 73q0 48 18 97.5t51 91t80 66t101 24.5q137 0 377 -99q42 129 79 198l9 2q-44 -90 -80 -204q44 -18 146 -63.5t139 -58t54 -12.5q39 0 77 12t58.5 40t20.5 59q0 46 -33.5 74.5t-73.5 28.5
q-21 0 -39.5 -8t-27.5 -23.5t-12 -32.5l-6 6q5 32 29 49.5t56 17.5q44 0 80 -31t36 -80q0 -21 -9.5 -44t-30.5 -41t-53 -28.5t-74 -10.5q-129 0 -364 47q-35 -153 -44 -323q88 37 133 37q58 0 89.5 -29t33.5 -69t-23 -69.5t-67 -29.5q-19 0 -37 8.5t-30 23.5l1 8
q12 -15 30 -23t36 -8t38.5 9.5t33 32t11 48.5t-18 48t-43 31.5t-56.5 9.5q-44 0 -132 -37q-2 -37 -6.5 -167t-18.5 -194q-6 -25 -20 -55.5t-40.5 -59t-66 -54t-92.5 -40.5t-105 -15q-51 0 -98 14.5t-83.5 44t-58 74.5t-21.5 103q0 51 23.5 90.5t61 61t86.5 21.5q34 0 68 -13
v-8q-35 12 -67 12q-49 0 -87.5 -22.5t-56.5 -62t-18 -78.5q0 -33 11.5 -64.5t34.5 -56.5t59 -39.5t83 -14.5q96 0 177.5 115.5t162.5 376.5q-65 -27 -116 -43t-94 -16zM560 462q21 66 59.5 202t43.5 153q-200 40 -270 50t-124 10q-56 0 -97 -21t-66 -59t-25 -86
q0 -38 19 -72t53 -53q4 53 28 89t50.5 49t46.5 13q32 0 51.5 -20.5t19.5 -50.5q0 -42 -32 -75t-82 -33q-40 0 -73 14v-3q0 -48 23 -86t64 -59.5t98 -21.5q34 0 82 12t131 48zM278 729q-18 0 -43 -12.5t-47.5 -47.5t-25.5 -87q32 -15 73 -15q23 0 48 11t41 36t16 51
q0 27 -16.5 45.5t-45.5 18.5z" />
    <glyph glyph-name="G" unicode="G" horiz-adv-x="693" 
d="M288 103l-6 -3q-12 16 -30 28.5t-51 12.5q-31 0 -57 -12.5t-47.5 -33t-39.5 -58t-18 -85.5q0 -44 15.5 -82t44 -65t69.5 -42t89 -15q50 0 89 23t68 61t57 99t80 245q-52 -22 -109 -22q-67 0 -113 22t-71.5 64.5t-25.5 106.5v7l-25 -1q-49 0 -94 11.5t-75.5 36t-46.5 58.5
t-16 72q0 34 15 70.5t45 59t74 22.5q76 0 106 -61h-9q-24 52 -97 52q-26 0 -47 -9t-37 -25t-28.5 -46.5t-12.5 -61.5q0 -47 23.5 -85t72.5 -61t127 -23l25 1q4 81 47 174t114 174t159.5 131t179.5 50q18 0 39.5 -8t37 -29t15.5 -49q0 -44 -21.5 -92.5t-59.5 -94t-97.5 -93.5
t-130.5 -85t-130 -57v-24q0 -38 8 -69t25 -53t44.5 -34t64.5 -12q17 0 30 4q34 120 63 166.5t66 46.5q16 0 25.5 -10.5t9.5 -27.5q0 -27 -22.5 -66t-59.5 -73q12 -102 13.5 -129.5t1.5 -43.5q0 -124 -50.5 -193.5t-138.5 -98.5t-207 -29q-62 0 -107 20t-71.5 52t-38.5 68.5
t-12 70.5q0 45 15 83t40.5 64t56 40t59.5 14q27 0 50 -12.5t38 -35.5zM726 883q-49 0 -106 -29t-108 -88t-86 -152t-40 -219q79 27 166.5 79t150.5 118t87 119.5t24 95.5q0 34 -24 55t-64 21zM633 318q0 -29 5 -74q32 30 53 67.5t21 62.5q0 12 -9 19.5t-20 7.5
q-20 0 -35 -21t-15 -62z" />
    <glyph glyph-name="H" unicode="H" horiz-adv-x="998" 
d="M227 257l-1 -8q-31 15 -59 15q-26 0 -55.5 -17.5t-52 -60t-22.5 -85.5q0 -23 9 -51.5t30 -52t53.5 -38t75.5 -14.5q70 0 129.5 52t109.5 164t92 308q-117 -12 -165 -37.5t-48 -67.5q0 -25 17.5 -43.5t43.5 -18.5q35 0 63 37l1 -9q-30 -37 -65 -37q-30 0 -49.5 22.5
t-19.5 48.5q0 46 51 73.5t173 40.5l29 151q-41 -27 -82.5 -42.5t-73.5 -15.5q-33 0 -63 11t-47.5 37.5t-17.5 57.5q0 19 9.5 42t33.5 40.5t51 17.5q18 0 35 -8t29 -23l-1 -8q-11 14 -28.5 22t-33.5 8q-28 0 -49.5 -17t-30 -42.5t-3 -52.5t26 -45.5t44.5 -24.5t46 -6
q24 0 64 13t94 49q19 98 31 132q16 46 41.5 75.5t51 38t42.5 -1t17 -33.5q0 -37 -36 -87t-91 -95q-4 -56 -6 -185q67 5 134 12q37 82 95 154.5t117 109.5t97 37q30 0 48.5 -24.5t18.5 -61.5q0 -73 -52 -124t-170 -77q-17 -102 -17 -217q0 -138 30.5 -246t79.5 -179
t104.5 -106.5t103.5 -35.5q44 0 71 25.5t27 75.5q0 15 -8.5 34t-29 33t-43.5 14t-42 -13l-1 8q20 13 44 13q40 0 70 -35t30 -94q0 -30 -9 -65.5t-32.5 -67t-63.5 -54.5t-97.5 -27.5t-115.5 15.5q-61 21 -118 68.5t-102 123t-71.5 182t-26.5 237.5q0 151 59 287l-130 -11
q-4 -173 -18.5 -263.5t-41 -158.5t-69.5 -113t-100.5 -67.5t-132.5 -22.5q-48 0 -91 17.5t-74.5 49.5t-49 77t-17.5 98q0 43 18 86.5t52 68t72 24.5q30 0 59 -16zM1121 714q0 30 -17 52t-41 22q-29 0 -56 -23t-53.5 -82.5t-44.5 -160.5q113 25 162.5 73.5t49.5 118.5z
M640 777q-10 -38 -13 -92q37 31 66 66t40 61t11 42q0 11 -7 19t-18 10t-24 -5.5t-25.5 -26.5t-20 -41.5t-9.5 -32.5z" />
    <glyph glyph-name="I" unicode="I" horiz-adv-x="726" 
d="M670 418l-2 7q21 14 41 14q22 0 36 -17t14 -41t-17.5 -50t-62.5 -48.5t-100 -29.5q-19 -72 -48.5 -141t-70.5 -119.5t-91 -79.5t-107 -29q-45 0 -88 19t-75.5 52t-51.5 75.5t-19 87.5q0 42 21.5 83t59.5 64t74 23q37 0 67 -20l-2 -8q-31 20 -64 20q-44 0 -77.5 -29
t-33.5 -71q0 -18 11.5 -39t42.5 -36t70 -15q136 0 243 169q-62 14 -105 44.5t-66 74t-23 99.5q0 62 29.5 105t75 68t90 39.5t111.5 31t89 23.5q32 85 53.5 108.5t42.5 23.5q14 0 22.5 -11.5t8.5 -24.5q0 -24 -21 -48.5t-89 -56.5q-24 -98 -43 -275q-12 -108 -33 -194
q72 8 120 41.5t48 73.5q0 22 -12.5 35.5t-29.5 13.5q-19 0 -38 -12zM367 460q0 -54 25.5 -99.5t65.5 -70.5q47 83 94 204q20 52 48 132t34 98q-117 -51 -153.5 -75.5t-61 -51t-38.5 -61.5t-14 -76zM737 868q-22 0 -41.5 -30.5t-33.5 -86.5q46 16 71.5 37.5t25.5 53.5
q0 10 -6.5 18t-15.5 8z" />
    <glyph glyph-name="J" unicode="J" horiz-adv-x="723" 
d="M450 188l9 -1q-11 -25 -33 -39.5t-44 -14.5q-33 0 -55.5 19t-29.5 50t2.5 68t34.5 70q-50 56 -50 137q0 78 61 132t338 139q43 128 92 128q11 0 22 -9.5t11 -26.5q0 -35 -23.5 -67.5t-93.5 -62.5q-27 -119 -35 -254q38 -5 65 -20.5t36.5 -34t9.5 -33.5q0 -23 -16.5 -45
t-45 -36.5t-55.5 -20.5q-4 -71 -16.5 -141t-38 -141.5t-71.5 -130.5t-104.5 -88.5t-118.5 -29.5q-52 0 -101.5 20t-88.5 56t-61.5 83.5t-22.5 99.5q0 42 21.5 82.5t59.5 63t74 22.5q40 0 67 -18l-2 -8q-28 18 -64 18q-31 0 -59.5 -15.5t-40 -37t-11.5 -38.5q0 -20 11.5 -43
t42.5 -38.5t70 -15.5q64 0 128.5 35t120.5 98t97 156q-59 1 -112.5 21.5t-89.5 56.5q-23 -31 -32 -65.5t-3 -63t26.5 -45.5t51.5 -17q21 0 39 12t28 34zM405 460q0 -28 6 -52q81 46 195 49q42 178 62 243q-11 -4 -49.5 -19t-69.5 -29t-53.5 -29.5t-40.5 -33.5t-34 -49.5
t-16 -79.5zM603 448q-110 -3 -189 -50q11 -37 36 -66t51.5 -43t47.5 -18q24 59 41 123zM758 368q0 30 -27 51.5t-76 27.5l-2 -87q0 -44 -3 -85q50 11 79 38t29 55zM775 868q-19 0 -38 -30t-34 -82q96 36 96 86q0 12 -7 19t-17 7z" />
    <glyph glyph-name="K" unicode="K" horiz-adv-x="947" 
d="M225 277l-1 -8q-31 15 -59 15q-26 0 -55.5 -17.5t-52 -60t-22.5 -85.5q0 -23 9 -51.5t30 -52t53.5 -38t75.5 -14.5q93 0 167 92t128 287q-21 9 -33.5 25t-12.5 35q0 28 20.5 47.5t57.5 22.5q10 45 35 175q-41 -27 -82.5 -42.5t-73.5 -15.5q-33 0 -63 11t-47.5 37.5
t-17.5 57.5q0 19 9.5 42t33.5 40.5t51 17.5q18 0 35 -8t29 -23l-1 -8q-11 14 -28.5 22t-33.5 8q-28 0 -49.5 -17t-30 -42.5t-3 -52.5t26 -45.5t44.5 -24.5t46 -6q24 0 64 13t94 49q19 98 31 132q16 46 41.5 75.5t51 38t42.5 -1t17 -33.5q0 -37 -36 -87t-91 -95
q-3 -47 -5 -132t-2 -97q42 -16 76 -50q9 11 18.5 29t17.5 41.5t13 45.5t19.5 96.5t25.5 103.5t24.5 50t39.5 37.5t69 16.5q44 0 69 -30.5t25 -69.5q0 -26 -13 -51.5t-33.5 -37.5t-39.5 -14v9q31 2 49 22t18 44q0 15 -10.5 25t-30.5 10q-16 0 -30.5 -10t-28.5 -32t-43 -90.5
t-44 -96.5t-29 -48.5t-30.5 -39.5t-34.5 -33q21 -25 43.5 -64t77 -158.5t91 -180t79 -107.5t97.5 -82t126.5 -55t158.5 -20q32 0 64.5 12.5t52.5 34.5t20 54q0 45 -18 91t-53 87l8 2q36 -42 55 -92.5t19 -100.5q0 -70 -30.5 -133.5t-85.5 -111.5t-130.5 -75t-160.5 -27
q-60 0 -117.5 16t-109 51t-96.5 101t-72.5 173.5t-27.5 251.5v17.5t1 125.5t-17 173q-38 -23 -78 -31q-13 -185 -60.5 -285.5t-122 -142t-172.5 -41.5q-48 0 -91 17.5t-74.5 49.5t-49 77t-17.5 98q0 43 18 86.5t52 68t72 24.5q30 0 59 -16zM638 797q-10 -38 -13 -92
q37 31 66 66t40 61t11 42q0 11 -7 19t-18 10t-24 -5.5t-25.5 -26.5t-20 -41.5t-9.5 -32.5zM462 405q0 -18 11 -31t28 -20l27 110q-31 -3 -48.5 -20t-17.5 -39zM612 355q40 11 67 40q-20 42 -63 58z" />
    <glyph glyph-name="L" unicode="L" horiz-adv-x="634" 
d="M1390 -119h9q38 -38 57.5 -86t19.5 -98q0 -57 -25 -113t-74 -100t-120 -70t-158 -26q-61 0 -125 18.5t-126 58t-135 111t-188.5 231.5t-136.5 186q-87 -63 -203 -63q-70 0 -109.5 26.5t-45.5 62t12 67t55.5 51.5t89.5 20q113 0 228 -56q12 51 12 125q0 53 -5 121
q-54 -9 -116 -9q-56 0 -112 12.5t-106.5 44.5t-80 82t-33 103.5t17.5 99.5t64.5 74.5t102.5 28.5q41 0 68 -15t50 -43l-3 -5q-26 29 -50 41t-64 12q-45 0 -81 -17.5t-59 -48t-31.5 -69t-2.5 -77.5q7 -41 29.5 -79t62.5 -68.5t98 -48t131 -17.5q61 0 115 9q-6 96 -6 139
q0 87 23 163t62.5 130t90 83t103.5 29q33 0 58 -18.5t40.5 -55.5t15.5 -85q0 -45 -14.5 -94.5t-45 -97.5t-78 -90.5t-108.5 -70.5q-1 -58 -14 -122t-35.5 -113.5t-45.5 -80.5q35 -20 84 -53t155 -117t159 -122t99 -64.5t96 -49.5t119.5 -41.5t149.5 -18.5q45 0 74.5 13.5
t43.5 39t14 60.5q0 28 -10 59.5t-27.5 57.5t-34.5 44zM550 699q0 -59 6.5 -164.5t6.5 -133.5q73 35 124.5 88.5t81 119.5t29.5 135q0 62 -27.5 104.5t-73.5 42.5q-70 0 -108.5 -47t-38.5 -145zM185 -60q130 0 189 70q-54 66 -101.5 101t-94.5 35q-44 0 -78 -18.5t-50 -46.5
t-10.5 -58t30 -50t56 -26.5t59.5 -6.5z" />
    <glyph glyph-name="M" unicode="M" horiz-adv-x="1411" 
d="M846 464q75 70 195 157q65 117 142 194t124 77q33 0 33 -24q0 -26 -32.5 -61.5t-133.5 -105.5q-32 -93 -52 -209.5t-20 -206.5q0 -245 153 -245q49 0 80.5 34t31.5 75q0 33 -24.5 57t-55.5 24q-24 0 -43 -13l-1 8q20 13 44 13q44 0 72 -34t28 -95q0 -37 -13.5 -76.5
t-49 -78.5t-84.5 -58.5t-92 -19.5q-68 0 -119 38.5t-79 107.5t-28 169q0 50 10 118.5t36.5 145.5t61.5 145q-106 -75 -183 -147q10 -80 10 -156q0 -74 -12 -143t-34.5 -122.5t-53.5 -84t-67 -30.5q-28 0 -48.5 29.5t-20.5 81.5q0 214 204 416q-10 35 -31 77t-54 81
t-79.5 72.5t-105.5 53t-115 19.5q-61 0 -102 -20.5t-62 -54.5t-21 -82q0 -47 16 -80t45 -51t63 -18q30 0 63 17t53.5 50t23.5 71h9q-2 -44 -24.5 -76.5t-58.5 -51.5t-71 -19q-9 0 -33 5t-45.5 24t-35.5 49.5t-14 75.5q0 71 20.5 129t57 98t83.5 60.5t98 20.5q56 0 110.5 -26
t101 -79t80.5 -136t49 -189zM249 256l2 -9q-31 17 -66 17q-21 0 -44 -8.5t-43 -28t-34 -49.5t-14 -65q0 -42 24 -64t69 -22q46 0 107.5 22.5t124 62t122.5 98t99 131t39 144.5q0 79 -42 156l6 3q50 -80 50 -182q0 -107 -33 -201t-84 -162.5t-105.5 -112t-110 -67
t-100.5 -23.5q-79 0 -129.5 53t-50.5 151q0 34 15 73.5t52.5 69.5t81.5 30q33 0 64 -17zM847 291q0 75 -19 143q-198 -196 -198 -406q0 -47 17 -74.5t44 -27.5q24 0 50.5 20t52.5 73t39.5 128t13.5 144zM1331 866q0 16 -24 16q-34 0 -67 -45.5t-60 -120.5q75 53 113 88.5
t38 61.5z" />
    <glyph glyph-name="N" unicode="N" horiz-adv-x="679" 
d="M34 -84l-9 -1q3 57 19.5 111.5t48.5 115.5t103.5 160t95 135.5t41.5 71t28.5 64.5t17.5 61.5t7 69.5q0 24 -10 49t-34.5 41t-55.5 16q-32 0 -67.5 -18t-66 -54t-50 -91t-20.5 -124l-8 1q0 71 20 128t53 94.5t73 56.5t78 19q28 0 60.5 -12t61.5 -38t47.5 -67t18.5 -95
q0 -16 -5 -38q75 60 143 60q24 0 50.5 -11.5t44 -40.5t17.5 -66q0 -69 -25.5 -135t-80.5 -155t-72 -122t-28 -61.5t-19.5 -64t-8.5 -76.5q0 -78 39.5 -127t113.5 -49q32 0 62 18.5t42 44t12 46.5q0 22 -14 43t-32.5 29.5t-32.5 8.5v9q16 0 37.5 -10t38 -34.5t16.5 -51.5
q0 -56 -21 -101t-56.5 -75.5t-80 -46t-91.5 -15.5q-48 0 -94.5 16.5t-83 50t-58 84t-21.5 114.5q0 80 41 165.5t166.5 217t152.5 172t42 76.5t15 76q0 27 -17 43t-52 16q-75 0 -149 -65q-11 -37 -38 -89.5t-99 -162t-92 -144t-32 -59t-21 -51t-9 -49.5q-15 -5 -33 -5
q-12 0 -43.5 6t-44.5 6q-8 0 -17 -3q-10 -32 -14 -88z" />
    <glyph glyph-name="O" unicode="O" horiz-adv-x="630" 
d="M-102 557q0 -30 19 -62.5t65.5 -55t111.5 -28.5q33 94 88.5 175t120 138.5t127 88.5t109.5 31q38 0 60.5 -22t22.5 -64q0 -36 -29 -85q33 -28 50 -80t17 -116q0 -120 -36 -226.5t-95 -183.5t-128.5 -119.5t-133.5 -42.5q-54 0 -95.5 20t-67.5 55.5t-38.5 84t-12.5 104.5
q0 57 10.5 119.5t27.5 113.5q-65 6 -109.5 27t-68.5 54t-24 73q0 30 16.5 56.5t39 37.5t40.5 11q21 0 41.5 -13.5t33.5 -40.5h-9q-21 45 -66 45q-15 0 -35 -9.5t-36 -33.5t-16 -52zM495 514l8 3q5 -20 5 -36q0 -30 -17.5 -54t-39 -33.5t-36.5 -9.5q-30 0 -49.5 17.5
t-27.5 47.5q-45 -22 -97 -36q-10 -69 -10 -157q0 -64 16 -106.5t44.5 -64.5t70.5 -22q30 0 68 13t75 46.5t70 88t53 129t20 144.5q0 57 -15.5 105t-45.5 75q-35 -57 -100 -115t-141 -96q7 -27 25 -43.5t45 -16.5q17 0 35.5 11t33 31.5t14.5 46.5q0 12 -4 32zM613 758
q0 36 -20 56.5t-57 21t-84 -27.5q-24 -14 -52.5 -41t-58 -71t-56.5 -112.5t-42 -161.5q53 15 93 35q-3 15 -3 34q0 55 24 105.5t60.5 80t81.5 29.5q51 0 88 -28q26 47 26 80zM342 489l2 -28q75 37 139 94.5t98 113.5q-15 12 -36.5 19.5t-44.5 7.5q-43 0 -78 -28t-57.5 -76.5
t-22.5 -102.5z" />
    <glyph glyph-name="P" unicode="P" horiz-adv-x="993" 
d="M269 215v-8q-35 12 -67 12q-49 0 -87.5 -22.5t-56.5 -62t-18 -78.5q0 -33 11.5 -64.5t34.5 -56.5t59 -39.5t83 -14.5q89 0 166.5 100.5t153.5 328.5q-19 29 -19 63q0 14 6 32t22 33.5t36 18.5q8 28 48.5 170t60.5 206q-63 24 -137 24q-107 0 -210.5 -50t-163.5 -135
t-60 -185q0 -39 11.5 -74t32 -61t50 -40.5t63.5 -14.5q44 0 79 30t35 80q0 18 -10 38l9 -1q10 -20 10 -38q0 -55 -37 -87t-87 -32q-27 0 -55.5 10.5t-52.5 35t-40.5 63.5t-16.5 89q0 46 13 94.5t42.5 92t76 82.5t108.5 67.5t132 43t137 14.5q43 0 85 -6q35 106 67 164l9 2
q-36 -76 -68 -167q67 -10 127 -36t105 -67t70.5 -98.5t25.5 -127.5q0 -56 -24 -109.5t-70.5 -96t-115 -67t-151.5 -24.5q-31 0 -57 6q-3 -69 -7 -120t-12 -89q-6 -25 -20 -55.5t-40.5 -59t-66 -54t-92.5 -40.5t-105 -15q-51 0 -98 14.5t-83.5 44t-58 74.5t-21.5 103
q0 51 23.5 90.5t61 61t86.5 21.5q34 0 68 -13zM878 545q0 69 -18.5 123.5t-55.5 95.5t-93 65q-17 -57 -32 -124t-26.5 -158.5t-17.5 -281.5q17 -3 36 -3q33 0 68.5 15.5t66 51.5t51.5 92t21 124zM539 370q0 -24 13 -47l38 124q-12 -3 -24 -13t-19.5 -28t-7.5 -36z" />
    <glyph glyph-name="Q" unicode="Q" horiz-adv-x="788" 
d="M507 398l9 2q21 -32 21 -77q0 -37 -17.5 -77t-50.5 -63.5t-69 -23.5q-52 0 -89 27.5t-58.5 80.5t-21.5 129q0 79 25 164.5t71 157t112 117t146 45.5q41 0 83.5 -16.5t78 -54.5t59 -94t23.5 -120t-18 -140.5t-60 -156t-106.5 -157t-149.5 -141.5q76 -45 198.5 -145
t156.5 -126.5t80.5 -56.5t99.5 -57t125 -46t150 -19q35 0 71.5 12.5t59 34.5t22.5 54q0 34 -15 58t-34 32t-33 8q-19 0 -36 -9l-2 8q20 10 37 10q28 0 51.5 -18.5t32.5 -43t9 -44.5q0 -35 -8.5 -77.5t-35 -85.5t-75.5 -79.5t-121.5 -58t-145.5 -21.5q-43 0 -99.5 12.5
t-123.5 51.5t-144.5 115.5t-191.5 234.5t-137 187q-115 -60 -206 -60q-51 0 -89.5 14.5t-55.5 40t-17 52.5q0 33 24 64t58.5 43.5t68.5 12.5q150 0 297 -81q74 77 123.5 178.5t73.5 206.5t24 211q0 44 -7.5 87.5t-25 76.5t-45.5 53t-66 20q-63 0 -133 -58.5t-118.5 -168
t-48.5 -236.5q0 -56 17 -108t54.5 -80.5t85.5 -28.5q26 0 55 16t50.5 56t21.5 81q0 42 -20 75zM180 -118q101 0 196 62q-40 50 -78.5 84t-71 47t-56.5 13q-62 0 -102 -32.5t-40 -76.5q0 -19 12 -42t48 -39t92 -16z" />
    <glyph glyph-name="R" unicode="R" horiz-adv-x="1056" 
d="M262 214v-8q-35 12 -67 12q-49 0 -87.5 -22.5t-56.5 -62t-18 -78.5q0 -33 11.5 -64.5t34.5 -56.5t59 -39.5t83 -14.5q81 0 154.5 86t143.5 282q-22 21 -31.5 47.5t-3 50t28.5 39t57 16.5q19 63 58 202t58 199q-57 17 -125 17q-35 0 -82.5 -7.5t-99.5 -28t-95 -51
t-73.5 -70.5t-42 -80t-11.5 -72q0 -51 23.5 -86.5t61.5 -53.5t89 -18q32 0 57.5 15t35.5 40t10 48q0 15 -5 35l9 -1q5 -20 5 -35q0 -20 -5.5 -37.5t-16.5 -32.5t-34 -28.5t-57 -13.5q-43 0 -73.5 11.5t-53 30t-39.5 51.5t-17 76q0 74 41 136.5t110.5 106.5t156.5 67t175 23
q39 0 68 -4q42 129 78 196l9 2q-44 -92 -78 -199q78 -9 144 -37.5t114.5 -70t78 -91.5t39 -103t-2 -104.5t-45.5 -96.5t-91.5 -78t-134.5 -49q15 -29 73.5 -159t115 -204.5t117 -117t135.5 -65t167 -22.5q34 0 66 11.5t51.5 35t19.5 61.5q0 45 -18 91t-53 87l8 2
q36 -42 55 -92.5t19 -100.5q0 -70 -30.5 -133.5t-85.5 -111.5t-130.5 -75t-160.5 -27q-60 0 -117.5 16t-109 51t-96.5 101t-72.5 173.5t-27.5 251.5q0 148 -7 216l-60 -2q-22 0 -43 3q-5 -103 -17 -157q-6 -25 -20 -55.5t-40.5 -59t-66 -54t-92.5 -40.5t-105 -15
q-51 0 -98 14.5t-83.5 44t-58 74.5t-21.5 103q0 51 23.5 90.5t61 61t86.5 21.5q34 0 68 -13zM633 393q36 -11 66.5 -35.5t52.5 -55t37 -57.5q31 21 60.5 60.5t45.5 101.5t9 127t-34.5 117.5t-71.5 89.5t-103 57q-51 -179 -62 -405zM663 207q35 0 63 9q-8 68 -30.5 109
t-63.5 56l-6 -172zM567 391q-21 -1 -39.5 -9.5t-28.5 -30t-2 -47.5t26 -45q26 72 44 132z" />
    <glyph glyph-name="S" unicode="S" 
d="M511 727l7 -1q-40 -25 -40 -64q0 -27 22 -50t57 -23q24 0 48 16t34.5 41t10.5 49q0 42 -26.5 79t-72 56t-89.5 19q-28 0 -56 -8t-48 -23.5t-32 -39.5t-12 -55q0 -39 23 -77.5t96 -95t107 -89.5t56 -70t31 -74.5t9 -73.5t-10 -80t-35.5 -84.5t-68 -74.5t-103.5 -54
t-123 -20q-65 0 -117.5 19t-88 51.5t-53.5 72.5t-18 80q0 23 7.5 50t27 53t55 47t89.5 28l-1 -9q-32 -4 -63 -16.5t-57.5 -37t-37.5 -57t-11 -58.5q0 -40 17.5 -78t51.5 -68.5t83.5 -48t109.5 -17.5q31 0 64.5 10.5t62 36.5t48 67.5t19.5 97.5q0 34 -12.5 63.5t-38.5 59
t-104 90t-107 99t-40.5 71t-13.5 55t-2 31.5q0 55 20.5 100t58 76t90 47.5t114.5 16.5q39 0 77 -11.5t68 -33t47.5 -53t17.5 -69.5q0 -28 -12 -54.5t-38 -43.5t-52 -17q-17 0 -38 8.5t-35.5 29t-14.5 44.5q0 23 13 39.5t29 25.5z" />
    <glyph glyph-name="T" unicode="T" horiz-adv-x="674" 
d="M342 645h9q-5 -27 -23 -50t-43 -32.5t-47 -9.5q-31 0 -61.5 10t-54 32.5t-38.5 57.5t-15 80q0 48 18 97.5t51 91t80 66t101 24.5q137 0 377 -99q42 129 79 198l9 2q-44 -90 -80 -204q44 -18 146 -63.5t139 -58t54 -12.5q39 0 77 12t58.5 40t20.5 59q0 46 -33.5 74.5
t-73.5 28.5q-21 0 -39.5 -8t-27.5 -23.5t-12 -32.5l-6 6q5 32 29 49.5t56 17.5q44 0 80 -31t36 -80q0 -21 -9.5 -44t-30.5 -41t-53 -28.5t-74 -10.5q-129 0 -364 47q-23 -98 -32.5 -186.5t-12 -143.5t-7 -176.5t-18.5 -186.5q-6 -25 -20 -55.5t-40.5 -59t-66 -54
t-92.5 -40.5t-105 -15q-51 0 -98 14.5t-83.5 44t-58 74.5t-21.5 103q0 51 23.5 90.5t61 61t86.5 21.5q34 0 68 -13v-8q-35 12 -67 12q-49 0 -87.5 -22.5t-56.5 -62t-18 -78.5q0 -33 11.5 -64.5t34.5 -56.5t59 -39.5t83 -14.5q62 0 115 45.5t96 123t84 189.5t90.5 287.5
t60.5 211.5q-200 40 -270 50t-124 10q-56 0 -97 -21t-66 -59t-25 -86q0 -35 18 -70t55 -54.5t81 -19.5q21 0 44 8.5t39.5 29.5t20.5 45z" />
    <glyph glyph-name="U" unicode="U" horiz-adv-x="850" 
d="M866 84l10 -3q-12 -51 -39.5 -89.5t-67 -62.5t-82.5 -24q-34 0 -64.5 17.5t-48 52t-17.5 83.5q0 23 3 48q-29 -63 -68 -110t-85.5 -73t-83.5 -26q-41 0 -69.5 19t-43 54t-14.5 80q0 76 46.5 225t57 199t10.5 84q0 69 -21 119.5t-55.5 77t-80.5 26.5q-48 0 -80 -22.5
t-43.5 -51t-11.5 -49.5q0 -22 12 -41.5t31.5 -28t37.5 -8.5q10 0 22 3v-9q-10 -3 -21 -3q-25 0 -48 13t-37.5 43.5t-14.5 69.5q0 41 16.5 84t49.5 79.5t83.5 58.5t113.5 22q46 0 91 -17t82.5 -52t59.5 -90t22 -126q0 -63 -26 -138.5t-109 -212t-103.5 -189.5t-24.5 -81.5
t-4 -46.5q0 -78 76 -78q36 0 79.5 26t84.5 76.5t74 126.5q13 72 54.5 208.5t56.5 190t21.5 93t6.5 59.5q0 17 -3 30q11 7 26 10.5t43.5 4.5t40.5 3q13 2 19.5 7.5t6.5 23.5q0 26 -6 68l8 1q7 -47 7 -80q0 -41 -8.5 -100.5t-28 -130t-77.5 -253t-58 -272.5q0 -38 14 -58
t36 -20q35 0 81 45t61 115z" />
    <glyph glyph-name="V" unicode="V" horiz-adv-x="667" 
d="M-3 -110q22 9 52.5 35.5t65 76t68 122.5t57 165t23.5 170q0 53 -9 99.5t-28.5 81.5t-50.5 54.5t-72 19.5q-24 0 -47.5 -13t-40 -41.5t-16.5 -57.5q0 -25 18 -43.5t51 -18.5q23 0 42 13l1 -8q-20 -13 -44 -13q-21 0 -44 12t-38 42t-15 65q0 31 11.5 62t35 56t59.5 40
t82 15t87.5 -19.5t72.5 -55t48 -86.5t17 -110q0 -92 -21.5 -180.5t-57.5 -162t-79 -132t-94 -107.5t-98 -73q53 6 104.5 31.5t105 83t107 166.5t121 310.5t81.5 241.5q59 170 115.5 285.5t121 203t149 154t194 103.5t243.5 37q102 0 191 -30t163 -95t118.5 -166t44.5 -198
q0 -66 -20 -127t-56 -107t-83 -72t-98 -26q-28 0 -61 9.5t-64 30.5v8q28 -19 61 -29t62 -10q48 0 93.5 25t80.5 69.5t55 103.5t20 123q0 267 -364 267q-101 0 -197 -44.5t-181 -118t-157 -157t-143 -181t-188 -271.5t-177 -258t-117 -151t-113.5 -117.5t-114.5 -76.5
t-109 -26z" />
    <glyph glyph-name="W" unicode="W" horiz-adv-x="959" 
d="M429 198q0 83 14 160t43.5 138t64.5 82.5t59.5 -8.5t24.5 -109q0 -58 -14.5 -126t-50.5 -140.5t-84 -130.5q24 -20 60 -20q49 0 106 35.5t106.5 102t81 162.5t31.5 208q0 135 -39 200t-108 65q-44 0 -74.5 -38t-30.5 -81q0 -57 50 -86l-8 -1q-26 13 -39 36.5t-13 50.5
q0 34 19 67t45 47.5t50 14.5q43 0 84 -24.5t72.5 -71.5t49.5 -115.5t18 -150.5q0 -120 -34 -225.5t-88.5 -181.5t-118.5 -117t-120 -41q-24 0 -48 12t-47 39.5t-39 74.5q-44 -45 -93.5 -77t-89.5 -43.5t-67 -11.5q-36 0 -66 15t-52 45.5t-34.5 78.5t-12.5 112q0 100 39 217
t103 224l-40 -2q-33 0 -63 11t-47.5 37.5t-17.5 57.5q0 41 27 70.5t67 29.5q18 0 35 -8t29 -23l-1 -8q-11 15 -27 22.5t-31 7.5q-40 0 -65 -26.5t-25 -64.5q0 -40 31 -68.5t88 -28.5q22 0 46 3q53 86 122.5 164.5t138.5 120.5t120 42q18 0 28 -11.5t10 -28.5
q0 -42 -36 -91.5t-100 -92t-129 -69.5q-18 -53 -37.5 -128.5t-32 -159t-12.5 -139.5q0 -100 30.5 -151.5t75.5 -51.5q19 0 41.5 10.5t43.5 28.5q-19 67 -19 159zM440 200q0 -91 39 -130q60 68 103 177.5t43 213.5q0 33 -5 61.5t-17 43t-30 12t-40 -28.5
q-38 -45 -65.5 -138.5t-27.5 -210.5zM566 914q-59 0 -116 -66t-107 -205q47 20 94.5 49t82 60t55 65.5t20.5 66.5q0 30 -29 30z" />
    <glyph glyph-name="X" unicode="X" horiz-adv-x="1055" 
d="M1143 743q0 -55 -43 -107.5t-140.5 -104t-303.5 -122.5q-18 -70 -18 -145q0 -51 11.5 -101t37.5 -87.5t65 -60t88 -22.5q36 0 69.5 13.5t60 38.5t41.5 60t15 76q0 28 -11 60t-32 52.5t-43.5 28.5t-43.5 8q-71 0 -90 -65h-10q11 37 38.5 56t61.5 19q23 0 49 -10.5
t47 -31.5t33 -51t12 -66q0 -57 -25 -106t-67.5 -83.5t-95.5 -53t-105 -18.5q-68 0 -119.5 28t-81.5 77t-35 118q-18 -37 -53 -77.5t-95 -79t-124 -58t-111 -19.5q-53 0 -85.5 23t-32.5 69q0 62 43.5 121t145 116.5t304.5 127.5q12 56 12 114q0 51 -11.5 101t-37.5 87.5
t-65 60t-88 22.5q-36 0 -69.5 -13.5t-60 -38.5t-41.5 -60t-15 -76q0 -66 39 -107.5t91 -41.5q71 0 90 65h10q-11 -37 -38.5 -56t-61.5 -19q-23 0 -49 10.5t-47 31.5t-33 51t-12 66q0 56 25.5 105t68.5 84.5t96 54.5t106 19q45 0 86.5 -15t73.5 -46.5t51 -80.5t19 -114
q13 35 46 78t94 89.5t128 72t115 25.5q54 0 87.5 -23.5t33.5 -68.5zM122 -78q51 0 109.5 34t112.5 94.5t95 140t59 164.5q-199 -70 -297.5 -125.5t-141 -112.5t-42.5 -116q0 -37 27.5 -58t77.5 -21zM1028 822q-50 0 -106 -31t-108 -87t-93 -130t-62 -154q141 49 224 85
t141.5 75.5t84 81.5t25.5 82q0 36 -27.5 57t-78.5 21z" />
    <glyph glyph-name="Y" unicode="Y" horiz-adv-x="952" 
d="M167 583v-9q-10 -3 -21 -3q-25 0 -48 13t-37.5 43.5t-14.5 69.5q0 41 16.5 84t49.5 79.5t83.5 58.5t113.5 22q46 0 91 -17t82.5 -52t59.5 -90t22 -126q0 -63 -26 -138.5t-109 -212t-103.5 -189.5t-24.5 -81.5t-4 -46.5q0 -78 76 -78q28 0 76 23t103 77.5t100 128.5
q12 26 49.5 107.5t64.5 138t50.5 101.5t47 85.5t48.5 78.5q56 83 112 136t116 82t127 35l7 1l-5 -11q-90 -11 -159.5 -73.5t-122 -182.5t-109 -349.5t-62.5 -252.5q-33 -128 -70.5 -237t-83.5 -201.5t-103.5 -165.5t-130 -129t-165.5 -91t-204 -45q-30 -3 -59 -3
q-65 0 -116.5 11.5t-89 27.5t-84.5 46.5t-99.5 95.5t-81.5 148t-29 153q0 63 18.5 121t52.5 102t79 69t95 25q61 0 112 -28v-9q-53 27 -110 27q-47 0 -90 -23.5t-75.5 -66t-51 -99t-18.5 -118.5q0 -93 36 -152.5t105.5 -89t170.5 -29.5q75 0 152 16.5t156.5 58.5t156.5 115
t156 190t173 311q-37 -49 -80 -86t-90 -59.5t-79 -22.5q-41 0 -69.5 19t-43 54t-14.5 80q0 76 46.5 225t57 199t10.5 84q0 69 -21 119.5t-55.5 77t-80.5 26.5q-48 0 -80 -22.5t-43.5 -51t-11.5 -49.5q0 -22 12 -41.5t31.5 -28t37.5 -8.5q10 0 22 3z" />
    <glyph glyph-name="Z" unicode="Z" horiz-adv-x="990" 
d="M1075 -612q-89 0 -169 31t-149.5 84t-131.5 119.5t-144 170.5t-112 139q-91 -24 -178 -24q-60 0 -100.5 15.5t-57.5 40.5t-11.5 51t31.5 44t55 23.5t55 5.5q153 0 330 -99q55 26 126 73t146.5 116.5t142 144t172.5 205t129 157t36 41.5q-38 1 -95.5 4.5t-120.5 12
t-133.5 24t-196 53.5t-180.5 46t-93 8q-46 0 -89 -8.5t-74.5 -28.5t-49.5 -51t-18 -72q0 -45 23 -91.5t69 -73.5t99 -27q36 0 64.5 14.5t39.5 31t14 32.5l8 -3q-4 -20 -20 -40t-45.5 -32t-55.5 -12q-49 0 -89 17.5t-66.5 48.5t-40.5 71t-14 84q0 57 23.5 114t70.5 103
t118.5 74t162.5 28q79 0 172 -30.5t220.5 -92.5t178 -85t95 -39t75.5 -25q119 119 207 119q31 0 51 -15.5t20 -39.5q0 -35 -33 -61.5t-95.5 -42t-156.5 -15.5h-31q-46 -51 -139 -166.5t-135 -165.5t-78 -89.5t-73 -76.5t-90.5 -84.5t-109.5 -85t-87.5 -54.5t-42.5 -22
q60 -35 197.5 -129.5t217.5 -138t153.5 -68t131 -32t102.5 -7.5t74.5 13.5t43.5 39t14 60.5q0 88 -72 161h9q38 -38 57.5 -86t19.5 -98q0 -57 -25 -113t-74 -100t-120 -70t-158 -26zM191 -82q81 0 171 23q-65 74 -114.5 105t-93.5 31q-28 0 -58.5 -8.5t-49 -28.5t-16.5 -42
q1 -14 15 -33t51.5 -33t94.5 -14zM1504 890q-82 0 -196 -112q66 -16 119 -16q67 0 102.5 24.5t35.5 58.5q0 21 -15.5 33t-45.5 12z" />
    <glyph glyph-name="bracketleft" unicode="[" horiz-adv-x="333" 
d="M65 -122l237 967h223l-2 -10h-147l-232 -947h141l-2 -10h-218z" />
    <glyph glyph-name="backslash" unicode="\" horiz-adv-x="217" 
d="M186 -70l-11 -1l-92 884l10 2z" />
    <glyph glyph-name="bracketright" unicode="]" horiz-adv-x="303" 
d="M375 845l-237 -967h-223l1 10h148l232 947h-140l1 10h218z" />
    <glyph glyph-name="asciicircum" unicode="^" horiz-adv-x="397" 
d="M452 522q-40 -20 -79 -20q-51 0 -85 31t-34 82q0 40 18 83l-181 -192l-8 1l236 252h12q-16 -46 -16 -84q0 -28 11 -62.5t43.5 -60t82.5 -30.5z" />
    <glyph glyph-name="underscore" unicode="_" horiz-adv-x="364" 
d="M-1 -5l1 10h364l-1 -10h-364z" />
    <glyph glyph-name="grave" unicode="`" horiz-adv-x="446" 
d="M212 708l67 26q-8 -30 -8 -53q0 -45 27 -76.5t92 -46.5v-9q-77 13 -127 54t-51 105z" />
    <glyph glyph-name="a" unicode="a" horiz-adv-x="580" 
d="M314 498q44 0 74.5 -25t43.5 -74l17 77q36 -18 61 -18q28 0 65 14l8 38h8q-8 -41 -61.5 -267.5t-53.5 -242.5q0 -14 4.5 -24.5t24.5 -10.5q25 0 54.5 41t34.5 98h9q-8 -74 -47 -117t-99 -43q-28 0 -52 10t-35.5 29t-13.5 38q-62 -73 -150 -73q-55 0 -93 22.5t-59 65
t-21 104.5q0 28 8 76t37 108t68 98t81 57t87 19zM355 32q-2 29 33.5 179t40.5 173q-13 48 -39 74.5t-61 26.5q-14 0 -33 -10.5t-39.5 -37.5t-39.5 -70.5t-32 -103.5t-13 -115q0 -74 25 -119t75 -45q45 0 83 48z" />
    <glyph glyph-name="b" unicode="b" horiz-adv-x="568" 
d="M277 645q0 -30 -43 -232q14 20 37 40t53 32t60 12q32 0 58 -11t48 -30.5t40.5 -57.5t18.5 -93q0 -37 -10 -84t-36.5 -93t-62.5 -81.5t-78 -58.5t-78.5 -31.5t-61.5 -8.5q-35 0 -66 11.5t-54.5 35.5t-36.5 61.5t-13 85.5q0 3 0.5 14.5t7 54t51 243t44.5 238.5
q0 13 -8.5 24t-31.5 11q-29 0 -59.5 -37.5t-35.5 -101.5h-9q8 81 49.5 120.5t111.5 39.5q43 0 74 -27t31 -76zM420 362q0 61 -19.5 89t-51.5 28q-28 0 -61 -22.5t-57 -57.5q-3 -14 -10.5 -48t-37 -163.5t-29.5 -145.5q0 -37 18.5 -58.5t47.5 -21.5q25 0 59.5 27.5t66.5 79.5
t53 127.5t21 165.5z" />
    <glyph glyph-name="c" unicode="c" horiz-adv-x="440" 
d="M326 370q0 23 11.5 46t29.5 33.5t34 10.5q11 0 26 -5q-29 31 -83 31q-28 0 -58.5 -18t-57 -59t-44.5 -101.5t-18 -130.5q0 -97 30 -143t83 -46q72 0 137 104l6 -5q-15 -28 -45 -60.5t-76 -55.5t-91 -23q-60 0 -98.5 23.5t-58.5 67t-20 108.5q0 43 13.5 98.5t42.5 103.5
t63.5 80t78.5 50.5t92 18.5t81 -16.5t50.5 -43t17.5 -51.5t-12.5 -47.5t-31 -32t-34.5 -9.5q-28 0 -48 20t-20 52z" />
    <glyph glyph-name="d" unicode="d" horiz-adv-x="574" 
d="M390 705l-13 1q17 25 57 42t81 17q49 0 77.5 -26t28.5 -76q0 -28 -13.5 -93.5t-72.5 -294t-59 -275.5q0 -14 4.5 -24.5t24.5 -10.5q25 0 54.5 41t34.5 98h9q-8 -74 -47 -117t-99 -43q-28 0 -52 10t-35.5 29t-13.5 38q-62 -73 -150 -73q-55 0 -93 22.5t-59 65t-21 104.5
q0 28 8 76t37 108t68 98t81 57t87 19q44 0 74.5 -25t43.5 -74q19 73 41.5 178.5t22.5 133.5q0 33 -38 33q-16 0 -36.5 -12t-31.5 -27zM355 32q-2 29 33.5 179t40.5 173q-13 48 -39 74.5t-61 26.5q-14 0 -33 -10.5t-39.5 -37.5t-39.5 -70.5t-32 -103.5t-13 -115
q0 -74 25 -119t75 -45q45 0 83 48z" />
    <glyph glyph-name="e" unicode="e" horiz-adv-x="455" 
d="M349 499q56 0 86.5 -30t30.5 -76q0 -36 -19.5 -76t-57 -75t-93.5 -59.5t-124 -30.5q2 -33 13 -72t40 -66t73 -27t81 30.5t69 102.5h8q-35 -90 -96 -131t-147 -41q-39 0 -76 15.5t-62.5 51.5t-36 89.5t1.5 119.5q10 52 35.5 101.5t65 88.5t93 62t115.5 23zM360 487
q-20 0 -45 -10t-50 -36t-47 -68.5t-35 -100.5t-12 -111q67 6 121 30t90.5 58.5t55 73t18.5 72.5q0 41 -25 66.5t-71 25.5z" />
    <glyph glyph-name="f" unicode="f" horiz-adv-x="343" 
d="M273 380l-18 -80h84l-3 -10h-83l-114 -512q-36 18 -61 18q-28 0 -65 -14l-16 -75h-8l131 583h-79l3 10h78l34 151q21 93 54 162t82 108.5t119 39.5q37 0 66.5 -17.5t40.5 -40.5t11 -42q0 -24 -9 -50l-10 2q9 27 9 50q0 24 -17.5 44.5t-40.5 20.5q-42 0 -71 -26t-55.5 -95
t-61.5 -227z" />
    <glyph glyph-name="g" unicode="g" horiz-adv-x="570" 
d="M164 -395q-48 0 -86 18.5t-62.5 53t-24.5 79.5q0 46 26 85t71 66.5t109 40.5q-52 2 -88 24.5t-56 64.5t-20 103q0 28 8 76t37 108t68 98t81 57t87 19q44 0 74.5 -25t43.5 -74l18 77q36 -18 60 -18q28 0 65 14l9 38h7l-120 -530q-23 -102 -55 -175t-70.5 -116.5t-84 -63.5
t-97.5 -20zM351 28l78 357q-11 45 -38 72.5t-62 27.5q-14 0 -33 -10.5t-39.5 -37.5t-39.5 -70.5t-32 -103.5t-13 -115q0 -74 25.5 -119t75.5 -45q20 0 43.5 13.5t34.5 30.5zM346 9q-15 -16 -36 -30t-43 -21t-39 -9q-66 -14 -113 -39t-74.5 -58.5t-27.5 -69.5t28 -61t74 -25
q77 0 136.5 81.5t94.5 231.5z" />
    <glyph glyph-name="h" unicode="h" horiz-adv-x="576" 
d="M549 399q0 -33 -38 -172.5t-43.5 -171.5t-5.5 -44q0 -17 8 -30.5t27 -13.5q9 0 26.5 11t33 37t21 51t6.5 42h8q-2 -29 -11 -58t-29.5 -55.5t-48 -37.5t-50.5 -11q-4 0 -14.5 1t-32 8.5t-39.5 32.5t-18 62q0 53 28.5 166t32.5 144t4 47q0 30 -13.5 45t-34.5 15
q-25 0 -57 -19t-53 -43q-19 -92 -97 -445q-36 18 -59 18q-29 0 -65 -13l-8 -39h-8q1 3 3.5 15.5t61.5 283.5t61.5 283.5t16 83.5t13.5 92q0 13 -8.5 24t-31.5 11q-15 0 -33.5 -11.5t-35.5 -33.5l-9 2q20 31 58 48t81 17q30 0 53.5 -11.5t36.5 -34.5t13 -60q0 -24 -39 -214
q31 32 83 54t100 22q34 0 59.5 -13t36 -35.5t10.5 -49.5z" />
    <glyph glyph-name="i" unicode="i" horiz-adv-x="298" 
d="M270 402q0 -6 -2 -25.5t-9 -50.5t-41 -153t-34 -159q0 -26 8.5 -39t22.5 -13q15 0 38.5 21t39.5 53t19 71l9 1q-5 -38 -22 -76.5t-50 -61t-69 -22.5q-35 0 -62.5 17t-38 43t-10.5 49q0 13 2 31t8 47.5t36 149t30 165.5q0 36 -30 36q-19 0 -44 -14.5t-37 -30.5h-9
q17 25 55.5 43t83.5 18q33 0 58.5 -13t36.5 -36.5t11 -50.5zM266 726q27 0 45.5 -23t18.5 -52q0 -25 -12.5 -47.5t-31 -32t-34.5 -9.5q-28 0 -48 20t-20 52q0 25 12.5 48.5t32 33.5t37.5 10z" />
    <glyph glyph-name="j" unicode="j" horiz-adv-x="263" 
d="M36 32q51 186 70 274.5t19 136.5q0 40 -30 40q-23 0 -46 -13t-35 -29h-9q16 25 57 43t82 18q33 0 58.5 -13t36.5 -36.5t11 -50.5q0 -4 -1 -18t-9 -64t-83 -336q-33 -128 -75 -209t-97.5 -123.5t-134.5 -42.5q-34 0 -73.5 15t-69 52t-29.5 81q0 20 7.5 45.5t27 51.5
t53.5 49t82 38l4 -9q-34 -9 -75 -33t-60 -53t-19 -56q0 -17 10 -38.5t35.5 -36.5t57.5 -15q46 0 88.5 37.5t79.5 110t67 184.5zM246 726q27 0 45.5 -23t18.5 -52q0 -25 -12.5 -47.5t-31 -32t-34.5 -9.5q-28 0 -48 20t-20 52q0 25 12.5 48.5t32 33.5t37.5 10z" />
    <glyph glyph-name="k" unicode="k" horiz-adv-x="563" 
d="M66 674l-9 2q20 31 58 48t81 17q30 0 53.5 -11.5t36.5 -34.5t13 -60q0 -39 -74 -373q21 12 42.5 32.5t55 65.5t47.5 58.5t24.5 21.5t27 15.5t40.5 7.5q22 0 46 -11.5t39.5 -39t15.5 -57.5q0 -28 -18 -49.5t-44 -21.5q-25 0 -39 16.5t-14 40.5q0 28 18.5 50.5t41.5 22.5
q10 0 21.5 -7t19.5 -20q-10 35 -34.5 51t-52.5 16q-26 0 -48 -12t-37.5 -29t-56.5 -72t-81 -78q22 11 47.5 20t41.5 9q30 0 51.5 -19.5t39 -56t36.5 -113t27.5 -95t16 -26.5t16.5 -8q13 0 29 20.5t22 58.5h8q-5 -40 -28.5 -69.5t-51 -40.5t-48.5 -11q-28 0 -52.5 16t-41 55
t-32 117t-26.5 99t-22 29t-24 8q-12 0 -26 -9l-63 -287q-36 18 -59 18q-29 0 -65 -13l-8 -39h-8q1 3 3.5 15.5t61.5 283.5t61.5 283.5t16 83.5t13.5 92q0 13 -8.5 24t-31.5 11q-15 0 -33.5 -11.5t-35.5 -33.5z" />
    <glyph glyph-name="l" unicode="l" horiz-adv-x="297" 
d="M328 669q0 -3 -1 -14t-10.5 -64.5t-73 -306.5t-63.5 -275q0 -19 5.5 -29.5t25.5 -10.5q27 0 58 42t35 96h9q-3 -29 -13 -58t-31 -53.5t-49.5 -36t-50.5 -11.5q-33 0 -57 10t-37 29.5t-13 50.5q0 35 52 252t63 269.5t18.5 91.5t7.5 59q0 40 -30 40q-22 0 -45.5 -12.5
t-38.5 -29.5l-5 5q18 23 57.5 39.5t80.5 16.5q33 0 58.5 -13t36.5 -36.5t11 -50.5z" />
    <glyph glyph-name="m" unicode="m" horiz-adv-x="801" 
d="M775 397q0 -9 -5.5 -37t-38 -149.5t-38.5 -155t-6 -44.5q0 -17 8 -30.5t27 -13.5q9 0 26.5 11t33 37t21 51t6.5 42h8q-2 -29 -11 -58t-29.5 -55.5t-48 -37.5t-50.5 -11q-4 0 -14.5 1t-32 8.5t-39.5 32.5t-18 62q0 47 28.5 162t35 150.5t6.5 55.5q0 23 -7.5 36t-20.5 13
q-17 0 -50.5 -30.5t-55.5 -61.5q-5 -36 -20.5 -111.5t-39.5 -182t-27 -121.5q-36 18 -61 18q-29 0 -65 -13l-8 -39h-8q5 24 42.5 190.5t47.5 225t10 76.5q0 23 -7.5 36t-20.5 13q-8 0 -26 -11t-42 -36t-39 -46q-5 -38 -20.5 -114.5t-40 -186t-25.5 -113.5q-36 18 -61 18
q-29 0 -65 -13l-8 -39h-8q5 24 44.5 199.5t50 236.5t10.5 79q0 14 -8.5 25t-22.5 11q-22 0 -43.5 -14t-34.5 -32l-9 2q20 31 57.5 47.5t77.5 16.5q33 0 57.5 -10t38 -31t13.5 -55l-1 -11q39 51 84.5 79t90.5 28q31 0 52 -12t29 -35.5t8 -52.5v-7q39 51 84 79t90 28
q31 0 52 -12t29 -35.5t8 -52.5z" />
    <glyph glyph-name="n" unicode="n" horiz-adv-x="569" 
d="M542 399q0 -33 -38 -172.5t-43.5 -171.5t-5.5 -44q0 -17 8 -30.5t27 -13.5q9 0 26.5 11t33 37t21 51t6.5 42h8q-2 -29 -11 -58t-29.5 -55.5t-48 -37.5t-50.5 -11q-4 0 -14.5 1t-32 8.5t-39.5 32.5t-18 62q0 53 28.5 166t32.5 144t4 47q0 30 -13.5 45t-34.5 15
q-25 0 -56.5 -19t-53.5 -43v-4q0 -2 -0.5 -8.5t-5 -38t-21.5 -113t-38.5 -177t-23.5 -104.5q-36 18 -61 18q-29 0 -65 -13l-8 -39h-8q5 24 44.5 199.5t50 236.5t10.5 79q0 14 -8.5 25t-22.5 11q-22 0 -43.5 -14t-34.5 -32l-9 2q20 31 57.5 47.5t77.5 16.5q43 0 73 -18.5
t35 -62.5q30 34 84 57.5t104 23.5q34 0 59.5 -13t36 -35.5t10.5 -49.5z" />
    <glyph glyph-name="o" unicode="o" horiz-adv-x="477" 
d="M289 -5q34 0 68.5 29t62.5 76.5t44.5 103t16.5 104.5q0 56 -18 95t-49 60.5t-70 21.5q-28 0 -58.5 -18.5t-57 -60t-44.5 -102t-18 -127.5q0 -36 9 -79.5t38.5 -73t75.5 -29.5zM328 498q53 0 89.5 -24t55 -66t18.5 -103q0 -57 -20.5 -120.5t-52.5 -110t-67 -75.5
t-69.5 -40t-61.5 -11q-59 0 -99.5 25t-62.5 71.5t-22 113.5q0 58 17 111t42 92.5t59.5 70.5t79 48.5t94.5 17.5z" />
    <glyph glyph-name="p" unicode="p" horiz-adv-x="597" 
d="M290 -51q-40 0 -74.5 23.5t-43.5 58.5q-5 -20 -27.5 -111.5t-31.5 -134.5t-9 -60t5.5 -29.5t23.5 -12.5q20 0 43.5 25t35.5 57t13 55l9 1q-3 -29 -13 -58t-31 -53.5t-49.5 -36t-50.5 -11.5q-43 0 -73 25t-30 74q0 25 12 86.5t68.5 296t56.5 280.5q0 40 -29 40
q-23 0 -46.5 -12.5t-38.5 -29.5l-4 6q12 17 51 36t87 19q41 0 72 -18t36 -55q65 74 149 74q55 0 93 -22.5t59 -65t21 -104.5q0 -43 -14 -97.5t-43 -101.5t-63 -78t-76.5 -48.5t-87.5 -17.5zM252 398q-1 -20 -6.5 -54t-17.5 -85.5t-30 -124t-23 -92.5q8 -30 28.5 -48
t46.5 -18q30 0 59.5 20t53 54t41.5 77t31 98.5t13 111.5q0 61 -20 97t-59 36q-23 0 -56.5 -18.5t-60.5 -53.5z" />
    <glyph glyph-name="q" unicode="q" horiz-adv-x="570" 
d="M598 553q-20 -98 -97.5 -441.5t-77.5 -374.5q0 -19 5.5 -29.5t25.5 -10.5q18 0 40.5 13.5t41 48.5t21.5 76h9q-8 -79 -49 -119t-105 -40q-32 0 -58.5 13t-38.5 35.5t-12 48.5q0 40 39 233q-58 -58 -136 -58q-55 0 -93 22.5t-59 65t-21 104.5q0 28 8 76t37 108t68 98
t81 57t87 19q44 0 74.5 -25t43.5 -74l17 78q42 -14 67 -14q55 0 66 52l8 38h8zM272 -16q40 0 73 37q22 100 50 217.5t34 145.5q-13 48 -39 74.5t-61 26.5q-14 0 -33 -10.5t-39.5 -37.5t-39.5 -70.5t-32 -103.5t-13 -115q0 -74 25 -119t75 -45z" />
    <glyph glyph-name="r" unicode="r" horiz-adv-x="463" 
d="M11 411l-9 2q19 31 57 50t78 19q45 0 77 -25t32 -71v-6q30 45 67.5 71.5t70.5 26.5t60 -13t37.5 -34.5t10.5 -41.5q0 -25 -12.5 -47.5t-31 -32t-34.5 -9.5q-28 0 -48 20t-20 52q0 24 10.5 44t29.5 30t35 12q-2 2 -12 6.5t-24 4.5q-35 0 -73.5 -31t-68.5 -82
q-3 -24 -12 -71t-24 -115.5t-29.5 -133t-17.5 -76.5q-36 18 -61 18q-29 0 -65 -13l-8 -39h-8q0 1 51 227t51 268q0 16 -8.5 26t-22.5 10q-22 0 -43.5 -14t-34.5 -32z" />
    <glyph glyph-name="s" unicode="s" horiz-adv-x="439" 
d="M162 187l1 -10q-15 9 -35 9q-16 0 -37.5 -9.5t-38 -33.5t-16.5 -54q0 -38 19 -66.5t56 -45.5t85 -17q22 0 48 11.5t44.5 42t18.5 68.5q0 4 -1 13.5t-11 30t-59 60.5t-64 56t-26.5 33.5t-19.5 41t-8 50.5q0 61 49 101.5t129 40.5q57 0 96.5 -27.5t39.5 -73.5
q0 -16 -7 -32.5t-22.5 -26.5t-31.5 -10q-24 0 -41 14.5t-17 35.5q0 15 9.5 27t22.5 15v-8q-11 -3 -17 -12.5t-6 -21.5q0 -16 13.5 -28.5t36.5 -12.5q20 0 35.5 17.5t15.5 42.5q0 30 -20 52.5t-48 30.5t-51 8q-22 0 -42 -11t-28.5 -29t-8.5 -35q0 -24 17 -49t64.5 -67
t69.5 -68t32 -53t10 -50q0 -56 -27 -97.5t-75.5 -66.5t-111.5 -25q-45 0 -88 16t-66.5 49.5t-23.5 75.5q0 28 13.5 51.5t37 39t49.5 15.5q23 0 36 -8z" />
    <glyph glyph-name="t" unicode="t" horiz-adv-x="287" 
d="M42 432l3 10h66l30 135q35 -15 68 -15q23 0 42 14t25 41l8 35h8l-47 -210h112l-3 -10h-111q-86 -386 -86 -429q0 -18 11 -26t24 -8q19 0 42 17.5t38.5 47.5t19.5 74h9q-8 -81 -49.5 -120.5t-111.5 -39.5q-43 0 -74 27t-31 76q0 41 74 381h-67z" />
    <glyph glyph-name="u" unicode="u" horiz-adv-x="597" 
d="M61 46q0 11 5.5 43.5t44.5 175.5t39 172q0 17 -6 27.5t-26 10.5q-16 0 -39.5 -19t-36.5 -51.5t-16 -67.5h-8q3 39 16 69t33.5 50.5t46 30t48.5 9.5q31 0 56.5 -13.5t36.5 -36.5t11 -49q0 -3 -0.5 -11t-4 -32t-23 -100.5t-27 -108t-11.5 -59t-4 -48.5q0 -30 13.5 -45
t34.5 -15q27 0 60 19.5t54 44.5v9q0 13 7 54t21 109t35 160t23 103q36 -18 61 -18q29 0 65 13l8 39h8q-1 -6 -53.5 -235.5t-52.5 -271.5q0 -13 8.5 -24t31.5 -11q30 0 61.5 36t36.5 102h9q-16 -159 -164 -159q-28 0 -53 12.5t-37 33t-14 40.5q-13 -17 -41 -37t-70.5 -34.5
t-80.5 -14.5q-34 0 -59.5 13t-36 35.5t-10.5 49.5z" />
    <glyph glyph-name="v" unicode="v" horiz-adv-x="499" 
d="M417 487q26 0 46.5 -17.5t28 -40t7.5 -39.5q0 -40 -10 -93.5t-35.5 -110.5t-60 -103.5t-72 -78.5t-67 -44t-48.5 -12q-67 0 -105.5 26t-38.5 83q0 47 42 170t48 157.5t6 51.5q0 36 -30 36q-21 0 -47 -16t-34 -29h-9q16 25 56 43t83 18q33 0 58.5 -13t36.5 -36.5t11 -50.5
q0 -23 -9 -61.5t-48 -154.5t-39 -151q0 -29 7.5 -42.5t27.5 -13.5q38 0 84 37.5t87 98.5t67 134t28 138q-13 -18 -34.5 -33.5t-48.5 -15.5q-28 0 -46.5 19.5t-18.5 51.5q0 3 0.5 11.5t7 27.5t25.5 36t44 17z" />
    <glyph glyph-name="w" unicode="w" horiz-adv-x="788" 
d="M706 482q26 0 46.5 -17.5t28 -40t7.5 -39.5q0 -40 -10 -93.5t-35.5 -110.5t-60 -103.5t-72 -78.5t-67 -44t-48.5 -12q-60 0 -98 21.5t-45 66.5q-37 -38 -76 -60.5t-69 -22.5q-67 0 -105.5 26t-38.5 83q0 47 42 170t48 157.5t6 51.5q0 36 -30 36q-21 0 -47 -16t-34 -29h-9
q16 25 56 43t83 18q33 0 58.5 -13t36.5 -36.5t11 -50.5q0 -23 -9 -61.5t-48 -154.5t-39 -151q0 -29 7.5 -42.5t27.5 -13.5q28 0 61.5 21.5t66.5 58.5v7q0 47 42 170t48 157.5t6 51.5q0 36 -30 36q-21 0 -47 -16t-34 -29h-9q16 25 56 43t83 18q33 0 58.5 -13t36.5 -36.5
t11 -50.5q0 -23 -9 -61.5t-48 -154.5t-39 -151q0 -29 7.5 -42.5t27.5 -13.5q38 0 84 37.5t87 98.5t67 134t28 138q-13 -18 -34.5 -33.5t-48.5 -15.5t-46 19.5t-19 51.5q0 3 0.5 11.5t7 27.5t25.5 36t44 17z" />
    <glyph glyph-name="x" unicode="x" horiz-adv-x="722" 
d="M612 492q-36 0 -69 -19.5t-55.5 -61t-34 -97.5t-11.5 -118q0 -108 25.5 -155t79.5 -47q82 0 151 98l6 -5q-32 -61 -97 -101t-128 -40q-76 0 -113.5 55.5t-38.5 165.5q-9 -67 -30 -116.5t-56.5 -77.5t-81.5 -28q-25 0 -57 11t-58.5 39t-26.5 64q0 25 12.5 47.5t31 32
t34.5 9.5q28 0 48 -20t20 -52q0 -35 -22 -60t-60 -25q-6 0 -17.5 3.5t-17.5 9.5q12 -18 45 -34t68 -16q49 0 86 35.5t57.5 109t20.5 170.5q0 91 -22 137t-74 46q-92 0 -153 -98l-6 5q15 29 46 62.5t79 56t93 22.5q47 0 80 -23.5t52 -71.5t20 -126q9 67 31 116.5t59 77.5
t84 28q25 0 57 -11t58.5 -39t26.5 -64q0 -25 -12.5 -47.5t-31 -32t-34.5 -9.5q-28 0 -48 20t-20 52q0 35 22 60t60 25q6 0 17.5 -3.5t17.5 -9.5q-12 18 -45 34t-68 16z" />
    <glyph glyph-name="y" unicode="y" horiz-adv-x="568" 
d="M352 32l92 445q36 -18 63 -18q21 0 63 13l8 38h8l-116 -535q-22 -101 -54 -174.5t-72 -117.5t-86 -64t-98 -20q-70 0 -120 43.5t-50 102.5q0 66 43 116.5t141 86.5q-55 0 -84 25t-29 74q0 11 5.5 43.5t36 144.5t39 150.5t8.5 54.5q0 35 -30 35q-17 0 -41 -18.5t-37 -51
t-16 -68.5h-8q4 48 25 86t54 55.5t65 17.5q31 0 56.5 -13.5t36.5 -36.5t11 -49q0 -3 -0.5 -11t-4 -32t-23 -100.5t-27 -108t-11.5 -59t-4 -48.5q0 -24 11 -42t38 -18q21 0 52 15t55 39zM350 20q-58 -54 -153 -70q-100 -42 -142 -81.5t-42 -89.5q0 -15 9 -34t33.5 -34
t55.5 -15q54 0 98.5 36t80 107t60.5 181z" />
    <glyph glyph-name="z" unicode="z" horiz-adv-x="565" 
d="M16 -20l-8 -1q-5 18 -5 38q0 35 22.5 66.5t74 61t159.5 67.5q111 40 148.5 56t68.5 33.5t59 41t43 55.5q-23 -33 -84 -58t-117 -25q-26 0 -55.5 8t-80.5 28t-69 20q-42 0 -62.5 -26.5t-21.5 -86.5h-8q0 49 13.5 93t39.5 76.5t64.5 51t87.5 18.5q55 0 128 -49t91 -55
t29 -6q19 0 34 10.5t17 19.5l9 -1q-13 -53 -72.5 -98.5t-205 -97.5t-184 -71t-62.5 -36t-39 -37.5t-18 -43.5q6 19 31 40t76.5 37t98.5 16q26 0 59.5 -8t97 -29.5t84.5 -21.5q42 0 62.5 26.5t21.5 86.5h8q0 -49 -13.5 -93t-39.5 -76.5t-64.5 -51t-87.5 -18.5q-17 0 -41 6.5
t-49.5 20.5t-78.5 49.5t-72.5 42.5t-30.5 7q-25 0 -43.5 -18t-18.5 -43q0 -12 4 -25z" />
    <glyph glyph-name="braceleft" unicode="{" horiz-adv-x="477" 
d="M-28 936l-8 2q11 8 19 29t8 39q0 25 -15 40t-40 15q-19 0 -41 -10.5t-39.5 -32t-28 -54t-10.5 -73.5q0 -42 15.5 -86t49 -85t77.5 -69.5t93.5 -48t121.5 -32t158 -12.5q71 0 155 27.5t147 72.5t101 93.5t58 104.5t20 117q0 82 -43.5 128t-110.5 46q-53 0 -109.5 -32
t-100.5 -87t-74.5 -120.5t-48 -136t-24.5 -128.5h-10q16 131 58.5 241.5t114 197t166 134.5t170.5 48q43 0 85 -8.5t73.5 -29t50.5 -54t19 -81.5q0 -59 -31.5 -129.5t-95.5 -145.5t-157.5 -138.5t-201 -97t-211.5 -33.5q-105 0 -195.5 19.5t-166 63.5t-120 114.5
t-44.5 148.5q0 43 14.5 85t47 67t67.5 25q28 0 47 -17t19 -47q0 -14 -8.5 -37.5t-20.5 -32.5z" />
    <glyph glyph-name="bar" unicode="|" horiz-adv-x="1122" 
d="M542 -16l6 -6q-17 -16 -41.5 -25t-49.5 -9q-28 0 -52 10t-35.5 29t-13.5 38q-62 -73 -150 -73q-55 0 -93 22.5t-59 65t-21 104.5q0 28 8 76t37 108t68 98t81 57t87 19q44 0 74.5 -25t43.5 -74l17 77q36 -18 61 -18q28 0 65 14l8 38h8q-8 -41 -61.5 -267.5t-53.5 -242.5
q0 -14 4.5 -24.5t24.5 -10.5q18 0 37 19zM355 32q-2 29 33.5 179t40.5 173q-13 48 -39 74.5t-61 26.5q-14 0 -33 -10.5t-39.5 -37.5t-39.5 -70.5t-32 -103.5t-13 -115q0 -74 25 -119t75 -45q45 0 83 48zM573 -20l-8 -1q-5 18 -5 38q0 35 22.5 66.5t74 61t159.5 67.5
q111 40 148.5 56t68.5 33.5t59 41t43 55.5q-23 -33 -84 -58t-117 -25q-26 0 -55.5 8t-80.5 28t-69 20q-42 0 -62.5 -26.5t-21.5 -86.5h-8q0 49 13.5 93t39.5 76.5t64.5 51t87.5 18.5q55 0 128 -49t91 -55t29 -6q19 0 34 10.5t17 19.5l9 -1q-13 -53 -72.5 -98.5t-205 -97.5
t-184 -71t-62.5 -36t-39 -37.5t-18 -43.5q6 19 31 40t76.5 37t98.5 16q26 0 59.5 -8t97 -29.5t84.5 -21.5q42 0 62.5 26.5t21.5 86.5h8q0 -49 -13.5 -93t-39.5 -76.5t-64.5 -51t-87.5 -18.5q-17 0 -41 6.5t-49.5 20.5t-78.5 49.5t-72.5 42.5t-30.5 7q-25 0 -43.5 -18
t-18.5 -43q0 -12 4 -25z" />
    <glyph glyph-name="braceright" unicode="}" horiz-adv-x="477" 
d="M-138 976q0 19 9 40t23 33q-24 -12 -43 -38t-26.5 -59t-7.5 -62q0 -42 15.5 -86t49 -85t77.5 -69.5t93.5 -48t121.5 -32t158 -12.5q71 0 155 27.5t147 72.5t101 93.5t58 104.5t20 117q0 82 -43.5 128t-110.5 46q-39 0 -89 -21t-102.5 -76.5t-88 -131t-53 -146
t-24.5 -128.5h-10q8 66 25 136t48.5 142t76 131t101.5 106.5t128.5 76t129.5 28.5q43 0 85 -8.5t73.5 -29t50.5 -54t19 -81.5q0 -59 -31.5 -129.5t-95.5 -145.5t-157.5 -138.5t-201 -97t-211.5 -33.5q-105 0 -195.5 19.5t-166 63.5t-120 114.5t-44.5 148.5q0 45 16 86.5
t45 66t69 24.5q29 0 50.5 -23t21.5 -53q0 -25 -12.5 -47.5t-31 -32t-34.5 -9.5q-28 0 -48 20t-20 52z" />
    <glyph glyph-name="asciitilde" unicode="~" horiz-adv-x="612" 
d="M637 554q-18 -33 -49 -68t-72.5 -57t-77.5 -22q-13 0 -33.5 5t-64 33t-65 36t-41.5 8q-49 0 -81.5 -16.5t-56.5 -47.5h-10q30 39 67.5 71.5t80.5 49.5t80 17q14 0 35 -5t62.5 -30.5t63 -32.5t41.5 -7q39 0 64.5 13.5t46.5 52.5h10z" />
    <glyph glyph-name="uni00A0" unicode="&#xa0;" horiz-adv-x="300" 
 />
    <glyph glyph-name="exclamdown" unicode="&#xa1;" horiz-adv-x="286" 
d="M205 313l9 1q-24 -249 -71.5 -400t-111.5 -208q-26 0 -48.5 17t-31 22t-23.5 8.5t-32 3.5q68 58 135.5 150t114.5 196.5t59 209.5zM213 378q-27 0 -45.5 23t-18.5 52q0 25 12.5 47.5t31 32t34.5 9.5q28 0 48 -20t20 -52q0 -25 -12.5 -48.5t-32 -33.5t-37.5 -10z" />
    <glyph glyph-name="cent" unicode="&#xa2;" horiz-adv-x="475" 
d="M375 634h-10l37 170l9 -1zM257 136l10 -1l-44 -201h-10zM376 510q0 23 11.5 46t29.5 33.5t34 10.5q11 0 26 -5q-29 31 -83 31q-28 0 -58.5 -18t-57 -59t-44.5 -101.5t-18 -130.5q0 -97 30 -143t83 -46q72 0 137 104l6 -5q-15 -28 -45 -60.5t-76 -55.5t-91 -23
q-60 0 -98.5 23.5t-58.5 67t-20 108.5q0 43 13.5 98.5t42.5 103.5t63.5 80t78.5 50.5t92 18.5t81 -16.5t50.5 -43t17.5 -51.5t-12.5 -47.5t-31 -32t-34.5 -9.5q-28 0 -48 20t-20 52z" />
    <glyph glyph-name="sterling" unicode="&#xa3;" horiz-adv-x="732" 
d="M84 451l1 9h182q-4 25 -4 58q0 62 19.5 116.5t53 94t76 61t85.5 21.5q39 0 76.5 -18t67.5 -54l-1 -7q-62 65 -119 65q-41 0 -71 -32t-41.5 -76t-11.5 -78q0 -5 0.5 -21t4.5 -66.5t5 -63.5h222l-1 -9h-221q3 -37 3 -69q0 -23 -3 -52h222l-1 -9h-222q-5 -42 -17.5 -87
t-30 -81.5t-34.5 -59.5q15 -5 60.5 -20t76.5 -23.5t51 -8.5q29 0 58 5t54 17.5t36.5 30.5t11.5 34q0 26 -22.5 45t-60.5 19q-15 0 -33.5 -7.5t-35.5 -20.5l-1 8q37 29 70 29q27 0 54 -13.5t45.5 -47.5t18.5 -73q0 -46 -22.5 -83t-60.5 -57.5t-92 -20.5q-27 0 -61.5 9t-75 33
t-80.5 56t-42 34q-64 -53 -153 -53q-17 0 -35.5 7.5t-31.5 24.5t-13 36q0 21 16.5 39t44 26t59.5 8q48 0 119 -19q15 50 15 121q0 50 -6 93h-204l1 9h202l-19 121h-184zM120 -3q92 0 134 56q-35 28 -64 43t-55 15q-21 0 -42 -6.5t-32.5 -21.5t-11.5 -30q0 -21 18.5 -38.5
t52.5 -17.5z" />
    <glyph glyph-name="currency" unicode="&#xa4;" 
d="M45 447l1 9h96q33 75 83 143t113.5 120t139 82t154.5 30q52 0 83.5 -23t31.5 -65q0 -41 -30.5 -91.5t-83.5 -95.5l-5 8q48 41 77 86.5t31.5 84t-24 62t-80.5 23.5q-40 0 -91 -26.5t-103 -75.5t-95.5 -117t-69.5 -145h268l-1 -9h-270q-20 -65 -25 -125h255l-1 -9h-255
q-2 -16 -2 -49q0 -51 11.5 -101t37.5 -87.5t65 -60t88 -22.5q36 0 69.5 13.5t60 38.5t41.5 60t15 76q0 27 -8 53t-22 44l6 10q15 -18 25 -46t10 -61q0 -57 -25.5 -106t-68.5 -84t-96.5 -54t-107.5 -19q-66 0 -116 21t-82 59t-47.5 89t-15.5 110q0 58 13 116h-91l1 9h92
q13 60 41 125h-93z" />
    <glyph glyph-name="yen" unicode="&#xa5;" horiz-adv-x="1027" 
d="M148 380l2 10h118q21 77 21 120q0 34 -10.5 78.5t-42.5 76t-78 31.5q-26 0 -53 -10t-43.5 -34t-16.5 -52q0 -29 18.5 -50t49.5 -21q8 0 18 3v-8q-9 -3 -17 -3q-40 0 -62 29.5t-22 75.5q0 34 13.5 70t41 66.5t70 49t95.5 18.5q38 0 76 -14.5t69 -43.5t49.5 -75t18.5 -105
q0 -87 -60 -202h244q43 88 85 157.5t90.5 124t106.5 87.5t124 39l6 1l-5 -10q-101 -13 -171 -103t-127 -296h165l-2 -10h-166l-23 -87h175l-2 -10h-176q-5 -21 -27.5 -112.5t-43 -167t-43 -139t-46 -115.5t-47.5 -92.5t-55 -83t-86 -92t-139.5 -87.5t-196.5 -48
q-25 -3 -50 -3q-54 0 -115 14t-115 50t-91 81.5t-59.5 97t-30 93t-7.5 67.5q0 39 10.5 83.5t39 89.5t71 68.5t84.5 23.5q51 0 94 -23v-9q-45 23 -92 23q-29 0 -61.5 -13t-66 -49t-51 -89t-17.5 -105q0 -76 31.5 -127.5t90.5 -75.5t138 -24q124 0 235 51t213.5 172t215.5 357
q-51 -72 -108.5 -107t-101.5 -35q-21 0 -40.5 7t-35.5 25t-23 45t-7 51q0 29 8.5 72.5t33.5 125.5h-104l2 10h105l26 87h-117zM539 160l57 123h-254q-63 -103 -82.5 -156t-19.5 -93q0 -65 63 -65q56 0 120 49.5t116 141.5zM600 293l42 87h-244q-20 -38 -50 -87h252z" />
    <glyph glyph-name="brokenbar" unicode="&#xa6;" horiz-adv-x="1122" 
d="M61 46q0 11 5.5 43.5t44.5 175.5t39 172q0 17 -6 27.5t-26 10.5q-16 0 -39.5 -19t-36.5 -51.5t-16 -67.5h-8q3 39 16 69t33.5 50.5t46 30t48.5 9.5q31 0 56.5 -13.5t36.5 -36.5t11 -49q0 -3 -0.5 -11t-4 -32t-23 -100.5t-27 -108t-11.5 -59t-4 -48.5q0 -30 13.5 -45
t34.5 -15q27 0 60 19.5t54 44.5v9q0 13 7 54t21 109t35 160t23 103q36 -18 61 -18q29 0 65 13l8 39h8q-1 -6 -53.5 -235.5t-52.5 -271.5q0 -13 8.5 -24t31.5 -11q17 0 35 12l2 -10q-36 -23 -94 -23q-28 0 -53 12.5t-37 33t-14 40.5q-13 -17 -41 -37t-70.5 -34.5t-80.5 -14.5
q-34 0 -59.5 13t-36 35.5t-10.5 49.5zM573 -20l-8 -1q-5 18 -5 38q0 35 22.5 66.5t74 61t159.5 67.5q111 40 148.5 56t68.5 33.5t59 41t43 55.5q-23 -33 -84 -58t-117 -25q-26 0 -55.5 8t-80.5 28t-69 20q-42 0 -62.5 -26.5t-21.5 -86.5h-8q0 49 13.5 93t39.5 76.5t64.5 51
t87.5 18.5q55 0 128 -49t91 -55t29 -6q19 0 34 10.5t17 19.5l9 -1q-13 -53 -72.5 -98.5t-205 -97.5t-184 -71t-62.5 -36t-39 -37.5t-18 -43.5q6 19 31 40t76.5 37t98.5 16q26 0 59.5 -8t97 -29.5t84.5 -21.5q42 0 62.5 26.5t21.5 86.5h8q0 -49 -13.5 -93t-39.5 -76.5
t-64.5 -51t-87.5 -18.5q-17 0 -41 6.5t-49.5 20.5t-78.5 49.5t-72.5 42.5t-30.5 7q-25 0 -43.5 -18t-18.5 -43q0 -12 4 -25z" />
    <glyph glyph-name="section" unicode="&#xa7;" horiz-adv-x="2237" 
d="M-26 283l-3 7q77 44 169 44q55 0 129.5 -16t186.5 -59t375.5 -176.5t364 -178t194 -77t179.5 -48.5t152 -16q121 0 212 33t150 87t88.5 122t29.5 138q0 58 -19.5 110.5t-57.5 92t-94 62t-125 22.5q-68 0 -133 -37t-108 -110l-10 1q39 73 108.5 114.5t142.5 41.5
q78 0 138.5 -26.5t100 -73.5t58.5 -109t19 -132q0 -78 -24 -163.5t-74 -172t-131 -159t-179.5 -108.5t-201.5 -36q-69 0 -147 12.5t-160.5 44t-157.5 76.5t-157 110t-208 188q-17 17 -64.5 64t-78 76.5t-71 67t-92.5 78.5t-109 73.5t-120.5 52t-132.5 19.5q-32 0 -71 -11
t-68 -28z" />
    <glyph glyph-name="dieresis" unicode="&#xa8;" horiz-adv-x="531" 
d="M336 647q14 0 23.5 -12.5t9.5 -26.5q0 -18 -12 -32t-29 -14q-15 0 -25 10.5t-10 26.5q0 19 11.5 33.5t31.5 14.5zM458 647q14 0 23.5 -12.5t9.5 -26.5q0 -18 -12 -32t-29 -14q-15 0 -25 10.5t-10 26.5q0 18 12 33t31 15z" />
    <glyph glyph-name="copyright" unicode="&#xa9;" horiz-adv-x="546" 
d="M274 806q44 0 85.5 -23.5t64 -66.5t22.5 -87q0 -74 -50 -126.5t-122 -52.5t-123 52.5t-51 126.5q0 44 23 87t65 66.5t86 23.5zM274 787q-64 0 -107 -46t-43 -115q0 -67 43 -112t107 -45q63 0 106 46t43 114q0 41 -19.5 79t-55.5 58.5t-74 20.5zM345 548l8 -17
q-30 -21 -70 -21q-23 0 -50 11t-46 40t-19 66q0 24 11 52.5t39.5 48t64.5 19.5q37 0 68 -19l-9 -18q-30 17 -61 17q-39 0 -64.5 -27.5t-25.5 -69.5t27.5 -71t67.5 -29q32 0 59 18z" />
    <glyph glyph-name="ordfeminine" unicode="&#xaa;" horiz-adv-x="574" 
d="M243 432q-86 -386 -86 -429q0 -18 11 -26t24 -8q19 0 42 17.5t38.5 47.5t19.5 74h9q-8 -81 -49.5 -120.5t-111.5 -39.5q-43 0 -74 27t-31 76q0 41 74 381h-67l3 10h66l30 135q35 -15 68 -15q23 0 42 14t25 41l8 35h8l-47 -210h153l48 220q35 -15 68 -15q23 0 42 14t25 41
l8 35h8l-65 -295h112l-3 -10h-112q-85 -388 -85 -429q0 -18 11 -26t24 -8q19 0 42 17.5t38.5 47.5t19.5 74h9q-8 -81 -49.5 -120.5t-111.5 -39.5q-43 0 -74 27t-31 76q0 38 74 381h-153z" />
    <glyph glyph-name="guillemotleft" unicode="&#xab;" horiz-adv-x="450" 
d="M229 120l-173 118l223 118l-1 -12l-207 -106l159 -106zM369 115l-173 118l223 118l-1 -12l-207 -106l159 -106z" />
    <glyph glyph-name="logicalnot" unicode="&#xac;" horiz-adv-x="938" 
d="M24 468q81 40 155 40q70 0 121.5 -25.5t82.5 -74.5t31 -118q0 -52 -20 -109.5t-58 -109.5l821 876l9 -2l-885 -945h-11q27 77 27 156q0 59 -16.5 113.5t-50 97.5t-86 69.5t-120.5 31.5z" />
    <glyph glyph-name="uni00AD" unicode="&#xad;" horiz-adv-x="364" 
d="M52 253l3 10h295l-3 -10h-295z" />
    <glyph glyph-name="registered" unicode="&#xae;" horiz-adv-x="546" 
d="M274 806q44 0 85.5 -23.5t64 -66.5t22.5 -87q0 -74 -50 -126.5t-122 -52.5t-123 52.5t-51 126.5q0 44 23 87t65 66.5t86 23.5zM274 787q-64 0 -107 -46t-43 -115q0 -67 43 -112t107 -45q63 0 106 46t43 114q0 41 -19.5 79t-55.5 58.5t-74 20.5zM360 513h-26l-67 97h-34
v-97h-22v228q25 4 53 4q39 0 61 -17.5t22 -48.5q0 -26 -15.5 -43.5t-42.5 -22.5zM233 725v-97l28 -1q30 0 47 13.5t17 37.5t-16.5 36.5t-47.5 12.5z" />
    <glyph glyph-name="macron" unicode="&#xaf;" horiz-adv-x="364" 
d="M119 546l2 10h215l-2 -10h-215z" />
    <glyph glyph-name="degree" unicode="&#xb0;" horiz-adv-x="273" 
d="M287 710q0 -30 -13 -59.5t-44.5 -48t-65.5 -18.5q-27 0 -49.5 12t-31.5 31.5t-9 38.5q0 39 21.5 68t50 43.5t57.5 14.5q36 0 60 -24t24 -58zM141 599q18 0 36 11.5t32 35.5t14 58q0 31 -13.5 48t-39.5 17q-23 0 -45 -17.5t-31.5 -41.5t-9.5 -44q0 -31 15.5 -49t41.5 -18z
" />
    <glyph glyph-name="plusminus" unicode="&#xb1;" horiz-adv-x="833" 
d="M258 -13l6 -5q-17 -16 -39.5 -25t-44.5 -9q-35 0 -62.5 17t-38 43t-10.5 49q0 13 2 31t8 47.5t36 149t30 165.5q0 36 -30 36q-19 0 -44 -14.5t-37 -30.5h-9q17 25 55.5 43t83.5 18q33 0 58.5 -13t36.5 -36.5t11 -50.5q0 -6 -2 -25.5t-9 -50.5t-41 -153t-34 -159
q0 -26 8.5 -39t22.5 -13q7 0 19 7t24 18zM266 726q27 0 45.5 -23t18.5 -52q0 -25 -12.5 -47.5t-31 -32t-34.5 -9.5q-28 0 -48 20t-20 52q0 25 12.5 48.5t32 33.5t37.5 10zM284 -20l-8 -1q-5 18 -5 38q0 35 22.5 66.5t74 61t159.5 67.5q111 40 148.5 56t68.5 33.5t59 41
t43 55.5q-23 -33 -84 -58t-117 -25q-26 0 -55.5 8t-80.5 28t-69 20q-42 0 -62.5 -26.5t-21.5 -86.5h-8q0 49 13.5 93t39.5 76.5t64.5 51t87.5 18.5q55 0 128 -49t91 -55t29 -6q19 0 34 10.5t17 19.5l9 -1q-13 -53 -72.5 -98.5t-205 -97.5t-184 -71t-62.5 -36t-39 -37.5
t-18 -43.5q6 19 31 40t76.5 37t98.5 16q26 0 59.5 -8t97 -29.5t84.5 -21.5q42 0 62.5 26.5t21.5 86.5h8q0 -49 -13.5 -93t-39.5 -76.5t-64.5 -51t-87.5 -18.5q-17 0 -41 6.5t-49.5 20.5t-78.5 49.5t-72.5 42.5t-30.5 7q-25 0 -43.5 -18t-18.5 -43q0 -12 4 -25z" />
    <glyph glyph-name="acute" unicode="&#xb4;" horiz-adv-x="446" 
d="M393 734l67 -26q-1 -64 -51 -105t-127 -54v9q65 15 92 46.5t27 76.5q0 23 -8 53z" />
    <glyph glyph-name="uni00B5" unicode="&#xb5;" horiz-adv-x="963" 
d="M933 583h-60v187h60v-27h-35v-54h33v-27h-33v-56h35v-23zM860 699q0 -14 -7.5 -26t-26.5 -12h-20v-78h-22v187h42q15 0 24.5 -11t9.5 -31v-29zM774 770l-29 -124v-63h-30v63l-27 124h26l15 -82l18 82h27zM686 743h-24v-160h-25v160h-21v27h70v-27zM576 583h-25l-5 39h-27
l-3 -39h-24l24 187h35zM483 619q-2 -14 -9.5 -25t-24.5 -11h-44v187h44q13 0 22.5 -10.5t11.5 -31.5v-109zM394 583h-23l-6 39h-26l-5 -39h-25l25 187h37zM299 583h-33l-29 120l-6 14l3 -15v-119h-25v187h31l31 -129l5 -15l-2 16v128h25v-187zM197 583h-22l-8 39h-26l-3 -39
h-26l26 187h37zM107 618q0 -36 -40 -36q-17 0 -27 8t-12 28v114q4 39 39 39q18 0 29 -9.5t11 -29.5v-30h-27v26q-1 4 -3 11.5t-10 7.5q-11 0 -14 -19v-109q1 -7 5.5 -12t8.5 -5q10 0 13 17v25h27v-26zM941 -220h-435v185l172 -35l-50 63l177 140l-78 16l78 102l-114 -44
l-13 85l-121 -114l69 216l-69 -33l-65 118l-73 -118l-55 33l41 -216l-113 114l-11 -85l-114 44l73 -102l-85 -16l190 -140l-53 -63l181 35v-185h-451v768h919v-768zM834 701v27q0 18 -13 18h-15v-64h15q13 0 13 19zM543 648l-9 82q0 10 -2 13v-13l-11 -82h22zM457 624v103
q0 16 -14 16h-13v-139h13q6 0 10 6t4 14zM364 648l-11 82q0 10 -2 13v-13l-8 -82h21zM166 648l-9 82q0 10 -2 13v-13l-11 -82h22z" />
    <glyph glyph-name="paragraph" unicode="&#xb6;" horiz-adv-x="521" 
d="M588 639l-1 -8q-22 10 -58 17t-65 7q-34 -8 -58 -74t-34 -193l-19 -231q-5 -58 -21 -128t-39 -106.5t-48 -41.5l-2 9q16 3 30.5 21.5t27 49.5t25.5 87t17 109l4 49q-20 -5 -50 -5q-47 0 -80.5 13t-58 33.5t-42.5 56.5t-18 83q0 49 22.5 98.5t66.5 90t110.5 65t149.5 24.5
q81 0 141 -26z" />
    <glyph glyph-name="periodcentered" unicode="&#xb7;" horiz-adv-x="263" 
d="M221 464q27 0 45.5 -23t18.5 -52q0 -25 -12.5 -47.5t-31 -32t-34.5 -9.5q-28 0 -48 20t-20 52q0 25 12.5 48.5t32 33.5t37.5 10z" />
    <glyph glyph-name="cedilla" unicode="&#xb8;" horiz-adv-x="473" 
d="M274 -45h10q-15 -36 -19 -42q22 -11 35 -35.5t13 -52.5t-13.5 -52t-36.5 -34t-45 -10t-44.5 8t-35 26.5t-12.5 37.5q0 17 8.5 28.5t22.5 11.5q13 0 23 -10l-1 -9q-11 9 -22 9q-7 0 -12.5 -5.5t-5.5 -12.5q0 -12 14.5 -20.5t45.5 -8.5q32 0 56.5 23t24.5 62q0 13 -6 22
t-15 13q-18 -23 -39 -23q-10 0 -16 5.5t-6 12.5q0 9 10 15t23 6q14 0 25 -4q9 15 18 39zM220 -109q16 0 30 17q-7 2 -20 2q-22 0 -22 -11q0 -8 12 -8z" />
    <glyph glyph-name="ordmasculine" unicode="&#xba;" horiz-adv-x="348" 
d="M219 362q22 0 49.5 23t51 76.5t23.5 100.5q0 56 -26 86.5t-61 30.5q-37 0 -66 -36.5t-40 -83.5t-11 -80q0 -38 11 -66.5t30.5 -39.5t38.5 -11zM245 690q46 0 77 -31.5t31 -96.5q0 -38 -13.5 -80t-38 -77.5t-58 -57t-69.5 -21.5q-47 0 -75.5 23t-37.5 56t-9 60
q0 38 13 78.5t38 73.5t61.5 53t80.5 20z" />
    <glyph glyph-name="guillemotright" unicode="&#xbb;" horiz-adv-x="450" 
d="M246 351l173 -118l-223 -118l1 12l207 106l-159 106zM106 356l173 -118l-223 -118l1 12l207 106l-159 106z" />
    <glyph glyph-name="questiondown" unicode="&#xbf;" horiz-adv-x="547" 
d="M346 378q-27 0 -45.5 23t-18.5 52q0 25 12.5 47.5t31 32t34.5 9.5q28 0 48 -20t20 -52q0 -25 -12.5 -48.5t-32 -33.5t-37.5 -10zM346 293h9q8 -24 8 -41q0 -23 -11 -59t-68.5 -109t-73 -107.5t-15.5 -66.5q0 -55 26.5 -82.5t68.5 -27.5q33 0 69.5 16t67 43t49.5 62.5
t19 72.5q0 23 -8.5 49.5t-30.5 44.5t-50 18q-51 0 -66 -48h-9q9 28 29 42.5t46 14.5q29 0 53.5 -18.5t34.5 -47.5t10 -55q0 -53 -26 -105t-69 -92t-93 -63.5t-94 -23.5q-60 0 -103 20.5t-67.5 59.5t-24.5 93q0 56 20.5 98t57.5 73.5t105.5 65t93 50.5t37.5 37t13 45
q0 17 -8 41z" />
    <glyph glyph-name="Agrave" unicode="&#xc0;" horiz-adv-x="890" 
d="M195 611q-50 0 -80 -35.5t-30 -81.5q0 -33 19 -69t62 -57.5t99 -21.5q150 222 243 326t170 148.5t144 44.5l24 -1q-72 -31 -143 -152t-104 -261q48 16 81 16q58 0 88.5 -29t30.5 -69q0 -26 -13.5 -50t-33.5 -33.5t-38 -9.5q-19 0 -37 8.5t-30 23.5l1 8q10 -13 29 -22
t36 -9q15 0 33.5 8.5t31 29t12.5 45.5q0 27 -15.5 49t-42 31t-52.5 9q-30 0 -83 -17q-17 -77 -17 -145q0 -53 9 -99.5t28.5 -81.5t50.5 -54.5t72 -19.5q24 0 47.5 13t40 41.5t16.5 57.5q0 25 -18 43.5t-51 18.5q-23 0 -42 -13l-1 8q20 13 44 13q21 0 44 -12t38 -42t15 -65
q0 -31 -11.5 -62t-35 -56t-59.5 -40t-82 -15t-87.5 19.5t-72.5 55t-48 86.5t-17 110q0 101 25 196l-77 -29q-6 -16 -15.5 -44.5t-77 -230.5t-131 -337t-134 -227t-154 -155.5t-190.5 -98.5t-238 -35q-102 0 -191 30t-163 95t-118.5 166t-44.5 198q0 66 20 127t56 107t83 72
t98 26q28 0 61 -9.5t64 -30.5v-8q-28 19 -61 29t-62 10q-48 0 -93.5 -25t-80.5 -69.5t-55 -103.5t-20 -123q0 -267 364 -267q84 0 166.5 32t166 94t174.5 162q47 52 101 120t111.5 150t128.5 187.5t86 127.5q-34 1 -67 10t-59 29.5t-41.5 51t-15.5 66.5q0 51 32.5 88.5
t86.5 37.5q19 0 37 -8.5t30 -23.5l-1 -8q-11 14 -30.5 22.5t-35.5 8.5zM810 856q-72 -8 -138.5 -51.5t-129.5 -140.5t-131 -287l77 30q11 41 36 102.5t73.5 136t107.5 130.5t105 80zM652 1071l67 26q-8 -30 -8 -53q0 -45 27 -76.5t92 -46.5v-9q-77 13 -127 54t-51 105z" />
    <glyph glyph-name="Aacute" unicode="&#xc1;" horiz-adv-x="890" 
d="M195 611q-50 0 -80 -35.5t-30 -81.5q0 -33 19 -69t62 -57.5t99 -21.5q150 222 243 326t170 148.5t144 44.5l24 -1q-72 -31 -143 -152t-104 -261q48 16 81 16q58 0 88.5 -29t30.5 -69q0 -26 -13.5 -50t-33.5 -33.5t-38 -9.5q-19 0 -37 8.5t-30 23.5l1 8q10 -13 29 -22
t36 -9q15 0 33.5 8.5t31 29t12.5 45.5q0 27 -15.5 49t-42 31t-52.5 9q-30 0 -83 -17q-17 -77 -17 -145q0 -53 9 -99.5t28.5 -81.5t50.5 -54.5t72 -19.5q24 0 47.5 13t40 41.5t16.5 57.5q0 25 -18 43.5t-51 18.5q-23 0 -42 -13l-1 8q20 13 44 13q21 0 44 -12t38 -42t15 -65
q0 -31 -11.5 -62t-35 -56t-59.5 -40t-82 -15t-87.5 19.5t-72.5 55t-48 86.5t-17 110q0 101 25 196l-77 -29q-6 -16 -15.5 -44.5t-77 -230.5t-131 -337t-134 -227t-154 -155.5t-190.5 -98.5t-238 -35q-102 0 -191 30t-163 95t-118.5 166t-44.5 198q0 66 20 127t56 107t83 72
t98 26q28 0 61 -9.5t64 -30.5v-8q-28 19 -61 29t-62 10q-48 0 -93.5 -25t-80.5 -69.5t-55 -103.5t-20 -123q0 -267 364 -267q84 0 166.5 32t166 94t174.5 162q47 52 101 120t111.5 150t128.5 187.5t86 127.5q-34 1 -67 10t-59 29.5t-41.5 51t-15.5 66.5q0 51 32.5 88.5
t86.5 37.5q19 0 37 -8.5t30 -23.5l-1 -8q-11 14 -30.5 22.5t-35.5 8.5zM810 856q-72 -8 -138.5 -51.5t-129.5 -140.5t-131 -287l77 30q11 41 36 102.5t73.5 136t107.5 130.5t105 80zM786 1102l67 -26q-1 -64 -51 -105t-127 -54v9q65 15 92 46.5t27 76.5q0 23 -8 53z" />
    <glyph glyph-name="Acircumflex" unicode="&#xc2;" horiz-adv-x="890" 
d="M195 611q-50 0 -80 -35.5t-30 -81.5q0 -33 19 -69t62 -57.5t99 -21.5q150 222 243 326t170 148.5t144 44.5l24 -1q-72 -31 -143 -152t-104 -261q48 16 81 16q58 0 88.5 -29t30.5 -69q0 -26 -13.5 -50t-33.5 -33.5t-38 -9.5q-19 0 -37 8.5t-30 23.5l1 8q10 -13 29 -22
t36 -9q15 0 33.5 8.5t31 29t12.5 45.5q0 27 -15.5 49t-42 31t-52.5 9q-30 0 -83 -17q-17 -77 -17 -145q0 -53 9 -99.5t28.5 -81.5t50.5 -54.5t72 -19.5q24 0 47.5 13t40 41.5t16.5 57.5q0 25 -18 43.5t-51 18.5q-23 0 -42 -13l-1 8q20 13 44 13q21 0 44 -12t38 -42t15 -65
q0 -31 -11.5 -62t-35 -56t-59.5 -40t-82 -15t-87.5 19.5t-72.5 55t-48 86.5t-17 110q0 101 25 196l-77 -29q-6 -16 -15.5 -44.5t-77 -230.5t-131 -337t-134 -227t-154 -155.5t-190.5 -98.5t-238 -35q-102 0 -191 30t-163 95t-118.5 166t-44.5 198q0 66 20 127t56 107t83 72
t98 26q28 0 61 -9.5t64 -30.5v-8q-28 19 -61 29t-62 10q-48 0 -93.5 -25t-80.5 -69.5t-55 -103.5t-20 -123q0 -267 364 -267q84 0 166.5 32t166 94t174.5 162q47 52 101 120t111.5 150t128.5 187.5t86 127.5q-34 1 -67 10t-59 29.5t-41.5 51t-15.5 66.5q0 51 32.5 88.5
t86.5 37.5q19 0 37 -8.5t30 -23.5l-1 -8q-11 14 -30.5 22.5t-35.5 8.5zM810 856q-72 -8 -138.5 -51.5t-129.5 -140.5t-131 -287l77 30q11 41 36 102.5t73.5 136t107.5 130.5t105 80zM870 936q-28 -14 -54 -14q-35 0 -58.5 21.5t-23.5 56.5q0 27 12 57l-124 -132l-8 1
l162 173h11q-11 -31 -11 -58q0 -30 13.5 -55t36 -36.5t44.5 -13.5z" />
    <glyph glyph-name="Atilde" unicode="&#xc3;" horiz-adv-x="890" 
d="M195 611q-50 0 -80 -35.5t-30 -81.5q0 -33 19 -69t62 -57.5t99 -21.5q150 222 243 326t170 148.5t144 44.5l24 -1q-72 -31 -143 -152t-104 -261q48 16 81 16q58 0 88.5 -29t30.5 -69q0 -26 -13.5 -50t-33.5 -33.5t-38 -9.5q-19 0 -37 8.5t-30 23.5l1 8q10 -13 29 -22
t36 -9q15 0 33.5 8.5t31 29t12.5 45.5q0 27 -15.5 49t-42 31t-52.5 9q-30 0 -83 -17q-17 -77 -17 -145q0 -53 9 -99.5t28.5 -81.5t50.5 -54.5t72 -19.5q24 0 47.5 13t40 41.5t16.5 57.5q0 25 -18 43.5t-51 18.5q-23 0 -42 -13l-1 8q20 13 44 13q21 0 44 -12t38 -42t15 -65
q0 -31 -11.5 -62t-35 -56t-59.5 -40t-82 -15t-87.5 19.5t-72.5 55t-48 86.5t-17 110q0 101 25 196l-77 -29q-6 -16 -15.5 -44.5t-77 -230.5t-131 -337t-134 -227t-154 -155.5t-190.5 -98.5t-238 -35q-102 0 -191 30t-163 95t-118.5 166t-44.5 198q0 66 20 127t56 107t83 72
t98 26q28 0 61 -9.5t64 -30.5v-8q-28 19 -61 29t-62 10q-48 0 -93.5 -25t-80.5 -69.5t-55 -103.5t-20 -123q0 -267 364 -267q84 0 166.5 32t166 94t174.5 162q47 52 101 120t111.5 150t128.5 187.5t86 127.5q-34 1 -67 10t-59 29.5t-41.5 51t-15.5 66.5q0 51 32.5 88.5
t86.5 37.5q19 0 37 -8.5t30 -23.5l-1 -8q-11 14 -30.5 22.5t-35.5 8.5zM810 856q-72 -8 -138.5 -51.5t-129.5 -140.5t-131 -287l77 30q11 41 36 102.5t73.5 136t107.5 130.5t105 80zM881 1018h9q-22 -45 -55 -71.5t-63 -26.5q-23 0 -60.5 27.5t-60.5 27.5q-28 0 -45.5 -11
t-33.5 -32h-9q34 49 69.5 70.5t65.5 21.5q24 0 60.5 -25t59.5 -25q22 0 34.5 8.5t28.5 35.5z" />
    <glyph glyph-name="Adieresis" unicode="&#xc4;" horiz-adv-x="890" 
d="M195 611q-50 0 -80 -35.5t-30 -81.5q0 -33 19 -69t62 -57.5t99 -21.5q150 222 243 326t170 148.5t144 44.5l24 -1q-72 -31 -143 -152t-104 -261q48 16 81 16q58 0 88.5 -29t30.5 -69q0 -26 -13.5 -50t-33.5 -33.5t-38 -9.5q-19 0 -37 8.5t-30 23.5l1 8q10 -13 29 -22
t36 -9q15 0 33.5 8.5t31 29t12.5 45.5q0 27 -15.5 49t-42 31t-52.5 9q-30 0 -83 -17q-17 -77 -17 -145q0 -53 9 -99.5t28.5 -81.5t50.5 -54.5t72 -19.5q24 0 47.5 13t40 41.5t16.5 57.5q0 25 -18 43.5t-51 18.5q-23 0 -42 -13l-1 8q20 13 44 13q21 0 44 -12t38 -42t15 -65
q0 -31 -11.5 -62t-35 -56t-59.5 -40t-82 -15t-87.5 19.5t-72.5 55t-48 86.5t-17 110q0 101 25 196l-77 -29q-6 -16 -15.5 -44.5t-77 -230.5t-131 -337t-134 -227t-154 -155.5t-190.5 -98.5t-238 -35q-102 0 -191 30t-163 95t-118.5 166t-44.5 198q0 66 20 127t56 107t83 72
t98 26q28 0 61 -9.5t64 -30.5v-8q-28 19 -61 29t-62 10q-48 0 -93.5 -25t-80.5 -69.5t-55 -103.5t-20 -123q0 -267 364 -267q84 0 166.5 32t166 94t174.5 162q47 52 101 120t111.5 150t128.5 187.5t86 127.5q-34 1 -67 10t-59 29.5t-41.5 51t-15.5 66.5q0 51 32.5 88.5
t86.5 37.5q19 0 37 -8.5t30 -23.5l-1 -8q-11 14 -30.5 22.5t-35.5 8.5zM810 856q-72 -8 -138.5 -51.5t-129.5 -140.5t-131 -287l77 30q11 41 36 102.5t73.5 136t107.5 130.5t105 80zM699 1007q14 0 23.5 -12.5t9.5 -26.5q0 -18 -12 -32t-29 -14q-15 0 -25 10.5t-10 26.5
q0 19 11.5 33.5t31.5 14.5zM821 1007q14 0 23.5 -12.5t9.5 -26.5q0 -18 -12 -32t-29 -14q-15 0 -25 10.5t-10 26.5q0 18 12 33t31 15z" />
    <glyph glyph-name="Aring" unicode="&#xc5;" horiz-adv-x="890" 
d="M195 611q-50 0 -80 -35.5t-30 -81.5q0 -33 19 -69t62 -57.5t99 -21.5q150 222 243 326t170 148.5t144 44.5l24 -1q-72 -31 -143 -152t-104 -261q48 16 81 16q58 0 88.5 -29t30.5 -69q0 -26 -13.5 -50t-33.5 -33.5t-38 -9.5q-19 0 -37 8.5t-30 23.5l1 8q10 -13 29 -22
t36 -9q15 0 33.5 8.5t31 29t12.5 45.5q0 27 -15.5 49t-42 31t-52.5 9q-30 0 -83 -17q-17 -77 -17 -145q0 -53 9 -99.5t28.5 -81.5t50.5 -54.5t72 -19.5q24 0 47.5 13t40 41.5t16.5 57.5q0 25 -18 43.5t-51 18.5q-23 0 -42 -13l-1 8q20 13 44 13q21 0 44 -12t38 -42t15 -65
q0 -31 -11.5 -62t-35 -56t-59.5 -40t-82 -15t-87.5 19.5t-72.5 55t-48 86.5t-17 110q0 101 25 196l-77 -29q-6 -16 -15.5 -44.5t-77 -230.5t-131 -337t-134 -227t-154 -155.5t-190.5 -98.5t-238 -35q-102 0 -191 30t-163 95t-118.5 166t-44.5 198q0 66 20 127t56 107t83 72
t98 26q28 0 61 -9.5t64 -30.5v-8q-28 19 -61 29t-62 10q-48 0 -93.5 -25t-80.5 -69.5t-55 -103.5t-20 -123q0 -267 364 -267q84 0 166.5 32t166 94t174.5 162q47 52 101 120t111.5 150t128.5 187.5t86 127.5q-34 1 -67 10t-59 29.5t-41.5 51t-15.5 66.5q0 51 32.5 88.5
t86.5 37.5q19 0 37 -8.5t30 -23.5l-1 -8q-11 14 -30.5 22.5t-35.5 8.5zM810 856q-72 -8 -138.5 -51.5t-129.5 -140.5t-131 -287l77 30q11 41 36 102.5t73.5 136t107.5 130.5t105 80zM672 957q0 18 8.5 37.5t28.5 31t41 11.5q24 0 40.5 -13.5t16.5 -38.5q0 -14 -9 -33
t-30 -33t-43 -14q-23 0 -38 15t-15 37zM763 1025q-19 0 -35.5 -18t-16.5 -46q0 -39 34 -39q19 0 35.5 20.5t16.5 42.5q0 18 -10.5 29t-23.5 11z" />
    <glyph glyph-name="AE" unicode="&#xc6;" horiz-adv-x="1196" 
d="M846 864q-70 -30 -138 -144t-103 -247q110 19 193 47q-20 46 -20 99q0 43 17.5 85t46.5 77t71.5 66.5t87 47t74.5 15.5q37 0 59.5 -20t22.5 -59q0 -60 -35.5 -116t-101.5 -104.5t-153 -76.5l7 -22l32 1q23 0 47.5 -5.5t42 -18t25 -30t-3 -33t-35.5 -15.5q-53 0 -95 20
t-68 55q-61 -26 -95.5 -88.5t-34.5 -135.5q0 -76 22.5 -139.5t62 -106.5t91.5 -65.5t108 -22.5q36 0 69.5 13.5t60 38.5t41.5 60t15 76q0 28 -11 60t-32 52.5t-43.5 28.5t-43.5 8q-71 0 -90 -65h-10q11 37 38.5 56t61.5 19q23 0 49 -10.5t47 -31.5t33 -51t12 -66
q0 -53 -19 -108.5t-62.5 -101.5t-93.5 -70t-89 -31t-67 -7q-39 0 -88.5 11t-98.5 40.5t-86.5 71.5t-62.5 94t-34 100.5t-9 85.5q0 126 41 251q-31 -3 -63 -3q-6 -16 -24.5 -65t-74 -216.5t-88.5 -253.5t-66.5 -157.5t-77.5 -144t-101 -137.5t-133.5 -118.5t-179 -85
t-225.5 -31.5q-102 0 -191 30t-163 95t-118.5 166t-44.5 198q0 66 20 127t56 107t83 72t98 26q28 0 61 -9.5t64 -30.5v-8q-28 19 -61 29t-62 10q-48 0 -93.5 -25t-80.5 -69.5t-55 -103.5t-20 -123q0 -267 364 -267q92 0 182 38t181.5 112t199 202.5t260 355.5t191.5 282
q-44 6 -87.5 20.5t-78 40.5t-55.5 61.5t-21 75.5q0 51 32.5 88.5t86.5 37.5q19 0 37 -8.5t30 -23.5l-1 -8q-11 14 -30.5 22.5t-35.5 8.5q-50 0 -80 -35.5t-30 -81.5t30.5 -86.5t83 -67.5t125.5 -36q118 168 202 252t150.5 117.5t124.5 33.5zM860 600q0 -29 5 -57
q55 17 106 45.5t91 66.5t63 83.5t23 93.5q0 34 -13.5 48.5t-41.5 14.5q-33 0 -73.5 -21.5t-77 -61t-59.5 -94.5t-23 -118zM810 856q-111 -13 -199.5 -104t-168.5 -294q19 0 63 4q32 91 83 169.5t110.5 138t111.5 86.5zM809 501l-7 12q-97 -33 -200 -49q-16 -67 -21 -132
q38 61 96.5 106t131.5 63zM906 504l-28 -2q9 -19 24.5 -39t37.5 -31.5t42 -11.5q10 0 19.5 4.5t13 16t-7 27t-37.5 26t-64 10.5z" />
    <glyph glyph-name="Ccedilla" unicode="&#xc7;" 
d="M410 265h-10q11 37 38.5 56t61.5 19q23 0 49 -10.5t47 -31.5t33 -51t12 -66q0 -57 -25.5 -106t-68 -84t-96 -54t-107.5 -19q-6 -19 -16 -35q22 -11 35 -35.5t13 -52.5t-13.5 -52t-36.5 -34t-45 -10t-44.5 8t-35 26.5t-12.5 37.5q0 17 8.5 28.5t22.5 11.5q13 0 23 -10
l-1 -9q-11 9 -22 9q-7 0 -12.5 -5.5t-5.5 -12.5q0 -12 14.5 -20.5t45.5 -8.5q32 0 56.5 23t24.5 62q0 13 -6 22t-15 13q-18 -23 -39 -23q-10 0 -16 5.5t-6 12.5q0 9 10 15t23 6q14 0 25 -4q9 13 15 32q-47 1 -93.5 16t-81.5 49t-56 87t-21 127q0 114 51 238
q-67 18 -100 57.5t-33 83.5q0 30 16.5 56.5t38.5 37t40 10.5q22 0 43 -13.5t32 -39.5h-7q-20 44 -68 44q-36 0 -60.5 -27.5t-24.5 -66.5q0 -45 30 -81t96 -53q33 77 76.5 138t89 105t98 76.5t112 50.5t120.5 18q52 0 83.5 -23t31.5 -65q0 -32 -24 -79.5t-82 -100t-130 -85
t-135 -44.5t-113 -13q-21 -79 -21 -157q0 -51 11.5 -101t37.5 -87.5t65 -60t88 -22.5q36 0 69.5 13.5t60 38.5t41.5 60t15 76q0 66 -39 107.5t-91 41.5q-71 0 -90 -65zM632 820q-41 0 -95 -28.5t-107 -81t-97.5 -125t-67.5 -154.5q88 2 174.5 29.5t156 78.5t103.5 102
t37.5 91t-23 64t-81.5 24zM283 -139q16 0 30 17q-7 2 -20 2q-22 0 -22 -11q0 -8 12 -8z" />
    <glyph glyph-name="Egrave" unicode="&#xc8;" horiz-adv-x="721" 
d="M215 262q0 -76 22.5 -139.5t62 -106.5t91.5 -65.5t108 -22.5q36 0 69.5 13.5t60 38.5t41.5 60t15 76q0 28 -11 60t-32 52.5t-43.5 28.5t-43.5 8q-71 0 -90 -65h-10q11 37 38.5 56t61.5 19q23 0 49 -10.5t47 -31.5t33 -51t12 -66q0 -53 -19 -108.5t-62.5 -101.5t-93.5 -70
t-89 -31t-67 -7q-79 0 -140 25.5t-101 69.5t-59.5 100.5t-19.5 118.5q0 45 13 100.5t45.5 112t76 94t83.5 56t72 26.5l-14 27q-50 -8 -89 -8q-50 0 -94 14t-67.5 46t-23.5 75q0 18 5.5 39t20 40t40 33.5t62.5 14.5q21 0 42.5 -8t36.5 -24t23 -33h-8q-15 24 -36 40t-58 16
q-57 0 -88 -35.5t-31 -82.5q0 -42 20.5 -69.5t59.5 -42t96 -14.5q46 0 86 8q-14 35 -14 82q0 43 17.5 85t46.5 77t71.5 66.5t87 47t74.5 15.5q37 0 59.5 -20t22.5 -59q0 -59 -36 -113t-102 -99t-154 -73q3 -19 9 -34l32 1q23 0 47.5 -5.5t42 -18t25 -30t-3 -33t-35.5 -15.5
q-53 0 -95 20t-68 55q-61 -26 -95.5 -88.5t-34.5 -135.5zM386 600q0 -25 3 -46q55 17 106.5 44t91.5 63t63.5 79.5t23.5 91.5q0 34 -13.5 48.5t-41.5 14.5q-33 0 -73.5 -21.5t-77 -61t-59.5 -94.5t-23 -118zM426 1106l67 26q-8 -30 -8 -53q0 -45 27 -76.5t92 -46.5v-9
q-77 13 -127 54t-51 105zM432 504l-28 -2q9 -19 24.5 -39t37.5 -31.5t42 -11.5q10 0 19.5 4.5t13 16t-7 27t-37.5 26t-64 10.5z" />
    <glyph glyph-name="Eacute" unicode="&#xc9;" horiz-adv-x="721" 
d="M215 262q0 -76 22.5 -139.5t62 -106.5t91.5 -65.5t108 -22.5q36 0 69.5 13.5t60 38.5t41.5 60t15 76q0 28 -11 60t-32 52.5t-43.5 28.5t-43.5 8q-71 0 -90 -65h-10q11 37 38.5 56t61.5 19q23 0 49 -10.5t47 -31.5t33 -51t12 -66q0 -53 -19 -108.5t-62.5 -101.5t-93.5 -70
t-89 -31t-67 -7q-79 0 -140 25.5t-101 69.5t-59.5 100.5t-19.5 118.5q0 45 13 100.5t45.5 112t76 94t83.5 56t72 26.5l-14 27q-50 -8 -89 -8q-50 0 -94 14t-67.5 46t-23.5 75q0 18 5.5 39t20 40t40 33.5t62.5 14.5q21 0 42.5 -8t36.5 -24t23 -33h-8q-15 24 -36 40t-58 16
q-57 0 -88 -35.5t-31 -82.5q0 -42 20.5 -69.5t59.5 -42t96 -14.5q46 0 86 8q-14 35 -14 82q0 43 17.5 85t46.5 77t71.5 66.5t87 47t74.5 15.5q37 0 59.5 -20t22.5 -59q0 -59 -36 -113t-102 -99t-154 -73q3 -19 9 -34l32 1q23 0 47.5 -5.5t42 -18t25 -30t-3 -33t-35.5 -15.5
q-53 0 -95 20t-68 55q-61 -26 -95.5 -88.5t-34.5 -135.5zM386 600q0 -25 3 -46q55 17 106.5 44t91.5 63t63.5 79.5t23.5 91.5q0 34 -13.5 48.5t-41.5 14.5q-33 0 -73.5 -21.5t-77 -61t-59.5 -94.5t-23 -118zM606 1135l67 -26q-1 -64 -51 -105t-127 -54v9q65 15 92 46.5
t27 76.5q0 23 -8 53zM432 504l-28 -2q9 -19 24.5 -39t37.5 -31.5t42 -11.5q10 0 19.5 4.5t13 16t-7 27t-37.5 26t-64 10.5z" />
    <glyph glyph-name="Ecircumflex" unicode="&#xca;" horiz-adv-x="721" 
d="M215 262q0 -76 22.5 -139.5t62 -106.5t91.5 -65.5t108 -22.5q36 0 69.5 13.5t60 38.5t41.5 60t15 76q0 28 -11 60t-32 52.5t-43.5 28.5t-43.5 8q-71 0 -90 -65h-10q11 37 38.5 56t61.5 19q23 0 49 -10.5t47 -31.5t33 -51t12 -66q0 -53 -19 -108.5t-62.5 -101.5t-93.5 -70
t-89 -31t-67 -7q-79 0 -140 25.5t-101 69.5t-59.5 100.5t-19.5 118.5q0 45 13 100.5t45.5 112t76 94t83.5 56t72 26.5l-14 27q-50 -8 -89 -8q-50 0 -94 14t-67.5 46t-23.5 75q0 18 5.5 39t20 40t40 33.5t62.5 14.5q21 0 42.5 -8t36.5 -24t23 -33h-8q-15 24 -36 40t-58 16
q-57 0 -88 -35.5t-31 -82.5q0 -42 20.5 -69.5t59.5 -42t96 -14.5q46 0 86 8q-14 35 -14 82q0 43 17.5 85t46.5 77t71.5 66.5t87 47t74.5 15.5q37 0 59.5 -20t22.5 -59q0 -59 -36 -113t-102 -99t-154 -73q3 -19 9 -34l32 1q23 0 47.5 -5.5t42 -18t25 -30t-3 -33t-35.5 -15.5
q-53 0 -95 20t-68 55q-61 -26 -95.5 -88.5t-34.5 -135.5zM386 600q0 -25 3 -46q55 17 106.5 44t91.5 63t63.5 79.5t23.5 91.5q0 34 -13.5 48.5t-41.5 14.5q-33 0 -73.5 -21.5t-77 -61t-59.5 -94.5t-23 -118zM687 967q-28 -14 -54 -14q-35 0 -58.5 21.5t-23.5 56.5
q0 27 12 57l-124 -132l-8 1l162 173h11q-11 -31 -11 -58q0 -30 13.5 -55t36 -36.5t44.5 -13.5zM432 504l-28 -2q9 -19 24.5 -39t37.5 -31.5t42 -11.5q10 0 19.5 4.5t13 16t-7 27t-37.5 26t-64 10.5z" />
    <glyph glyph-name="Edieresis" unicode="&#xcb;" horiz-adv-x="721" 
d="M215 262q0 -76 22.5 -139.5t62 -106.5t91.5 -65.5t108 -22.5q36 0 69.5 13.5t60 38.5t41.5 60t15 76q0 28 -11 60t-32 52.5t-43.5 28.5t-43.5 8q-71 0 -90 -65h-10q11 37 38.5 56t61.5 19q23 0 49 -10.5t47 -31.5t33 -51t12 -66q0 -53 -19 -108.5t-62.5 -101.5t-93.5 -70
t-89 -31t-67 -7q-79 0 -140 25.5t-101 69.5t-59.5 100.5t-19.5 118.5q0 45 13 100.5t45.5 112t76 94t83.5 56t72 26.5l-14 27q-50 -8 -89 -8q-50 0 -94 14t-67.5 46t-23.5 75q0 18 5.5 39t20 40t40 33.5t62.5 14.5q21 0 42.5 -8t36.5 -24t23 -33h-8q-15 24 -36 40t-58 16
q-57 0 -88 -35.5t-31 -82.5q0 -42 20.5 -69.5t59.5 -42t96 -14.5q46 0 86 8q-14 35 -14 82q0 43 17.5 85t46.5 77t71.5 66.5t87 47t74.5 15.5q37 0 59.5 -20t22.5 -59q0 -59 -36 -113t-102 -99t-154 -73q3 -19 9 -34l32 1q23 0 47.5 -5.5t42 -18t25 -30t-3 -33t-35.5 -15.5
q-53 0 -95 20t-68 55q-61 -26 -95.5 -88.5t-34.5 -135.5zM386 600q0 -25 3 -46q55 17 106.5 44t91.5 63t63.5 79.5t23.5 91.5q0 34 -13.5 48.5t-41.5 14.5q-33 0 -73.5 -21.5t-77 -61t-59.5 -94.5t-23 -118zM432 504l-28 -2q9 -19 24.5 -39t37.5 -31.5t42 -11.5
q10 0 19.5 4.5t13 16t-7 27t-37.5 26t-64 10.5zM531 1047q14 0 23.5 -12.5t9.5 -26.5q0 -18 -12 -32t-29 -14q-15 0 -25 10.5t-10 26.5q0 19 11.5 33.5t31.5 14.5zM653 1047q14 0 23.5 -12.5t9.5 -26.5q0 -18 -12 -32t-29 -14q-15 0 -25 10.5t-10 26.5q0 18 12 33t31 15z
" />
    <glyph glyph-name="Igrave" unicode="&#xcc;" horiz-adv-x="726" 
d="M670 418l-2 7q21 14 41 14q22 0 36 -17t14 -41t-17.5 -50t-62.5 -48.5t-100 -29.5q-19 -72 -48.5 -141t-70.5 -119.5t-91 -79.5t-107 -29q-45 0 -88 19t-75.5 52t-51.5 75.5t-19 87.5q0 42 21.5 83t59.5 64t74 23q37 0 67 -20l-2 -8q-31 20 -64 20q-44 0 -77.5 -29
t-33.5 -71q0 -18 11.5 -39t42.5 -36t70 -15q136 0 243 169q-62 14 -105 44.5t-66 74t-23 99.5q0 62 29.5 105t75 68t90 39.5t111.5 31t89 23.5q32 85 53.5 108.5t42.5 23.5q14 0 22.5 -11.5t8.5 -24.5q0 -24 -21 -48.5t-89 -56.5q-24 -98 -43 -275q-12 -108 -33 -194
q72 8 120 41.5t48 73.5q0 22 -12.5 35.5t-29.5 13.5q-19 0 -38 -12zM367 460q0 -54 25.5 -99.5t65.5 -70.5q47 83 94 204q20 52 48 132t34 98q-117 -51 -153.5 -75.5t-61 -51t-38.5 -61.5t-14 -76zM572 1070l67 26q-8 -30 -8 -53q0 -45 27 -76.5t92 -46.5v-9q-77 13 -127 54
t-51 105zM737 868q-22 0 -41.5 -30.5t-33.5 -86.5q46 16 71.5 37.5t25.5 53.5q0 10 -6.5 18t-15.5 8z" />
    <glyph glyph-name="Iacute" unicode="&#xcd;" horiz-adv-x="726" 
d="M670 418l-2 7q21 14 41 14q22 0 36 -17t14 -41t-17.5 -50t-62.5 -48.5t-100 -29.5q-19 -72 -48.5 -141t-70.5 -119.5t-91 -79.5t-107 -29q-45 0 -88 19t-75.5 52t-51.5 75.5t-19 87.5q0 42 21.5 83t59.5 64t74 23q37 0 67 -20l-2 -8q-31 20 -64 20q-44 0 -77.5 -29
t-33.5 -71q0 -18 11.5 -39t42.5 -36t70 -15q136 0 243 169q-62 14 -105 44.5t-66 74t-23 99.5q0 62 29.5 105t75 68t90 39.5t111.5 31t89 23.5q32 85 53.5 108.5t42.5 23.5q14 0 22.5 -11.5t8.5 -24.5q0 -24 -21 -48.5t-89 -56.5q-24 -98 -43 -275q-12 -108 -33 -194
q72 8 120 41.5t48 73.5q0 22 -12.5 35.5t-29.5 13.5q-19 0 -38 -12zM367 460q0 -54 25.5 -99.5t65.5 -70.5q47 83 94 204q20 52 48 132t34 98q-117 -51 -153.5 -75.5t-61 -51t-38.5 -61.5t-14 -76zM716 1105l67 -26q-1 -64 -51 -105t-127 -54v9q65 15 92 46.5t27 76.5
q0 23 -8 53zM737 868q-22 0 -41.5 -30.5t-33.5 -86.5q46 16 71.5 37.5t25.5 53.5q0 10 -6.5 18t-15.5 8z" />
    <glyph glyph-name="Icircumflex" unicode="&#xce;" horiz-adv-x="726" 
d="M670 418l-2 7q21 14 41 14q22 0 36 -17t14 -41t-17.5 -50t-62.5 -48.5t-100 -29.5q-19 -72 -48.5 -141t-70.5 -119.5t-91 -79.5t-107 -29q-45 0 -88 19t-75.5 52t-51.5 75.5t-19 87.5q0 42 21.5 83t59.5 64t74 23q37 0 67 -20l-2 -8q-31 20 -64 20q-44 0 -77.5 -29
t-33.5 -71q0 -18 11.5 -39t42.5 -36t70 -15q136 0 243 169q-62 14 -105 44.5t-66 74t-23 99.5q0 62 29.5 105t75 68t90 39.5t111.5 31t89 23.5q32 85 53.5 108.5t42.5 23.5q14 0 22.5 -11.5t8.5 -24.5q0 -24 -21 -48.5t-89 -56.5q-24 -98 -43 -275q-12 -108 -33 -194
q72 8 120 41.5t48 73.5q0 22 -12.5 35.5t-29.5 13.5q-19 0 -38 -12zM367 460q0 -54 25.5 -99.5t65.5 -70.5q47 83 94 204q20 52 48 132t34 98q-117 -51 -153.5 -75.5t-61 -51t-38.5 -61.5t-14 -76zM840 933q-28 -14 -54 -14q-35 0 -58.5 21.5t-23.5 56.5q0 27 12 57
l-124 -132l-8 1l162 173h11q-11 -31 -11 -58q0 -30 13.5 -55t36 -36.5t44.5 -13.5zM737 868q-22 0 -41.5 -30.5t-33.5 -86.5q46 16 71.5 37.5t25.5 53.5q0 10 -6.5 18t-15.5 8z" />
    <glyph glyph-name="Idieresis" unicode="&#xcf;" horiz-adv-x="726" 
d="M670 418l-2 7q21 14 41 14q22 0 36 -17t14 -41t-17.5 -50t-62.5 -48.5t-100 -29.5q-19 -72 -48.5 -141t-70.5 -119.5t-91 -79.5t-107 -29q-45 0 -88 19t-75.5 52t-51.5 75.5t-19 87.5q0 42 21.5 83t59.5 64t74 23q37 0 67 -20l-2 -8q-31 20 -64 20q-44 0 -77.5 -29
t-33.5 -71q0 -18 11.5 -39t42.5 -36t70 -15q136 0 243 169q-62 14 -105 44.5t-66 74t-23 99.5q0 62 29.5 105t75 68t90 39.5t111.5 31t89 23.5q32 85 53.5 108.5t42.5 23.5q14 0 22.5 -11.5t8.5 -24.5q0 -24 -21 -48.5t-89 -56.5q-24 -98 -43 -275q-12 -108 -33 -194
q72 8 120 41.5t48 73.5q0 22 -12.5 35.5t-29.5 13.5q-19 0 -38 -12zM367 460q0 -54 25.5 -99.5t65.5 -70.5q47 83 94 204q20 52 48 132t34 98q-117 -51 -153.5 -75.5t-61 -51t-38.5 -61.5t-14 -76zM737 868q-22 0 -41.5 -30.5t-33.5 -86.5q46 16 71.5 37.5t25.5 53.5
q0 10 -6.5 18t-15.5 8zM655 1004q14 0 23.5 -12.5t9.5 -26.5q0 -18 -12 -32t-29 -14q-15 0 -25 10.5t-10 26.5q0 19 11.5 33.5t31.5 14.5zM777 1004q14 0 23.5 -12.5t9.5 -26.5q0 -18 -12 -32t-29 -14q-15 0 -25 10.5t-10 26.5q0 18 12 33t31 15z" />
    <glyph glyph-name="Eth" unicode="&#xd0;" horiz-adv-x="1296" 
d="M486 352l3 9h75q24 76 76.5 261t81.5 268q-27 3 -55 3q-56 0 -116 -14t-114 -45.5t-92.5 -74t-58.5 -83.5t-29 -81t-2.5 -86t41 -77.5t91.5 -31.5q34 0 64.5 15t47.5 41.5t17 64.5q0 22 -5 39h8q5 -19 5 -42q0 -31 -15 -61t-50.5 -48.5t-71.5 -18.5q-48 0 -82 22
t-50.5 59t-14.5 84.5t22 95.5q21 51 61 98.5t99 85t138.5 60.5t172.5 25q28 76 50 117l9 2q-26 -55 -51 -118h7q63 0 127 -13t132.5 -48t129.5 -104.5t94 -163.5t33 -193q0 -73 -18.5 -147t-55 -137.5t-95.5 -120t-149 -91.5t-198 -35q-111 0 -200 54q-47 -48 -117 -75.5
t-140 -27.5q-51 0 -98 14.5t-83.5 44t-58 74.5t-21.5 103q0 51 23.5 90.5t61 61t86.5 21.5q34 0 68 -13v-8q-35 12 -67 12q-49 0 -87.5 -22.5t-56.5 -62t-18 -78.5q0 -33 11.5 -64.5t34.5 -56.5t59 -39.5t83 -14.5q109 0 200 150q-41 56 -77 130l10 1q31 -66 73 -121
q65 114 127 311h-75zM851 352h-213q-1 -16 -3.5 -90t-6.5 -126t-13 -93q-7 -30 -22.5 -59.5t-35.5 -52.5q32 -17 69.5 -27t70.5 -10q28 0 54 12.5t48.5 31t53 55t71.5 114t69.5 186.5t28.5 210q0 73 -16.5 138t-51 117t-91.5 86.5t-133 44.5q-36 -101 -60 -224.5t-32 -303.5
h216z" />
    <glyph glyph-name="Ntilde" unicode="&#xd1;" horiz-adv-x="679" 
d="M34 -84l-9 -1q3 57 19.5 111.5t48.5 115.5t103.5 160t95 135.5t41.5 71t28.5 64.5t17.5 61.5t7 69.5q0 24 -10 49t-34.5 41t-55.5 16q-32 0 -67.5 -18t-66 -54t-50 -91t-20.5 -124l-8 1q0 71 20 128t53 94.5t73 56.5t78 19q28 0 60.5 -12t61.5 -38t47.5 -67t18.5 -95
q0 -16 -5 -38q75 60 143 60q24 0 50.5 -11.5t44 -40.5t17.5 -66q0 -69 -25.5 -135t-80.5 -155t-72 -122t-28 -61.5t-19.5 -64t-8.5 -76.5q0 -78 39.5 -127t113.5 -49q32 0 62 18.5t42 44t12 46.5q0 22 -14 43t-32.5 29.5t-32.5 8.5v9q16 0 37.5 -10t38 -34.5t16.5 -51.5
q0 -56 -21 -101t-56.5 -75.5t-80 -46t-91.5 -15.5q-48 0 -94.5 16.5t-83 50t-58 84t-21.5 114.5q0 80 41 165.5t166.5 217t152.5 172t42 76.5t15 76q0 27 -17 43t-52 16q-75 0 -149 -65q-11 -37 -38 -89.5t-99 -162t-92 -144t-32 -59t-21 -51t-9 -49.5q-15 -5 -33 -5
q-12 0 -43.5 6t-44.5 6q-8 0 -17 -3q-10 -32 -14 -88zM755 759h7q-17 -35 -42.5 -55.5t-48.5 -20.5q-18 0 -47 21.5t-47 21.5q-21 0 -35 -8.5t-27 -25.5h-7q13 19 31 37t37.5 26.5t36.5 8.5q19 0 47.5 -19.5t46.5 -19.5q12 0 22.5 4.5t25.5 29.5z" />
    <glyph glyph-name="Ograve" unicode="&#xd2;" horiz-adv-x="630" 
d="M-102 557q0 -30 19 -62.5t65.5 -55t111.5 -28.5q33 94 88.5 175t120 138.5t127 88.5t109.5 31q38 0 60.5 -22t22.5 -64q0 -36 -29 -85q33 -28 50 -80t17 -116q0 -120 -36 -226.5t-95 -183.5t-128.5 -119.5t-133.5 -42.5q-54 0 -95.5 20t-67.5 55.5t-38.5 84t-12.5 104.5
q0 57 10.5 119.5t27.5 113.5q-65 6 -109.5 27t-68.5 54t-24 73q0 30 16.5 56.5t39 37.5t40.5 11q21 0 41.5 -13.5t33.5 -40.5h-9q-21 45 -66 45q-15 0 -35 -9.5t-36 -33.5t-16 -52zM495 514l8 3q5 -20 5 -36q0 -30 -17.5 -54t-39 -33.5t-36.5 -9.5q-30 0 -49.5 17.5
t-27.5 47.5q-45 -22 -97 -36q-10 -69 -10 -157q0 -64 16 -106.5t44.5 -64.5t70.5 -22q30 0 68 13t75 46.5t70 88t53 129t20 144.5q0 57 -15.5 105t-45.5 75q-35 -57 -100 -115t-141 -96q7 -27 25 -43.5t45 -16.5q17 0 35.5 11t33 31.5t14.5 46.5q0 12 -4 32zM613 758
q0 36 -20 56.5t-57 21t-84 -27.5q-24 -14 -52.5 -41t-58 -71t-56.5 -112.5t-42 -161.5q53 15 93 35q-3 15 -3 34q0 55 24 105.5t60.5 80t81.5 29.5q51 0 88 -28q26 47 26 80zM342 489l2 -28q75 37 139 94.5t98 113.5q-15 12 -36.5 19.5t-44.5 7.5q-43 0 -78 -28t-57.5 -76.5
t-22.5 -102.5zM388 1055l67 26q-8 -30 -8 -53q0 -45 27 -76.5t92 -46.5v-9q-77 13 -127 54t-51 105z" />
    <glyph glyph-name="Oacute" unicode="&#xd3;" horiz-adv-x="630" 
d="M-102 557q0 -30 19 -62.5t65.5 -55t111.5 -28.5q33 94 88.5 175t120 138.5t127 88.5t109.5 31q38 0 60.5 -22t22.5 -64q0 -36 -29 -85q33 -28 50 -80t17 -116q0 -120 -36 -226.5t-95 -183.5t-128.5 -119.5t-133.5 -42.5q-54 0 -95.5 20t-67.5 55.5t-38.5 84t-12.5 104.5
q0 57 10.5 119.5t27.5 113.5q-65 6 -109.5 27t-68.5 54t-24 73q0 30 16.5 56.5t39 37.5t40.5 11q21 0 41.5 -13.5t33.5 -40.5h-9q-21 45 -66 45q-15 0 -35 -9.5t-36 -33.5t-16 -52zM495 514l8 3q5 -20 5 -36q0 -30 -17.5 -54t-39 -33.5t-36.5 -9.5q-30 0 -49.5 17.5
t-27.5 47.5q-45 -22 -97 -36q-10 -69 -10 -157q0 -64 16 -106.5t44.5 -64.5t70.5 -22q30 0 68 13t75 46.5t70 88t53 129t20 144.5q0 57 -15.5 105t-45.5 75q-35 -57 -100 -115t-141 -96q7 -27 25 -43.5t45 -16.5q17 0 35.5 11t33 31.5t14.5 46.5q0 12 -4 32zM613 758
q0 36 -20 56.5t-57 21t-84 -27.5q-24 -14 -52.5 -41t-58 -71t-56.5 -112.5t-42 -161.5q53 15 93 35q-3 15 -3 34q0 55 24 105.5t60.5 80t81.5 29.5q51 0 88 -28q26 47 26 80zM342 489l2 -28q75 37 139 94.5t98 113.5q-15 12 -36.5 19.5t-44.5 7.5q-43 0 -78 -28t-57.5 -76.5
t-22.5 -102.5zM567 1078l67 -26q-1 -64 -51 -105t-127 -54v9q65 15 92 46.5t27 76.5q0 23 -8 53z" />
    <glyph glyph-name="Ocircumflex" unicode="&#xd4;" horiz-adv-x="630" 
d="M-102 557q0 -30 19 -62.5t65.5 -55t111.5 -28.5q33 94 88.5 175t120 138.5t127 88.5t109.5 31q38 0 60.5 -22t22.5 -64q0 -36 -29 -85q33 -28 50 -80t17 -116q0 -120 -36 -226.5t-95 -183.5t-128.5 -119.5t-133.5 -42.5q-54 0 -95.5 20t-67.5 55.5t-38.5 84t-12.5 104.5
q0 57 10.5 119.5t27.5 113.5q-65 6 -109.5 27t-68.5 54t-24 73q0 30 16.5 56.5t39 37.5t40.5 11q21 0 41.5 -13.5t33.5 -40.5h-9q-21 45 -66 45q-15 0 -35 -9.5t-36 -33.5t-16 -52zM495 514l8 3q5 -20 5 -36q0 -30 -17.5 -54t-39 -33.5t-36.5 -9.5q-30 0 -49.5 17.5
t-27.5 47.5q-45 -22 -97 -36q-10 -69 -10 -157q0 -64 16 -106.5t44.5 -64.5t70.5 -22q30 0 68 13t75 46.5t70 88t53 129t20 144.5q0 57 -15.5 105t-45.5 75q-35 -57 -100 -115t-141 -96q7 -27 25 -43.5t45 -16.5q17 0 35.5 11t33 31.5t14.5 46.5q0 12 -4 32zM613 758
q0 36 -20 56.5t-57 21t-84 -27.5q-24 -14 -52.5 -41t-58 -71t-56.5 -112.5t-42 -161.5q53 15 93 35q-3 15 -3 34q0 55 24 105.5t60.5 80t81.5 29.5q51 0 88 -28q26 47 26 80zM342 489l2 -28q75 37 139 94.5t98 113.5q-15 12 -36.5 19.5t-44.5 7.5q-43 0 -78 -28t-57.5 -76.5
t-22.5 -102.5zM635 914q-28 -14 -54 -14q-35 0 -58.5 21.5t-23.5 56.5q0 27 12 57l-124 -132l-8 1l162 173h11q-11 -31 -11 -58q0 -30 13.5 -55t36 -36.5t44.5 -13.5z" />
    <glyph glyph-name="Otilde" unicode="&#xd5;" horiz-adv-x="630" 
d="M-102 557q0 -30 19 -62.5t65.5 -55t111.5 -28.5q33 94 88.5 175t120 138.5t127 88.5t109.5 31q38 0 60.5 -22t22.5 -64q0 -36 -29 -85q33 -28 50 -80t17 -116q0 -120 -36 -226.5t-95 -183.5t-128.5 -119.5t-133.5 -42.5q-54 0 -95.5 20t-67.5 55.5t-38.5 84t-12.5 104.5
q0 57 10.5 119.5t27.5 113.5q-65 6 -109.5 27t-68.5 54t-24 73q0 30 16.5 56.5t39 37.5t40.5 11q21 0 41.5 -13.5t33.5 -40.5h-9q-21 45 -66 45q-15 0 -35 -9.5t-36 -33.5t-16 -52zM495 514l8 3q5 -20 5 -36q0 -30 -17.5 -54t-39 -33.5t-36.5 -9.5q-30 0 -49.5 17.5
t-27.5 47.5q-45 -22 -97 -36q-10 -69 -10 -157q0 -64 16 -106.5t44.5 -64.5t70.5 -22q30 0 68 13t75 46.5t70 88t53 129t20 144.5q0 57 -15.5 105t-45.5 75q-35 -57 -100 -115t-141 -96q7 -27 25 -43.5t45 -16.5q17 0 35.5 11t33 31.5t14.5 46.5q0 12 -4 32zM613 758
q0 36 -20 56.5t-57 21t-84 -27.5q-24 -14 -52.5 -41t-58 -71t-56.5 -112.5t-42 -161.5q53 15 93 35q-3 15 -3 34q0 55 24 105.5t60.5 80t81.5 29.5q51 0 88 -28q26 47 26 80zM342 489l2 -28q75 37 139 94.5t98 113.5q-15 12 -36.5 19.5t-44.5 7.5q-43 0 -78 -28t-57.5 -76.5
t-22.5 -102.5zM657 997h9q-22 -45 -55 -71.5t-63 -26.5q-23 0 -60.5 27.5t-60.5 27.5q-28 0 -45.5 -11t-33.5 -32h-9q34 49 69.5 70.5t65.5 21.5q24 0 60.5 -25t59.5 -25q22 0 34.5 8.5t28.5 35.5z" />
    <glyph glyph-name="Odieresis" unicode="&#xd6;" horiz-adv-x="630" 
d="M-102 557q0 -30 19 -62.5t65.5 -55t111.5 -28.5q33 94 88.5 175t120 138.5t127 88.5t109.5 31q38 0 60.5 -22t22.5 -64q0 -36 -29 -85q33 -28 50 -80t17 -116q0 -120 -36 -226.5t-95 -183.5t-128.5 -119.5t-133.5 -42.5q-54 0 -95.5 20t-67.5 55.5t-38.5 84t-12.5 104.5
q0 57 10.5 119.5t27.5 113.5q-65 6 -109.5 27t-68.5 54t-24 73q0 30 16.5 56.5t39 37.5t40.5 11q21 0 41.5 -13.5t33.5 -40.5h-9q-21 45 -66 45q-15 0 -35 -9.5t-36 -33.5t-16 -52zM495 514l8 3q5 -20 5 -36q0 -30 -17.5 -54t-39 -33.5t-36.5 -9.5q-30 0 -49.5 17.5
t-27.5 47.5q-45 -22 -97 -36q-10 -69 -10 -157q0 -64 16 -106.5t44.5 -64.5t70.5 -22q30 0 68 13t75 46.5t70 88t53 129t20 144.5q0 57 -15.5 105t-45.5 75q-35 -57 -100 -115t-141 -96q7 -27 25 -43.5t45 -16.5q17 0 35.5 11t33 31.5t14.5 46.5q0 12 -4 32zM613 758
q0 36 -20 56.5t-57 21t-84 -27.5q-24 -14 -52.5 -41t-58 -71t-56.5 -112.5t-42 -161.5q53 15 93 35q-3 15 -3 34q0 55 24 105.5t60.5 80t81.5 29.5q51 0 88 -28q26 47 26 80zM342 489l2 -28q75 37 139 94.5t98 113.5q-15 12 -36.5 19.5t-44.5 7.5q-43 0 -78 -28t-57.5 -76.5
t-22.5 -102.5zM455 984q14 0 23.5 -12.5t9.5 -26.5q0 -18 -12 -32t-29 -14q-15 0 -25 10.5t-10 26.5q0 19 11.5 33.5t31.5 14.5zM577 984q14 0 23.5 -12.5t9.5 -26.5q0 -18 -12 -32t-29 -14q-15 0 -25 10.5t-10 26.5q0 18 12 33t31 15z" />
    <glyph glyph-name="Oslash" unicode="&#xd8;" horiz-adv-x="630" 
d="M204 -151l-10 1l24 60q-83 16 -124 85.5t-41 173.5q0 57 10.5 119.5t27.5 113.5q-65 6 -109.5 27t-68.5 54t-24 73q0 30 16.5 56.5t39 37.5t40.5 11q21 0 41.5 -13.5t33.5 -40.5h-9q-21 45 -66 45q-15 0 -35 -9.5t-36 -33.5t-16 -52q0 -30 19 -62.5t65.5 -55t111.5 -28.5
q33 94 88.5 175t120 138.5t127 88.5t109.5 31q37 0 57 -19l34 81l9 -2l-36 -86q19 -22 19 -60q0 -36 -29 -85q33 -28 50 -80t17 -116q0 -120 -36 -226.5t-95 -183.5t-128.5 -119.5t-133.5 -42.5q-21 0 -39 3zM495 514l8 3q5 -20 5 -36q0 -37 -25.5 -64.5t-57.5 -32.5
l-126 -304q28 -17 63 -17q30 0 68 13t75 46.5t70 88t53 129t20 144.5q0 57 -15.5 105t-45.5 75q-35 -55 -91 -107l-67 -163q26 6 48 32t22 56q0 12 -4 32zM592 815q-19 19 -53 19.5t-74.5 -20.5t-85 -69t-82 -130.5t-54.5 -192.5q53 15 93 35q-3 15 -3 34q0 55 24 105.5
t60.5 80t81.5 29.5q24 0 45 -6zM231 256q0 -58 15 -103t45 -68l123 299q-30 0 -49.5 18t-26.5 47q-45 -22 -97 -36q-10 -69 -10 -157zM342 489l2 -28q76 37 142 97l54 132q-24 6 -40 6q-43 0 -78 -28t-57.5 -76.5t-22.5 -102.5zM346 453q7 -27 25 -43.5t45 -16.5h2l61 149
q-62 -54 -133 -89zM613 758q0 30 -14 49l-46 -111q15 -5 34 -18q26 47 26 80zM581 669q-5 4 -15.5 10t-16.5 8l-47 -114q50 47 79 96z" />
    <glyph glyph-name="Ugrave" unicode="&#xd9;" horiz-adv-x="850" 
d="M866 84l10 -3q-12 -51 -39.5 -89.5t-67 -62.5t-82.5 -24q-34 0 -64.5 17.5t-48 52t-17.5 83.5q0 23 3 48q-29 -63 -68 -110t-85.5 -73t-83.5 -26q-41 0 -69.5 19t-43 54t-14.5 80q0 76 46.5 225t57 199t10.5 84q0 69 -21 119.5t-55.5 77t-80.5 26.5q-48 0 -80 -22.5
t-43.5 -51t-11.5 -49.5q0 -22 12 -41.5t31.5 -28t37.5 -8.5q10 0 22 3v-9q-10 -3 -21 -3q-25 0 -48 13t-37.5 43.5t-14.5 69.5q0 41 16.5 84t49.5 79.5t83.5 58.5t113.5 22q46 0 91 -17t82.5 -52t59.5 -90t22 -126q0 -63 -26 -138.5t-109 -212t-103.5 -189.5t-24.5 -81.5
t-4 -46.5q0 -78 76 -78q36 0 79.5 26t84.5 76.5t74 126.5q13 72 54.5 208.5t56.5 190t21.5 93t6.5 59.5q0 17 -3 30q11 7 26 10.5t43.5 4.5t40.5 3q13 2 19.5 7.5t6.5 23.5q0 26 -6 68l8 1q7 -47 7 -80q0 -41 -8.5 -100.5t-28 -130t-77.5 -253t-58 -272.5q0 -38 14 -58
t36 -20q35 0 81 45t61 115zM550 990l67 26q-8 -30 -8 -53q0 -45 27 -76.5t92 -46.5v-9q-77 13 -127 54t-51 105z" />
    <glyph glyph-name="Uacute" unicode="&#xda;" horiz-adv-x="850" 
d="M866 84l10 -3q-12 -51 -39.5 -89.5t-67 -62.5t-82.5 -24q-34 0 -64.5 17.5t-48 52t-17.5 83.5q0 23 3 48q-29 -63 -68 -110t-85.5 -73t-83.5 -26q-41 0 -69.5 19t-43 54t-14.5 80q0 76 46.5 225t57 199t10.5 84q0 69 -21 119.5t-55.5 77t-80.5 26.5q-48 0 -80 -22.5
t-43.5 -51t-11.5 -49.5q0 -22 12 -41.5t31.5 -28t37.5 -8.5q10 0 22 3v-9q-10 -3 -21 -3q-25 0 -48 13t-37.5 43.5t-14.5 69.5q0 41 16.5 84t49.5 79.5t83.5 58.5t113.5 22q46 0 91 -17t82.5 -52t59.5 -90t22 -126q0 -63 -26 -138.5t-109 -212t-103.5 -189.5t-24.5 -81.5
t-4 -46.5q0 -78 76 -78q36 0 79.5 26t84.5 76.5t74 126.5q13 72 54.5 208.5t56.5 190t21.5 93t6.5 59.5q0 17 -3 30q11 7 26 10.5t43.5 4.5t40.5 3q13 2 19.5 7.5t6.5 23.5q0 26 -6 68l8 1q7 -47 7 -80q0 -41 -8.5 -100.5t-28 -130t-77.5 -253t-58 -272.5q0 -38 14 -58
t36 -20q35 0 81 45t61 115zM670 1001l67 -26q-1 -64 -51 -105t-127 -54v9q65 15 92 46.5t27 76.5q0 23 -8 53z" />
    <glyph glyph-name="Ucircumflex" unicode="&#xdb;" horiz-adv-x="850" 
d="M866 84l10 -3q-12 -51 -39.5 -89.5t-67 -62.5t-82.5 -24q-34 0 -64.5 17.5t-48 52t-17.5 83.5q0 23 3 48q-29 -63 -68 -110t-85.5 -73t-83.5 -26q-41 0 -69.5 19t-43 54t-14.5 80q0 76 46.5 225t57 199t10.5 84q0 69 -21 119.5t-55.5 77t-80.5 26.5q-48 0 -80 -22.5
t-43.5 -51t-11.5 -49.5q0 -22 12 -41.5t31.5 -28t37.5 -8.5q10 0 22 3v-9q-10 -3 -21 -3q-25 0 -48 13t-37.5 43.5t-14.5 69.5q0 41 16.5 84t49.5 79.5t83.5 58.5t113.5 22q46 0 91 -17t82.5 -52t59.5 -90t22 -126q0 -63 -26 -138.5t-109 -212t-103.5 -189.5t-24.5 -81.5
t-4 -46.5q0 -78 76 -78q36 0 79.5 26t84.5 76.5t74 126.5q13 72 54.5 208.5t56.5 190t21.5 93t6.5 59.5q0 17 -3 30q11 7 26 10.5t43.5 4.5t40.5 3q13 2 19.5 7.5t6.5 23.5q0 26 -6 68l8 1q7 -47 7 -80q0 -41 -8.5 -100.5t-28 -130t-77.5 -253t-58 -272.5q0 -38 14 -58
t36 -20q35 0 81 45t61 115zM787 851q-28 -14 -54 -14q-35 0 -58.5 21.5t-23.5 56.5q0 27 12 57l-124 -132l-8 1l162 173h11q-11 -31 -11 -58q0 -30 13.5 -55t36 -36.5t44.5 -13.5z" />
    <glyph glyph-name="Udieresis" unicode="&#xdc;" horiz-adv-x="850" 
d="M866 84l10 -3q-12 -51 -39.5 -89.5t-67 -62.5t-82.5 -24q-34 0 -64.5 17.5t-48 52t-17.5 83.5q0 23 3 48q-29 -63 -68 -110t-85.5 -73t-83.5 -26q-41 0 -69.5 19t-43 54t-14.5 80q0 76 46.5 225t57 199t10.5 84q0 69 -21 119.5t-55.5 77t-80.5 26.5q-48 0 -80 -22.5
t-43.5 -51t-11.5 -49.5q0 -22 12 -41.5t31.5 -28t37.5 -8.5q10 0 22 3v-9q-10 -3 -21 -3q-25 0 -48 13t-37.5 43.5t-14.5 69.5q0 41 16.5 84t49.5 79.5t83.5 58.5t113.5 22q46 0 91 -17t82.5 -52t59.5 -90t22 -126q0 -63 -26 -138.5t-109 -212t-103.5 -189.5t-24.5 -81.5
t-4 -46.5q0 -78 76 -78q36 0 79.5 26t84.5 76.5t74 126.5q13 72 54.5 208.5t56.5 190t21.5 93t6.5 59.5q0 17 -3 30q11 7 26 10.5t43.5 4.5t40.5 3q13 2 19.5 7.5t6.5 23.5q0 26 -6 68l8 1q7 -47 7 -80q0 -41 -8.5 -100.5t-28 -130t-77.5 -253t-58 -272.5q0 -38 14 -58
t36 -20q35 0 81 45t61 115zM599 902q14 0 23.5 -12.5t9.5 -26.5q0 -18 -12 -32t-29 -14q-15 0 -25 10.5t-10 26.5q0 19 11.5 33.5t31.5 14.5zM721 902q14 0 23.5 -12.5t9.5 -26.5q0 -18 -12 -32t-29 -14q-15 0 -25 10.5t-10 26.5q0 18 12 33t31 15z" />
    <glyph glyph-name="Yacute" unicode="&#xdd;" horiz-adv-x="952" 
d="M167 583v-9q-10 -3 -21 -3q-25 0 -48 13t-37.5 43.5t-14.5 69.5q0 41 16.5 84t49.5 79.5t83.5 58.5t113.5 22q46 0 91 -17t82.5 -52t59.5 -90t22 -126q0 -63 -26 -138.5t-109 -212t-103.5 -189.5t-24.5 -81.5t-4 -46.5q0 -78 76 -78q28 0 76 23t103 77.5t100 128.5
q12 26 49.5 107.5t64.5 138t50.5 101.5t47 85.5t48.5 78.5q56 83 112 136t116 82t127 35l7 1l-5 -11q-90 -11 -159.5 -73.5t-122 -182.5t-109 -349.5t-62.5 -252.5q-33 -128 -70.5 -237t-83.5 -201.5t-103.5 -165.5t-130 -129t-165.5 -91t-204 -45q-30 -3 -59 -3
q-65 0 -116.5 11.5t-89 27.5t-84.5 46.5t-99.5 95.5t-81.5 148t-29 153q0 63 18.5 121t52.5 102t79 69t95 25q61 0 112 -28v-9q-53 27 -110 27q-47 0 -90 -23.5t-75.5 -66t-51 -99t-18.5 -118.5q0 -93 36 -152.5t105.5 -89t170.5 -29.5q75 0 152 16.5t156.5 58.5t156.5 115
t156 190t173 311q-37 -49 -80 -86t-90 -59.5t-79 -22.5q-41 0 -69.5 19t-43 54t-14.5 80q0 76 46.5 225t57 199t10.5 84q0 69 -21 119.5t-55.5 77t-80.5 26.5q-48 0 -80 -22.5t-43.5 -51t-11.5 -49.5q0 -22 12 -41.5t31.5 -28t37.5 -8.5q10 0 22 3zM830 1061l67 -26
q-1 -64 -51 -105t-127 -54v9q65 15 92 46.5t27 76.5q0 23 -8 53z" />
    <glyph glyph-name="Thorn" unicode="&#xde;" horiz-adv-x="1112" 
d="M728 68q-63 0 -105 26l-8 -51q-6 -25 -20 -55.5t-40.5 -59t-66 -54t-92.5 -40.5t-105 -15q-51 0 -98 14.5t-83.5 44t-58 74.5t-21.5 103q0 29 10 59.5t28.5 53.5t46 38.5t60.5 19.5q-16 39 -16 91q0 94 44.5 168t116.5 123.5t163 76t183 26.5q66 230 117 326l9 2
q-76 -158 -112 -328q58 -1 125.5 -16t130 -52t97 -87t45.5 -96t11 -85q0 -56 -24 -111.5t-70.5 -99.5t-115 -70t-151.5 -26zM269 215v-8q-35 12 -67 12l-12 -1q20 -41 55.5 -65t79.5 -24t79 30t35 80q0 18 -10 38l9 -1q10 -20 10 -38q0 -55 -37 -87t-87 -32q-48 0 -86 27
t-59 71q-50 -5 -83 -34t-44.5 -64.5t-11.5 -62.5q0 -33 11.5 -64.5t34.5 -56.5t59 -39.5t83 -14.5q40 0 80.5 21.5t86 79t92.5 166.5q2 5 8.5 21t24.5 63t45 133t59.5 201t33.5 119q-24 4 -56 4q-107 0 -210.5 -50t-163.5 -135t-60 -185q0 -50 17 -92l16 1q34 0 68 -13z
M915 377q0 85 -28 147.5t-81.5 103.5t-131.5 55q-17 -82 -25.5 -170.5t-13 -221.5t-10.5 -184q35 -23 83 -23q44 0 82.5 24.5t66.5 66.5t43 95t15 107z" />
    <glyph glyph-name="germandbls" unicode="&#xdf;" horiz-adv-x="678" 
d="M42 293l3 9h77l34 149q21 93 54 162t82 108.5t119 39.5q37 0 69 -12.5t50 -36t18 -59.5q0 -30 -15 -56.5t-59.5 -65t-54.5 -48.5t-18 -22t-14 -27.5t-6 -35.5q0 -21 15.5 -37.5t34 -28t77.5 -41.5t80.5 -46t35 -30t23.5 -33.5t10 -44.5q0 -56 -27 -97.5t-75.5 -66.5
t-111.5 -25q-45 0 -88 16t-66.5 49.5t-23.5 75.5q0 28 13.5 51.5t37 39t49.5 15.5q23 0 36 -8l1 -10q-15 9 -35 9q-23 0 -47 -15t-34.5 -38t-10.5 -44q0 -40 20 -68.5t57 -44.5t83 -16q22 0 48 11.5t44.5 42t18.5 68.5q0 23 -12.5 48t-56 70.5t-57.5 63.5t-23 34t-18 40.5
t-9 58.5q0 15 5 33t21 38.5t52 51t48.5 44t21 25.5t14.5 28t6 36q0 17 -7.5 35.5t-26 30.5t-40.5 12q-66 0 -107 -78t-84 -273l-133 -598q-34 15 -68 15q-23 0 -42 -14t-25 -41l-8 -35h-8l131 586h-78z" />
    <glyph glyph-name="agrave" unicode="&#xe0;" horiz-adv-x="575" 
d="M314 498q44 0 74.5 -25t43.5 -74l17 77q36 -18 61 -18q28 0 65 14l8 38h8q-8 -41 -61.5 -267.5t-53.5 -242.5q0 -14 4.5 -24.5t24.5 -10.5q25 0 54.5 41t34.5 98h9q-8 -74 -47 -117t-99 -43q-28 0 -52 10t-35.5 29t-13.5 38q-62 -73 -150 -73q-55 0 -93 22.5t-59 65
t-21 104.5q0 28 8 76t37 108t68 98t81 57t87 19zM355 32q-2 29 33.5 179t40.5 173q-13 48 -39 74.5t-61 26.5q-14 0 -33 -10.5t-39.5 -37.5t-39.5 -70.5t-32 -103.5t-13 -115q0 -74 25 -119t75 -45q45 0 83 48zM229 708l67 26q-8 -30 -8 -53q0 -45 27 -76.5t92 -46.5v-9
q-77 13 -127 54t-51 105z" />
    <glyph glyph-name="aacute" unicode="&#xe1;" horiz-adv-x="575" 
d="M314 498q44 0 74.5 -25t43.5 -74l17 77q36 -18 61 -18q28 0 65 14l8 38h8q-8 -41 -61.5 -267.5t-53.5 -242.5q0 -14 4.5 -24.5t24.5 -10.5q25 0 54.5 41t34.5 98h9q-8 -74 -47 -117t-99 -43q-28 0 -52 10t-35.5 29t-13.5 38q-62 -73 -150 -73q-55 0 -93 22.5t-59 65
t-21 104.5q0 28 8 76t37 108t68 98t81 57t87 19zM355 32q-2 29 33.5 179t40.5 173q-13 48 -39 74.5t-61 26.5q-14 0 -33 -10.5t-39.5 -37.5t-39.5 -70.5t-32 -103.5t-13 -115q0 -74 25 -119t75 -45q45 0 83 48zM393 734l67 -26q-1 -64 -51 -105t-127 -54v9q65 15 92 46.5
t27 76.5q0 23 -8 53z" />
    <glyph glyph-name="acircumflex" unicode="&#xe2;" horiz-adv-x="575" 
d="M314 498q44 0 74.5 -25t43.5 -74l17 77q36 -18 61 -18q28 0 65 14l8 38h8q-8 -41 -61.5 -267.5t-53.5 -242.5q0 -14 4.5 -24.5t24.5 -10.5q25 0 54.5 41t34.5 98h9q-8 -74 -47 -117t-99 -43q-28 0 -52 10t-35.5 29t-13.5 38q-62 -73 -150 -73q-55 0 -93 22.5t-59 65
t-21 104.5q0 28 8 76t37 108t68 98t81 57t87 19zM355 32q-2 29 33.5 179t40.5 173q-13 48 -39 74.5t-61 26.5q-14 0 -33 -10.5t-39.5 -37.5t-39.5 -70.5t-32 -103.5t-13 -115q0 -74 25 -119t75 -45q45 0 83 48zM487 566q-28 -14 -54 -14q-35 0 -58.5 21.5t-23.5 56.5
q0 27 12 57l-124 -132l-8 1l162 173h11q-11 -31 -11 -58q0 -30 13.5 -55t36 -36.5t44.5 -13.5z" />
    <glyph glyph-name="atilde" unicode="&#xe3;" horiz-adv-x="575" 
d="M314 498q44 0 74.5 -25t43.5 -74l17 77q36 -18 61 -18q28 0 65 14l8 38h8q-8 -41 -61.5 -267.5t-53.5 -242.5q0 -14 4.5 -24.5t24.5 -10.5q25 0 54.5 41t34.5 98h9q-8 -74 -47 -117t-99 -43q-28 0 -52 10t-35.5 29t-13.5 38q-62 -73 -150 -73q-55 0 -93 22.5t-59 65
t-21 104.5q0 28 8 76t37 108t68 98t81 57t87 19zM355 32q-2 29 33.5 179t40.5 173q-13 48 -39 74.5t-61 26.5q-14 0 -33 -10.5t-39.5 -37.5t-39.5 -70.5t-32 -103.5t-13 -115q0 -74 25 -119t75 -45q45 0 83 48zM521 650h9q-22 -45 -55 -71.5t-63 -26.5q-23 0 -60.5 27.5
t-60.5 27.5q-28 0 -45.5 -11t-33.5 -32h-9q34 49 69.5 70.5t65.5 21.5q24 0 60.5 -25t59.5 -25q22 0 34.5 8.5t28.5 35.5z" />
    <glyph glyph-name="adieresis" unicode="&#xe4;" horiz-adv-x="575" 
d="M329 647q14 0 23.5 -12.5t9.5 -26.5q0 -18 -12 -32t-29 -14q-15 0 -25 10.5t-10 26.5q0 19 11.5 33.5t31.5 14.5zM451 647q14 0 23.5 -12.5t9.5 -26.5q0 -18 -12 -32t-29 -14q-15 0 -25 10.5t-10 26.5q0 18 12 33t31 15zM314 498q44 0 74.5 -25t43.5 -74l17 77
q36 -18 61 -18q28 0 65 14l8 38h8q-8 -41 -61.5 -267.5t-53.5 -242.5q0 -14 4.5 -24.5t24.5 -10.5q25 0 54.5 41t34.5 98h9q-8 -74 -47 -117t-99 -43q-28 0 -52 10t-35.5 29t-13.5 38q-62 -73 -150 -73q-55 0 -93 22.5t-59 65t-21 104.5q0 28 8 76t37 108t68 98t81 57t87 19
zM355 32q-2 29 33.5 179t40.5 173q-13 48 -39 74.5t-61 26.5q-14 0 -33 -10.5t-39.5 -37.5t-39.5 -70.5t-32 -103.5t-13 -115q0 -74 25 -119t75 -45q45 0 83 48z" />
    <glyph glyph-name="aring" unicode="&#xe5;" horiz-adv-x="575" 
d="M314 498q44 0 74.5 -25t43.5 -74l17 77q36 -18 61 -18q28 0 65 14l8 38h8q-8 -41 -61.5 -267.5t-53.5 -242.5q0 -14 4.5 -24.5t24.5 -10.5q25 0 54.5 41t34.5 98h9q-8 -74 -47 -117t-99 -43q-28 0 -52 10t-35.5 29t-13.5 38q-62 -73 -150 -73q-55 0 -93 22.5t-59 65
t-21 104.5q0 28 8 76t37 108t68 98t81 57t87 19zM355 32q-2 29 33.5 179t40.5 173q-13 48 -39 74.5t-61 26.5q-14 0 -33 -10.5t-39.5 -37.5t-39.5 -70.5t-32 -103.5t-13 -115q0 -74 25 -119t75 -45q45 0 83 48zM290 602q0 18 8.5 37.5t28.5 31t41 11.5q24 0 40.5 -13.5
t16.5 -38.5q0 -14 -9 -33t-30 -33t-43 -14q-23 0 -38 15t-15 37zM381 670q-19 0 -35.5 -18t-16.5 -46q0 -39 34 -39q19 0 35.5 20.5t16.5 42.5q0 18 -10.5 29t-23.5 11z" />
    <glyph glyph-name="ae" unicode="&#xe6;" horiz-adv-x="811" 
d="M510 458q23 0 73 17.5t76 20.5t43 3q39 0 67.5 -16.5t43 -44t14.5 -65.5q0 -31 -20 -66.5t-58.5 -67.5t-96 -55.5t-127.5 -31.5q2 -33 13 -72t40 -66t73 -27q47 0 84 30.5t66 102.5h8q-35 -90 -96 -131t-147 -41q-66 0 -109.5 36t-60.5 95q-39 -67 -85 -99t-105 -32
q-55 0 -93 22.5t-59 65t-21 104.5q0 28 8 76t37 108t68 98t81 57t87 19q44 0 74.5 -25t43.5 -74l17 77q36 -18 61 -18zM272 -16q30 0 59 23.5t62 80.5q-5 18 -5 59q0 80 41 237q-13 48 -38.5 74.5t-60.5 26.5q-14 0 -33.5 -10.5t-39.5 -37.5t-39.5 -70.5t-32.5 -103.5
t-13 -115q0 -74 25 -119t75 -45zM722 487q-37 0 -73 -21.5t-63.5 -68t-44 -109.5t-16.5 -127q52 6 105 23.5t94.5 47.5t67.5 68t26 74q0 28 -10.5 54t-34.5 42.5t-51 16.5z" />
    <glyph glyph-name="ccedilla" unicode="&#xe7;" horiz-adv-x="440" 
d="M326 370q0 23 11.5 46t29.5 33.5t34 10.5q11 0 26 -5q-29 31 -83 31q-28 0 -58.5 -18t-57 -59t-44.5 -101.5t-18 -130.5q0 -97 30 -143t83 -46q72 0 137 104l6 -5q-24 -43 -63.5 -77.5t-79 -48t-68.5 -13.5q-6 -19 -16 -35q22 -11 35 -35.5t13 -52.5t-13.5 -52t-36.5 -34
t-45 -10t-44.5 8t-35 26.5t-12.5 37.5q0 17 8.5 28.5t22.5 11.5q13 0 23 -10l-1 -9q-11 9 -22 9q-7 0 -12.5 -5.5t-5.5 -12.5q0 -12 14.5 -20.5t45.5 -8.5q32 0 56.5 23t24.5 62q0 13 -6 22t-15 13q-18 -23 -39 -23q-10 0 -16 5.5t-6 12.5q0 9 10 15t23 6q14 0 25 -4
q9 13 15 32q-78 2 -123 51t-45 148q0 43 13.5 98.5t42.5 103.5t63.5 80t78.5 50.5t92 18.5t81 -16.5t50.5 -43t17.5 -51.5t-12.5 -47.5t-31 -32t-34.5 -9.5q-28 0 -48 20t-20 52zM150 -109q16 0 30 17q-7 2 -20 2q-22 0 -22 -11q0 -8 12 -8z" />
    <glyph glyph-name="egrave" unicode="&#xe8;" horiz-adv-x="455" 
d="M349 499q56 0 86.5 -30t30.5 -76q0 -36 -19.5 -76t-57 -75t-93.5 -59.5t-124 -30.5q2 -33 13 -72t40 -66t73 -27t81 30.5t69 102.5h8q-35 -90 -96 -131t-147 -41q-39 0 -76 15.5t-62.5 51.5t-36 89.5t1.5 119.5q10 52 35.5 101.5t65 88.5t93 62t115.5 23zM360 487
q-20 0 -45 -10t-50 -36t-47 -68.5t-35 -100.5t-12 -111q67 6 121 30t90.5 58.5t55 73t18.5 72.5q0 41 -25 66.5t-71 25.5zM251 708l67 26q-8 -30 -8 -53q0 -45 27 -76.5t92 -46.5v-9q-77 13 -127 54t-51 105z" />
    <glyph glyph-name="eacute" unicode="&#xe9;" horiz-adv-x="455" 
d="M349 499q56 0 86.5 -30t30.5 -76q0 -36 -19.5 -76t-57 -75t-93.5 -59.5t-124 -30.5q2 -33 13 -72t40 -66t73 -27t81 30.5t69 102.5h8q-35 -90 -96 -131t-147 -41q-39 0 -76 15.5t-62.5 51.5t-36 89.5t1.5 119.5q10 52 35.5 101.5t65 88.5t93 62t115.5 23zM360 487
q-20 0 -45 -10t-50 -36t-47 -68.5t-35 -100.5t-12 -111q67 6 121 30t90.5 58.5t55 73t18.5 72.5q0 41 -25 66.5t-71 25.5zM383 734l67 -26q-1 -64 -51 -105t-127 -54v9q65 15 92 46.5t27 76.5q0 23 -8 53z" />
    <glyph glyph-name="ecircumflex" unicode="&#xea;" horiz-adv-x="455" 
d="M349 499q56 0 86.5 -30t30.5 -76q0 -36 -19.5 -76t-57 -75t-93.5 -59.5t-124 -30.5q2 -33 13 -72t40 -66t73 -27t81 30.5t69 102.5h8q-35 -90 -96 -131t-147 -41q-39 0 -76 15.5t-62.5 51.5t-36 89.5t1.5 119.5q10 52 35.5 101.5t65 88.5t93 62t115.5 23zM360 487
q-20 0 -45 -10t-50 -36t-47 -68.5t-35 -100.5t-12 -111q67 6 121 30t90.5 58.5t55 73t18.5 72.5q0 41 -25 66.5t-71 25.5zM461 566q-28 -14 -54 -14q-35 0 -58.5 21.5t-23.5 56.5q0 27 12 57l-124 -132l-8 1l162 173h11q-11 -31 -11 -58q0 -30 13.5 -55t36 -36.5t44.5 -13.5
z" />
    <glyph glyph-name="edieresis" unicode="&#xeb;" horiz-adv-x="455" 
d="M285 647q14 0 23.5 -12.5t9.5 -26.5q0 -18 -12 -32t-29 -14q-15 0 -25 10.5t-10 26.5q0 19 11.5 33.5t31.5 14.5zM407 647q14 0 23.5 -12.5t9.5 -26.5q0 -18 -12 -32t-29 -14q-15 0 -25 10.5t-10 26.5q0 18 12 33t31 15zM349 499q56 0 86.5 -30t30.5 -76q0 -36 -19.5 -76
t-57 -75t-93.5 -59.5t-124 -30.5q2 -33 13 -72t40 -66t73 -27t81 30.5t69 102.5h8q-35 -90 -96 -131t-147 -41q-39 0 -76 15.5t-62.5 51.5t-36 89.5t1.5 119.5q10 52 35.5 101.5t65 88.5t93 62t115.5 23zM360 487q-20 0 -45 -10t-50 -36t-47 -68.5t-35 -100.5t-12 -111
q67 6 121 30t90.5 58.5t55 73t18.5 72.5q0 41 -25 66.5t-71 25.5z" />
    <glyph glyph-name="igrave" unicode="&#xec;" horiz-adv-x="298" 
d="M270 402q0 -6 -2 -25.5t-9 -50.5t-41 -153t-34 -159q0 -26 8.5 -39t22.5 -13q15 0 38.5 21t39.5 53t19 71l9 1q-5 -38 -22 -76.5t-50 -61t-69 -22.5q-35 0 -62.5 17t-38 43t-10.5 49q0 13 2 31t8 47.5t36 149t30 165.5q0 36 -30 36q-19 0 -44 -14.5t-37 -30.5h-9
q17 25 55.5 43t83.5 18q33 0 58.5 -13t36.5 -36.5t11 -50.5zM111 709l67 26q-8 -30 -8 -53q0 -45 27 -76.5t92 -46.5v-9q-77 13 -127 54t-51 105z" />
    <glyph glyph-name="iacute" unicode="&#xed;" horiz-adv-x="298" 
d="M270 402q0 -6 -2 -25.5t-9 -50.5t-41 -153t-34 -159q0 -26 8.5 -39t22.5 -13q15 0 38.5 21t39.5 53t19 71l9 1q-5 -38 -22 -76.5t-50 -61t-69 -22.5q-35 0 -62.5 17t-38 43t-10.5 49q0 13 2 31t8 47.5t36 149t30 165.5q0 36 -30 36q-19 0 -44 -14.5t-37 -30.5h-9
q17 25 55.5 43t83.5 18q33 0 58.5 -13t36.5 -36.5t11 -50.5zM220 734l67 -26q-1 -64 -51 -105t-127 -54v9q65 15 92 46.5t27 76.5q0 23 -8 53z" />
    <glyph glyph-name="icircumflex" unicode="&#xee;" horiz-adv-x="298" 
d="M270 402q0 -6 -2 -25.5t-9 -50.5t-41 -153t-34 -159q0 -26 8.5 -39t22.5 -13q15 0 38.5 21t39.5 53t19 71l9 1q-5 -38 -22 -76.5t-50 -61t-69 -22.5q-35 0 -62.5 17t-38 43t-10.5 49q0 13 2 31t8 47.5t36 149t30 165.5q0 36 -30 36q-19 0 -44 -14.5t-37 -30.5h-9
q17 25 55.5 43t83.5 18q33 0 58.5 -13t36.5 -36.5t11 -50.5zM331 567q-28 -14 -54 -14q-35 0 -58.5 21.5t-23.5 56.5q0 27 12 57l-124 -132l-8 1l162 173h11q-11 -31 -11 -58q0 -30 13.5 -55t36 -36.5t44.5 -13.5z" />
    <glyph glyph-name="idieresis" unicode="&#xef;" horiz-adv-x="298" 
d="M144 647q14 0 23.5 -12.5t9.5 -26.5q0 -18 -12 -32t-29 -14q-15 0 -25 10.5t-10 26.5q0 19 11.5 33.5t31.5 14.5zM266 647q14 0 23.5 -12.5t9.5 -26.5q0 -18 -12 -32t-29 -14q-15 0 -25 10.5t-10 26.5q0 18 12 33t31 15zM270 402q0 -6 -2 -25.5t-9 -50.5t-41 -153
t-34 -159q0 -26 8.5 -39t22.5 -13q15 0 38.5 21t39.5 53t19 71l9 1q-5 -38 -22 -76.5t-50 -61t-69 -22.5q-35 0 -62.5 17t-38 43t-10.5 49q0 13 2 31t8 47.5t36 149t30 165.5q0 36 -30 36q-19 0 -44 -14.5t-37 -30.5h-9q17 25 55.5 43t83.5 18q33 0 58.5 -13t36.5 -36.5
t11 -50.5z" />
    <glyph glyph-name="eth" unicode="&#xf0;" horiz-adv-x="507" 
d="M269 655l-1 8l71 35q-28 44 -63.5 67.5t-70.5 23.5q-18 0 -37 -11t-31 -36.5t-12 -53.5q0 -22 13 -51t40.5 -58t52.5 -45h-11q-59 42 -85 90t-26 91q0 23 8 47.5t27.5 45.5t50 35.5t71.5 14.5q53 0 97.5 -29.5t76.5 -80.5l71 35l1 -8l-68 -34q35 -59 54.5 -142.5
t19.5 -170.5q0 -89 -20 -175t-59.5 -155t-101 -109.5t-138.5 -40.5q-53 0 -89.5 24t-55 66t-18.5 103q0 66 23 131.5t61.5 116.5t85 80.5t89.5 29.5q40 0 73.5 -29t54.5 -87q-13 198 -79 309zM306 487q-40 0 -78.5 -19t-69.5 -52t-54.5 -74.5t-40.5 -95.5t-17 -108
q0 -57 17.5 -95.5t48.5 -60t71 -21.5q21 0 47 12t52 42.5t48.5 80t37 116t14.5 126.5q0 64 -19.5 106.5t-56.5 42.5z" />
    <glyph glyph-name="ntilde" unicode="&#xf1;" horiz-adv-x="569" 
d="M542 399q0 -33 -38 -172.5t-43.5 -171.5t-5.5 -44q0 -17 8 -30.5t27 -13.5q9 0 26.5 11t33 37t21 51t6.5 42h8q-2 -29 -11 -58t-29.5 -55.5t-48 -37.5t-50.5 -11q-4 0 -14.5 1t-32 8.5t-39.5 32.5t-18 62q0 53 28.5 166t32.5 144t4 47q0 30 -13.5 45t-34.5 15
q-25 0 -56.5 -19t-53.5 -43v-4q0 -2 -0.5 -8.5t-5 -38t-21.5 -113t-38.5 -177t-23.5 -104.5q-36 18 -61 18q-29 0 -65 -13l-8 -39h-8q5 24 44.5 199.5t50 236.5t10.5 79q0 13 -8.5 24t-31.5 11q-15 0 -34.5 -12t-34.5 -33l-9 2q41 64 135 64q43 0 73 -18.5t35 -62.5
q30 34 84 57.5t104 23.5q34 0 59.5 -13t36 -35.5t10.5 -49.5zM492 650h9q-22 -45 -55 -71.5t-63 -26.5q-23 0 -60.5 27.5t-60.5 27.5q-28 0 -45.5 -11t-33.5 -32h-9q34 49 69.5 70.5t65.5 21.5q24 0 60.5 -25t59.5 -25q22 0 34.5 8.5t28.5 35.5z" />
    <glyph glyph-name="ograve" unicode="&#xf2;" horiz-adv-x="477" 
d="M289 -5q34 0 68.5 29t62.5 76.5t44.5 103t16.5 104.5q0 56 -18 95t-49 60.5t-70 21.5q-28 0 -58.5 -18.5t-57 -60t-44.5 -102t-18 -127.5q0 -36 9 -79.5t38.5 -73t75.5 -29.5zM328 498q53 0 89.5 -24t55 -66t18.5 -103q0 -57 -20.5 -120.5t-52.5 -110t-67 -75.5
t-69.5 -40t-61.5 -11q-59 0 -99.5 25t-62.5 71.5t-22 113.5q0 58 17 111t42 92.5t59.5 70.5t79 48.5t94.5 17.5zM217 708l67 26q-8 -30 -8 -53q0 -45 27 -76.5t92 -46.5v-9q-77 13 -127 54t-51 105z" />
    <glyph glyph-name="oacute" unicode="&#xf3;" horiz-adv-x="477" 
d="M289 -5q34 0 68.5 29t62.5 76.5t44.5 103t16.5 104.5q0 56 -18 95t-49 60.5t-70 21.5q-28 0 -58.5 -18.5t-57 -60t-44.5 -102t-18 -127.5q0 -36 9 -79.5t38.5 -73t75.5 -29.5zM328 498q53 0 89.5 -24t55 -66t18.5 -103q0 -57 -20.5 -120.5t-52.5 -110t-67 -75.5
t-69.5 -40t-61.5 -11q-59 0 -99.5 25t-62.5 71.5t-22 113.5q0 58 17 111t42 92.5t59.5 70.5t79 48.5t94.5 17.5zM373 734l67 -26q-1 -64 -51 -105t-127 -54v9q65 15 92 46.5t27 76.5q0 23 -8 53z" />
    <glyph glyph-name="ocircumflex" unicode="&#xf4;" horiz-adv-x="477" 
d="M289 -5q34 0 68.5 29t62.5 76.5t44.5 103t16.5 104.5q0 56 -18 95t-49 60.5t-70 21.5q-28 0 -58.5 -18.5t-57 -60t-44.5 -102t-18 -127.5q0 -36 9 -79.5t38.5 -73t75.5 -29.5zM328 498q53 0 89.5 -24t55 -66t18.5 -103q0 -57 -20.5 -120.5t-52.5 -110t-67 -75.5
t-69.5 -40t-61.5 -11q-59 0 -99.5 25t-62.5 71.5t-22 113.5q0 58 17 111t42 92.5t59.5 70.5t79 48.5t94.5 17.5zM462 566q-28 -14 -54 -14q-35 0 -58.5 21.5t-23.5 56.5q0 27 12 57l-124 -132l-8 1l162 173h11q-11 -31 -11 -58q0 -30 13.5 -55t36 -36.5t44.5 -13.5z" />
    <glyph glyph-name="otilde" unicode="&#xf5;" horiz-adv-x="477" 
d="M289 -5q34 0 68.5 29t62.5 76.5t44.5 103t16.5 104.5q0 56 -18 95t-49 60.5t-70 21.5q-28 0 -58.5 -18.5t-57 -60t-44.5 -102t-18 -127.5q0 -36 9 -79.5t38.5 -73t75.5 -29.5zM328 498q53 0 89.5 -24t55 -66t18.5 -103q0 -57 -20.5 -120.5t-52.5 -110t-67 -75.5
t-69.5 -40t-61.5 -11q-59 0 -99.5 25t-62.5 71.5t-22 113.5q0 58 17 111t42 92.5t59.5 70.5t79 48.5t94.5 17.5zM477 650h9q-22 -45 -55 -71.5t-63 -26.5q-23 0 -60.5 27.5t-60.5 27.5q-28 0 -45.5 -11t-33.5 -32h-9q34 49 69.5 70.5t65.5 21.5q24 0 60.5 -25t59.5 -25
q22 0 34.5 8.5t28.5 35.5z" />
    <glyph glyph-name="odieresis" unicode="&#xf6;" horiz-adv-x="477" 
d="M278 647q14 0 23.5 -12.5t9.5 -26.5q0 -18 -12 -32t-29 -14q-15 0 -25 10.5t-10 26.5q0 19 11.5 33.5t31.5 14.5zM400 647q14 0 23.5 -12.5t9.5 -26.5q0 -18 -12 -32t-29 -14q-15 0 -25 10.5t-10 26.5q0 18 12 33t31 15zM289 -5q34 0 68.5 29t62.5 76.5t44.5 103
t16.5 104.5q0 56 -18 95t-49 60.5t-70 21.5q-28 0 -58.5 -18.5t-57 -60t-44.5 -102t-18 -127.5q0 -36 9 -79.5t38.5 -73t75.5 -29.5zM328 498q53 0 89.5 -24t55 -66t18.5 -103q0 -57 -20.5 -120.5t-52.5 -110t-67 -75.5t-69.5 -40t-61.5 -11q-59 0 -99.5 25t-62.5 71.5
t-22 113.5q0 58 17 111t42 92.5t59.5 70.5t79 48.5t94.5 17.5z" />
    <glyph glyph-name="divide" unicode="&#xf7;" horiz-adv-x="672" 
d="M41 290l3 10h78l34 151q21 93 54 162t82 108.5t119 39.5q37 0 66.5 -17.5t40.5 -40.5t11 -42v-2q73 169 211 169q37 0 66.5 -17.5t40.5 -40.5t11 -42q0 -24 -9 -50l-10 2q9 27 9 50q0 24 -17.5 44.5t-40.5 20.5q-42 0 -71 -26t-55.5 -95t-61.5 -227l-33 -147h91l-3 -10
h-90l-114 -512q-36 18 -61 18q-28 0 -65 -14l-16 -75h-8l131 583h-181l-114 -512q-36 18 -61 18q-28 0 -65 -14l-16 -75h-8l131 583h-79zM273 380l-18 -80h181l49 218q14 62 26 95h-1q9 27 9 50q0 24 -17.5 44.5t-40.5 20.5q-42 0 -71 -26t-55.5 -95t-61.5 -227z" />
    <glyph glyph-name="oslash" unicode="&#xf8;" horiz-adv-x="477" 
d="M154 -145l-10 1l39 95q-28 5 -55.5 18.5t-50.5 43t-32 70t-9 75.5q0 58 17 111t42 92.5t59.5 70.5t79 48.5t94.5 17.5q44 0 77 -17l48 114l9 -2l-49 -117q36 -21 57 -64.5t21 -106.5q0 -57 -20.5 -120.5t-52.5 -110t-67 -75.5t-69.5 -40t-61.5 -11l-27 2zM289 -5
q34 0 68.5 29t62.5 76.5t44.5 103t16.5 104.5q0 59 -20 99t-52 59l-188 -450q27 -21 68 -21zM166 177q0 -107 48 -154l187 448q-30 14 -57 14q-28 0 -58.5 -18.5t-57 -60t-44.5 -102t-18 -127.5z" />
    <glyph glyph-name="ugrave" unicode="&#xf9;" horiz-adv-x="572" 
d="M61 46q0 11 5.5 43.5t44.5 175.5t39 172q0 17 -6 27.5t-26 10.5q-16 0 -39.5 -19t-36.5 -51.5t-16 -67.5h-8q3 39 16 69t33.5 50.5t46 30t48.5 9.5q31 0 56.5 -13.5t36.5 -36.5t11 -49q0 -3 -0.5 -11t-4 -32t-23 -100.5t-27 -108t-11.5 -59t-4 -48.5q0 -30 13.5 -45
t34.5 -15q27 0 60 19.5t54 44.5v9q0 13 7 54t21 109t35 160t23 103q36 -18 61 -18q29 0 65 13l8 39h8q-1 -6 -53.5 -235.5t-52.5 -271.5q0 -13 8.5 -24t31.5 -11q30 0 61.5 36t36.5 102h9q-16 -159 -164 -159q-28 0 -53 12.5t-37 33t-14 40.5q-13 -17 -41 -37t-70.5 -34.5
t-80.5 -14.5q-34 0 -59.5 13t-36 35.5t-10.5 49.5zM226 708l67 26q-8 -30 -8 -53q0 -45 27 -76.5t92 -46.5v-9q-77 13 -127 54t-51 105z" />
    <glyph glyph-name="uacute" unicode="&#xfa;" horiz-adv-x="572" 
d="M61 46q0 11 5.5 43.5t44.5 175.5t39 172q0 17 -6 27.5t-26 10.5q-16 0 -39.5 -19t-36.5 -51.5t-16 -67.5h-8q3 39 16 69t33.5 50.5t46 30t48.5 9.5q31 0 56.5 -13.5t36.5 -36.5t11 -49q0 -3 -0.5 -11t-4 -32t-23 -100.5t-27 -108t-11.5 -59t-4 -48.5q0 -30 13.5 -45
t34.5 -15q27 0 60 19.5t54 44.5v9q0 13 7 54t21 109t35 160t23 103q36 -18 61 -18q29 0 65 13l8 39h8q-1 -6 -53.5 -235.5t-52.5 -271.5q0 -13 8.5 -24t31.5 -11q30 0 61.5 36t36.5 102h9q-16 -159 -164 -159q-28 0 -53 12.5t-37 33t-14 40.5q-13 -17 -41 -37t-70.5 -34.5
t-80.5 -14.5q-34 0 -59.5 13t-36 35.5t-10.5 49.5zM425 734l67 -26q-1 -64 -51 -105t-127 -54v9q65 15 92 46.5t27 76.5q0 23 -8 53z" />
    <glyph glyph-name="ucircumflex" unicode="&#xfb;" horiz-adv-x="572" 
d="M61 46q0 11 5.5 43.5t44.5 175.5t39 172q0 17 -6 27.5t-26 10.5q-16 0 -39.5 -19t-36.5 -51.5t-16 -67.5h-8q3 39 16 69t33.5 50.5t46 30t48.5 9.5q31 0 56.5 -13.5t36.5 -36.5t11 -49q0 -3 -0.5 -11t-4 -32t-23 -100.5t-27 -108t-11.5 -59t-4 -48.5q0 -30 13.5 -45
t34.5 -15q27 0 60 19.5t54 44.5v9q0 13 7 54t21 109t35 160t23 103q36 -18 61 -18q29 0 65 13l8 39h8q-1 -6 -53.5 -235.5t-52.5 -271.5q0 -13 8.5 -24t31.5 -11q30 0 61.5 36t36.5 102h9q-16 -159 -164 -159q-28 0 -53 12.5t-37 33t-14 40.5q-13 -17 -41 -37t-70.5 -34.5
t-80.5 -14.5q-34 0 -59.5 13t-36 35.5t-10.5 49.5zM505 566q-28 -14 -54 -14q-35 0 -58.5 21.5t-23.5 56.5q0 27 12 57l-124 -132l-8 1l162 173h11q-11 -31 -11 -58q0 -30 13.5 -55t36 -36.5t44.5 -13.5z" />
    <glyph glyph-name="udieresis" unicode="&#xfc;" horiz-adv-x="572" 
d="M61 46q0 11 5.5 43.5t44.5 175.5t39 172q0 17 -6 27.5t-26 10.5q-16 0 -39.5 -19t-36.5 -51.5t-16 -67.5h-8q3 39 16 69t33.5 50.5t46 30t48.5 9.5q31 0 56.5 -13.5t36.5 -36.5t11 -49q0 -3 -0.5 -11t-4 -32t-23 -100.5t-27 -108t-11.5 -59t-4 -48.5q0 -30 13.5 -45
t34.5 -15q27 0 60 19.5t54 44.5v9q0 13 7 54t21 109t35 160t23 103q36 -18 61 -18q29 0 65 13l8 39h8q-1 -6 -53.5 -235.5t-52.5 -271.5q0 -13 8.5 -24t31.5 -11q30 0 61.5 36t36.5 102h9q-16 -159 -164 -159q-28 0 -53 12.5t-37 33t-14 40.5q-13 -17 -41 -37t-70.5 -34.5
t-80.5 -14.5q-34 0 -59.5 13t-36 35.5t-10.5 49.5zM307 647q14 0 23.5 -12.5t9.5 -26.5q0 -18 -12 -32t-29 -14q-15 0 -25 10.5t-10 26.5q0 19 11.5 33.5t31.5 14.5zM429 647q14 0 23.5 -12.5t9.5 -26.5q0 -18 -12 -32t-29 -14q-15 0 -25 10.5t-10 26.5q0 18 12 33t31 15z
" />
    <glyph glyph-name="yacute" unicode="&#xfd;" horiz-adv-x="568" 
d="M352 32l92 445q36 -18 63 -18q21 0 63 13l8 38h8l-116 -535q-22 -101 -54 -174.5t-72 -117.5t-86 -64t-98 -20q-70 0 -120 43.5t-50 102.5q0 66 43 116.5t141 86.5q-55 0 -84 25t-29 74q0 11 5.5 43.5t36 144.5t39 150.5t8.5 54.5q0 35 -30 35q-17 0 -41 -18.5t-37 -51
t-16 -68.5h-8q4 48 25 86t54 55.5t65 17.5q31 0 56.5 -13.5t36.5 -36.5t11 -49q0 -3 -0.5 -11t-4 -32t-23 -100.5t-27 -108t-11.5 -59t-4 -48.5q0 -24 11 -42t38 -18q21 0 52 15t55 39zM350 20q-58 -54 -153 -70q-100 -42 -142 -81.5t-42 -89.5q0 -15 9 -34t33.5 -34
t55.5 -15q54 0 98.5 36t80 107t60.5 181zM429 724l67 -26q-1 -64 -51 -105t-127 -54v9q65 15 92 46.5t27 76.5q0 23 -8 53z" />
    <glyph glyph-name="thorn" unicode="&#xfe;" horiz-adv-x="597" 
d="M316 674q0 -41 -47 -245q58 55 132 55q55 0 93 -22.5t59 -65t21 -104.5q0 -43 -14 -97.5t-43 -101.5t-63 -78t-76.5 -48.5t-87.5 -17.5q-40 0 -74.5 23.5t-43.5 58.5q-7 -27 -29 -115t-30.5 -130t-8.5 -59q0 -19 5.5 -31.5t23.5 -12.5q14 0 34 15.5t38 50.5t20 71l9 1
q-4 -39 -21.5 -77.5t-52 -60.5t-69.5 -22q-45 0 -74.5 26t-29.5 83q0 13 5.5 46.5t21.5 105.5t96.5 407.5t80.5 380.5q0 40 -30 40q-22 0 -47.5 -13t-36.5 -29l-5 6q21 24 59 39.5t79 15.5q50 0 78 -23.5t28 -71.5zM369 470q-19 0 -47 -13t-56 -42q-16 -71 -91 -373
q8 -30 28.5 -48t46.5 -18q30 0 59.5 20t53 54t41.5 77t31 98.5t13 111.5q0 61 -20 97t-59 36z" />
    <glyph glyph-name="ydieresis" unicode="&#xff;" horiz-adv-x="568" 
d="M317 631q14 0 23.5 -12.5t9.5 -26.5q0 -18 -12 -32t-29 -14q-15 0 -25 10.5t-10 26.5q0 19 11.5 33.5t31.5 14.5zM439 631q14 0 23.5 -12.5t9.5 -26.5q0 -18 -12 -32t-29 -14q-15 0 -25 10.5t-10 26.5q0 18 12 33t31 15zM352 32l92 445q36 -18 63 -18q21 0 63 13l8 38h8
l-116 -535q-22 -101 -54 -174.5t-72 -117.5t-86 -64t-98 -20q-70 0 -120 43.5t-50 102.5q0 66 43 116.5t141 86.5q-55 0 -84 25t-29 74q0 11 5.5 43.5t36 144.5t39 150.5t8.5 54.5q0 35 -30 35q-17 0 -41 -18.5t-37 -51t-16 -68.5h-8q4 48 25 86t54 55.5t65 17.5
q31 0 56.5 -13.5t36.5 -36.5t11 -49q0 -3 -0.5 -11t-4 -32t-23 -100.5t-27 -108t-11.5 -59t-4 -48.5q0 -24 11 -42t38 -18q21 0 52 15t55 39zM350 20q-58 -54 -153 -70q-100 -42 -142 -81.5t-42 -89.5q0 -15 9 -34t33.5 -34t55.5 -15q54 0 98.5 36t80 107t60.5 181z" />
    <glyph glyph-name="Amacron" unicode="&#x100;" horiz-adv-x="890" 
d="M195 611q-50 0 -80 -35.5t-30 -81.5q0 -33 19 -69t62 -57.5t99 -21.5q150 222 243 326t170 148.5t144 44.5l24 -1q-72 -31 -143 -152t-104 -261q48 16 81 16q58 0 88.5 -29t30.5 -69q0 -26 -13.5 -50t-33.5 -33.5t-38 -9.5q-19 0 -37 8.5t-30 23.5l1 8q10 -13 29 -22
t36 -9q15 0 33.5 8.5t31 29t12.5 45.5q0 27 -15.5 49t-42 31t-52.5 9q-30 0 -83 -17q-17 -77 -17 -145q0 -53 9 -99.5t28.5 -81.5t50.5 -54.5t72 -19.5q24 0 47.5 13t40 41.5t16.5 57.5q0 25 -18 43.5t-51 18.5q-23 0 -42 -13l-1 8q20 13 44 13q21 0 44 -12t38 -42t15 -65
q0 -31 -11.5 -62t-35 -56t-59.5 -40t-82 -15t-87.5 19.5t-72.5 55t-48 86.5t-17 110q0 101 25 196l-77 -29q-6 -16 -15.5 -44.5t-77 -230.5t-131 -337t-134 -227t-154 -155.5t-190.5 -98.5t-238 -35q-102 0 -191 30t-163 95t-118.5 166t-44.5 198q0 66 20 127t56 107t83 72
t98 26q28 0 61 -9.5t64 -30.5v-8q-28 19 -61 29t-62 10q-48 0 -93.5 -25t-80.5 -69.5t-55 -103.5t-20 -123q0 -267 364 -267q84 0 166.5 32t166 94t174.5 162q47 52 101 120t111.5 150t128.5 187.5t86 127.5q-34 1 -67 10t-59 29.5t-41.5 51t-15.5 66.5q0 51 32.5 88.5
t86.5 37.5q19 0 37 -8.5t30 -23.5l-1 -8q-11 14 -30.5 22.5t-35.5 8.5zM810 856q-72 -8 -138.5 -51.5t-129.5 -140.5t-131 -287l77 30q11 41 36 102.5t73.5 136t107.5 130.5t105 80zM636 918l2 10h215l-2 -10h-215z" />
    <glyph glyph-name="amacron" unicode="&#x101;" horiz-adv-x="580" 
d="M314 498q44 0 74.5 -25t43.5 -74l17 77q36 -18 61 -18q28 0 65 14l8 38h8q-8 -41 -61.5 -267.5t-53.5 -242.5q0 -14 4.5 -24.5t24.5 -10.5q25 0 54.5 41t34.5 98h9q-8 -74 -47 -117t-99 -43q-28 0 -52 10t-35.5 29t-13.5 38q-62 -73 -150 -73q-55 0 -93 22.5t-59 65
t-21 104.5q0 28 8 76t37 108t68 98t81 57t87 19zM355 32q-2 29 33.5 179t40.5 173q-13 48 -39 74.5t-61 26.5q-14 0 -33 -10.5t-39.5 -37.5t-39.5 -70.5t-32 -103.5t-13 -115q0 -74 25 -119t75 -45q45 0 83 48zM251 545l2 10h215l-2 -10h-215z" />
    <glyph glyph-name="Abreve" unicode="&#x102;" horiz-adv-x="890" 
d="M195 611q-50 0 -80 -35.5t-30 -81.5q0 -33 19 -69t62 -57.5t99 -21.5q150 222 243 326t170 148.5t144 44.5l24 -1q-72 -31 -143 -152t-104 -261q48 16 81 16q58 0 88.5 -29t30.5 -69q0 -26 -13.5 -50t-33.5 -33.5t-38 -9.5q-19 0 -37 8.5t-30 23.5l1 8q10 -13 29 -22
t36 -9q15 0 33.5 8.5t31 29t12.5 45.5q0 27 -15.5 49t-42 31t-52.5 9q-30 0 -83 -17q-17 -77 -17 -145q0 -53 9 -99.5t28.5 -81.5t50.5 -54.5t72 -19.5q24 0 47.5 13t40 41.5t16.5 57.5q0 25 -18 43.5t-51 18.5q-23 0 -42 -13l-1 8q20 13 44 13q21 0 44 -12t38 -42t15 -65
q0 -31 -11.5 -62t-35 -56t-59.5 -40t-82 -15t-87.5 19.5t-72.5 55t-48 86.5t-17 110q0 101 25 196l-77 -29q-6 -16 -15.5 -44.5t-77 -230.5t-131 -337t-134 -227t-154 -155.5t-190.5 -98.5t-238 -35q-102 0 -191 30t-163 95t-118.5 166t-44.5 198q0 66 20 127t56 107t83 72
t98 26q28 0 61 -9.5t64 -30.5v-8q-28 19 -61 29t-62 10q-48 0 -93.5 -25t-80.5 -69.5t-55 -103.5t-20 -123q0 -267 364 -267q84 0 166.5 32t166 94t174.5 162q47 52 101 120t111.5 150t128.5 187.5t86 127.5q-34 1 -67 10t-59 29.5t-41.5 51t-15.5 66.5q0 51 32.5 88.5
t86.5 37.5q19 0 37 -8.5t30 -23.5l-1 -8q-11 14 -30.5 22.5t-35.5 8.5zM810 856q-72 -8 -138.5 -51.5t-129.5 -140.5t-131 -287l77 30q11 41 36 102.5t73.5 136t107.5 130.5t105 80zM593 998q0 15 3 28l19 3l41 -6l19 3l-1 -22q0 -65 60 -65q25 0 52.5 14.5t42.5 35t20 37.5
h10q-4 -22 -23 -47t-57.5 -44t-78.5 -19q-46 0 -76.5 24t-30.5 58z" />
    <glyph glyph-name="abreve" unicode="&#x103;" horiz-adv-x="580" 
d="M314 498q44 0 74.5 -25t43.5 -74l17 77q36 -18 61 -18q28 0 65 14l8 38h8q-8 -41 -61.5 -267.5t-53.5 -242.5q0 -14 4.5 -24.5t24.5 -10.5q25 0 54.5 41t34.5 98h9q-8 -74 -47 -117t-99 -43q-28 0 -52 10t-35.5 29t-13.5 38q-62 -73 -150 -73q-55 0 -93 22.5t-59 65
t-21 104.5q0 28 8 76t37 108t68 98t81 57t87 19zM355 32q-2 29 33.5 179t40.5 173q-13 48 -39 74.5t-61 26.5q-14 0 -33 -10.5t-39.5 -37.5t-39.5 -70.5t-32 -103.5t-13 -115q0 -74 25 -119t75 -45q45 0 83 48zM229 632q0 15 3 28l19 3l41 -6l19 3l-1 -22q0 -65 60 -65
q25 0 52.5 14.5t42.5 35t20 37.5h10q-4 -22 -23 -47t-57.5 -44t-78.5 -19q-46 0 -76.5 24t-30.5 58z" />
    <glyph glyph-name="Aogonek" unicode="&#x104;" horiz-adv-x="890" 
d="M846 864q-72 -31 -143 -152t-104 -261q48 16 81 16q58 0 88.5 -29t30.5 -69q0 -26 -13.5 -50t-33.5 -33.5t-38 -9.5q-19 0 -37 8.5t-30 23.5l1 8q10 -13 29 -22t36 -9q15 0 33.5 8.5t31 29t12.5 45.5q0 27 -15.5 49t-42 31t-52.5 9q-30 0 -83 -17q-17 -77 -17 -145
q0 -53 9 -99.5t28.5 -81.5t50.5 -54.5t72 -19.5q24 0 47.5 13t40 41.5t16.5 57.5q0 25 -18 43.5t-51 18.5q-23 0 -42 -13l-1 8q20 13 44 13q21 0 44 -12t38 -42t15 -65q0 -26 -9.5 -56t-30.5 -55t-52 -41t-71 -20q-34 -17 -57 -49.5t-23 -69.5q0 -22 13.5 -33t32.5 -11
q17 0 35 9.5t26 22.5l7 -2q-14 -26 -43.5 -42.5t-59.5 -16.5q-29 0 -48.5 17t-19.5 50q0 31 27.5 67t71.5 58q-44 3 -83 23t-68 55.5t-45 84.5t-16 107q0 101 25 196l-77 -29q-6 -16 -15.5 -44.5t-77 -230.5t-131 -337t-134 -227t-154 -155.5t-190.5 -98.5t-238 -35
q-102 0 -191 30t-163 95t-118.5 166t-44.5 198q0 66 20 127t56 107t83 72t98 26q28 0 61 -9.5t64 -30.5v-8q-28 19 -61 29t-62 10q-48 0 -93.5 -25t-80.5 -69.5t-55 -103.5t-20 -123q0 -267 364 -267q84 0 166.5 32t166 94t174.5 162q47 52 101 120t111.5 150t128.5 187.5
t86 127.5q-34 1 -67 10t-59 29.5t-41.5 51t-15.5 66.5q0 51 32.5 88.5t86.5 37.5q19 0 37 -8.5t30 -23.5l-1 -8q-11 14 -30.5 22.5t-35.5 8.5q-50 0 -80 -35.5t-30 -81.5q0 -33 19 -69t62 -57.5t99 -21.5q150 222 243 326t170 148.5t144 44.5zM411 377l77 30q11 41 36 102.5
t73.5 136t107.5 130.5t105 80q-72 -8 -138.5 -51.5t-129.5 -140.5t-131 -287z" />
    <glyph glyph-name="aogonek" unicode="&#x105;" horiz-adv-x="580" 
d="M314 498q44 0 74.5 -25t43.5 -74l17 77q36 -18 61 -18q28 0 65 14l8 38h8q-8 -41 -61.5 -267.5t-53.5 -242.5q0 -14 4.5 -24.5t24.5 -10.5q25 0 54.5 41t34.5 98h9q-8 -69 -44 -113t-95 -47q-18 -6 -40.5 -22.5t-39 -45t-16.5 -58.5q0 -22 13.5 -33t32.5 -11q17 0 35 9.5
t26 22.5l7 -2q-14 -26 -43.5 -42.5t-59.5 -16.5q-29 0 -48.5 17t-19.5 50q0 16 11 40.5t41 51.5t69 42q-22 3 -40 14.5t-26 28t-10 32.5q-62 -73 -150 -73q-55 0 -93 22.5t-59 65t-21 104.5q0 28 8 76t37 108t68 98t81 57t87 19zM355 32q-2 29 33.5 179t40.5 173
q-13 48 -39 74.5t-61 26.5q-14 0 -33 -10.5t-39.5 -37.5t-39.5 -70.5t-32 -103.5t-13 -115q0 -74 25 -119t75 -45q45 0 83 48z" />
    <glyph glyph-name="Cacute" unicode="&#x106;" 
d="M410 265h-10q11 37 38.5 56t61.5 19q23 0 49 -10.5t47 -31.5t33 -51t12 -66q0 -57 -25.5 -106t-68.5 -84t-96.5 -54t-107.5 -19q-66 0 -116 21t-82 59t-47.5 89t-15.5 110q0 114 51 238q-67 18 -100 57.5t-33 83.5q0 30 16.5 56.5t38.5 37t40 10.5q22 0 43 -13.5
t32 -39.5h-7q-20 44 -68 44q-36 0 -60.5 -27.5t-24.5 -66.5q0 -45 30 -81t96 -53q33 77 76.5 138t89 105t98 76.5t112 50.5t120.5 18q52 0 83.5 -23t31.5 -65q0 -32 -24 -79.5t-82 -100t-130 -85t-135 -44.5t-113 -13q-21 -79 -21 -157q0 -51 11.5 -101t37.5 -87.5t65 -60
t88 -22.5q36 0 69.5 13.5t60 38.5t41.5 60t15 76q0 66 -39 107.5t-91 41.5q-71 0 -90 -65zM632 820q-41 0 -95 -28.5t-107 -81t-97.5 -125t-67.5 -154.5q88 2 174.5 29.5t156 78.5t103.5 102t37.5 91t-23 64t-81.5 24zM635 1074l67 -26q-1 -64 -51 -105t-127 -54v9
q65 15 92 46.5t27 76.5q0 23 -8 53z" />
    <glyph glyph-name="cacute" unicode="&#x107;" horiz-adv-x="440" 
d="M326 370q0 23 11.5 46t29.5 33.5t34 10.5q11 0 26 -5q-29 31 -83 31q-28 0 -58.5 -18t-57 -59t-44.5 -101.5t-18 -130.5q0 -97 30 -143t83 -46q72 0 137 104l6 -5q-15 -28 -45 -60.5t-76 -55.5t-91 -23q-60 0 -98.5 23.5t-58.5 67t-20 108.5q0 43 13.5 98.5t42.5 103.5
t63.5 80t78.5 50.5t92 18.5t81 -16.5t50.5 -43t17.5 -51.5t-12.5 -47.5t-31 -32t-34.5 -9.5q-28 0 -48 20t-20 52zM378 734l67 -26q-1 -64 -51 -105t-127 -54v9q65 15 92 46.5t27 76.5q0 23 -8 53z" />
    <glyph glyph-name="Ccircumflex" unicode="&#x108;" 
d="M410 265h-10q11 37 38.5 56t61.5 19q23 0 49 -10.5t47 -31.5t33 -51t12 -66q0 -57 -25.5 -106t-68.5 -84t-96.5 -54t-107.5 -19q-66 0 -116 21t-82 59t-47.5 89t-15.5 110q0 114 51 238q-67 18 -100 57.5t-33 83.5q0 30 16.5 56.5t38.5 37t40 10.5q22 0 43 -13.5
t32 -39.5h-7q-20 44 -68 44q-36 0 -60.5 -27.5t-24.5 -66.5q0 -45 30 -81t96 -53q33 77 76.5 138t89 105t98 76.5t112 50.5t120.5 18q52 0 83.5 -23t31.5 -65q0 -32 -24 -79.5t-82 -100t-130 -85t-135 -44.5t-113 -13q-21 -79 -21 -157q0 -51 11.5 -101t37.5 -87.5t65 -60
t88 -22.5q36 0 69.5 13.5t60 38.5t41.5 60t15 76q0 66 -39 107.5t-91 41.5q-71 0 -90 -65zM632 820q-41 0 -95 -28.5t-107 -81t-97.5 -125t-67.5 -154.5q88 2 174.5 29.5t156 78.5t103.5 102t37.5 91t-23 64t-81.5 24zM719 910q-28 -14 -54 -14q-35 0 -58.5 21.5t-23.5 56.5
q0 27 12 57l-124 -132l-8 1l162 173h11q-11 -31 -11 -58q0 -30 13.5 -55t36 -36.5t44.5 -13.5z" />
    <glyph glyph-name="ccircumflex" unicode="&#x109;" horiz-adv-x="440" 
d="M326 370q0 23 11.5 46t29.5 33.5t34 10.5q11 0 26 -5q-29 31 -83 31q-28 0 -58.5 -18t-57 -59t-44.5 -101.5t-18 -130.5q0 -97 30 -143t83 -46q72 0 137 104l6 -5q-15 -28 -45 -60.5t-76 -55.5t-91 -23q-60 0 -98.5 23.5t-58.5 67t-20 108.5q0 43 13.5 98.5t42.5 103.5
t63.5 80t78.5 50.5t92 18.5t81 -16.5t50.5 -43t17.5 -51.5t-12.5 -47.5t-31 -32t-34.5 -9.5q-28 0 -48 20t-20 52zM449 566q-28 -14 -54 -14q-35 0 -58.5 21.5t-23.5 56.5q0 27 12 57l-124 -132l-8 1l162 173h11q-11 -31 -11 -58q0 -30 13.5 -55t36 -36.5t44.5 -13.5z" />
    <glyph glyph-name="Cdotaccent" unicode="&#x10a;" 
d="M410 265h-10q11 37 38.5 56t61.5 19q23 0 49 -10.5t47 -31.5t33 -51t12 -66q0 -57 -25.5 -106t-68.5 -84t-96.5 -54t-107.5 -19q-66 0 -116 21t-82 59t-47.5 89t-15.5 110q0 114 51 238q-67 18 -100 57.5t-33 83.5q0 30 16.5 56.5t38.5 37t40 10.5q22 0 43 -13.5
t32 -39.5h-7q-20 44 -68 44q-36 0 -60.5 -27.5t-24.5 -66.5q0 -45 30 -81t96 -53q33 77 76.5 138t89 105t98 76.5t112 50.5t120.5 18q52 0 83.5 -23t31.5 -65q0 -32 -24 -79.5t-82 -100t-130 -85t-135 -44.5t-113 -13q-21 -79 -21 -157q0 -51 11.5 -101t37.5 -87.5t65 -60
t88 -22.5q36 0 69.5 13.5t60 38.5t41.5 60t15 76q0 66 -39 107.5t-91 41.5q-71 0 -90 -65zM632 820q-41 0 -95 -28.5t-107 -81t-97.5 -125t-67.5 -154.5q88 2 174.5 29.5t156 78.5t103.5 102t37.5 91t-23 64t-81.5 24zM617 1061q27 0 45.5 -23t18.5 -52q0 -25 -12.5 -47.5
t-31 -32t-34.5 -9.5q-28 0 -48 20t-20 52q0 25 12.5 48.5t32 33.5t37.5 10z" />
    <glyph glyph-name="cdotaccent" unicode="&#x10b;" horiz-adv-x="440" 
d="M352 733q27 0 45.5 -23t18.5 -52q0 -25 -12.5 -47.5t-31 -32t-34.5 -9.5q-28 0 -48 20t-20 52q0 25 12.5 48.5t32 33.5t37.5 10zM326 370q0 23 11.5 46t29.5 33.5t34 10.5q11 0 26 -5q-29 31 -83 31q-28 0 -58.5 -18t-57 -59t-44.5 -101.5t-18 -130.5q0 -97 30 -143
t83 -46q72 0 137 104l6 -5q-15 -28 -45 -60.5t-76 -55.5t-91 -23q-60 0 -98.5 23.5t-58.5 67t-20 108.5q0 43 13.5 98.5t42.5 103.5t63.5 80t78.5 50.5t92 18.5t81 -16.5t50.5 -43t17.5 -51.5t-12.5 -47.5t-31 -32t-34.5 -9.5q-28 0 -48 20t-20 52z" />
    <glyph glyph-name="Ccaron" unicode="&#x10c;" 
d="M410 265h-10q11 37 38.5 56t61.5 19q23 0 49 -10.5t47 -31.5t33 -51t12 -66q0 -57 -25.5 -106t-68.5 -84t-96.5 -54t-107.5 -19q-66 0 -116 21t-82 59t-47.5 89t-15.5 110q0 114 51 238q-67 18 -100 57.5t-33 83.5q0 30 16.5 56.5t38.5 37t40 10.5q22 0 43 -13.5
t32 -39.5h-7q-20 44 -68 44q-36 0 -60.5 -27.5t-24.5 -66.5q0 -45 30 -81t96 -53q33 77 76.5 138t89 105t98 76.5t112 50.5t120.5 18q52 0 83.5 -23t31.5 -65q0 -32 -24 -79.5t-82 -100t-130 -85t-135 -44.5t-113 -13q-21 -79 -21 -157q0 -51 11.5 -101t37.5 -87.5t65 -60
t88 -22.5q36 0 69.5 13.5t60 38.5t41.5 60t15 76q0 66 -39 107.5t-91 41.5q-71 0 -90 -65zM632 820q-41 0 -95 -28.5t-107 -81t-97.5 -125t-67.5 -154.5q88 2 174.5 29.5t156 78.5t103.5 102t37.5 91t-23 64t-81.5 24zM490 1038q28 14 54 14q35 0 58.5 -21.5t23.5 -56.5
q0 -27 -12 -57l124 132l8 -1l-162 -173h-11q11 31 11 58q0 30 -13.5 55t-36 36.5t-44.5 13.5z" />
    <glyph glyph-name="ccaron" unicode="&#x10d;" horiz-adv-x="440" 
d="M326 370q0 23 11.5 46t29.5 33.5t34 10.5q11 0 26 -5q-29 31 -83 31q-28 0 -58.5 -18t-57 -59t-44.5 -101.5t-18 -130.5q0 -97 30 -143t83 -46q72 0 137 104l6 -5q-15 -28 -45 -60.5t-76 -55.5t-91 -23q-60 0 -98.5 23.5t-58.5 67t-20 108.5q0 43 13.5 98.5t42.5 103.5
t63.5 80t78.5 50.5t92 18.5t81 -16.5t50.5 -43t17.5 -51.5t-12.5 -47.5t-31 -32t-34.5 -9.5q-28 0 -48 20t-20 52zM244 715q28 14 54 14q35 0 58.5 -21.5t23.5 -56.5q0 -27 -12 -57l124 132l8 -1l-162 -173h-11q11 31 11 58q0 30 -13.5 55t-36 36.5t-44.5 13.5z" />
    <glyph glyph-name="Dcaron" unicode="&#x10e;" horiz-adv-x="1296" 
d="M269 215v-8q-35 12 -67 12q-49 0 -87.5 -22.5t-56.5 -62t-18 -78.5q0 -33 11.5 -64.5t34.5 -56.5t59 -39.5t83 -14.5q109 0 200 150q-41 56 -77 130l10 1q31 -66 73 -121q42 73 84.5 187t98 309.5t73.5 253.5t32 99q-27 3 -55 3q-56 0 -116 -14t-114 -45.5t-92.5 -74
t-58.5 -83.5t-29 -81t-2.5 -86t41 -77.5t91.5 -31.5q34 0 64.5 15t47.5 41.5t17 64.5q0 22 -5 39h8q5 -19 5 -42q0 -31 -15 -61t-50.5 -48.5t-71.5 -18.5q-48 0 -82 22t-50.5 59t-14.5 84.5t22 95.5q21 51 61 98.5t99 85t138.5 60.5t172.5 25q28 76 50 117l9 2
q-26 -55 -51 -118h7q63 0 127 -13t132.5 -48t129.5 -104.5t94 -163.5t33 -193q0 -73 -18.5 -147t-55 -137.5t-95.5 -120t-149 -91.5t-198 -35q-111 0 -200 54q-47 -48 -117 -75.5t-140 -27.5q-51 0 -98 14.5t-83.5 44t-58 74.5t-21.5 103q0 51 23.5 90.5t61 61t86.5 21.5
q34 0 68 -13zM1022 503q0 73 -16.5 138t-51 117t-91.5 86.5t-133 44.5q-28 -80 -47.5 -166.5t-30.5 -181.5t-16.5 -263.5t-20.5 -234.5q-7 -30 -22.5 -59.5t-35.5 -52.5q32 -17 69.5 -27t70.5 -10q28 0 54 12.5t48.5 31t53 55t71.5 114t69.5 186.5t28.5 210zM767 1110
q28 14 54 14q35 0 58.5 -21.5t23.5 -56.5q0 -27 -12 -57l124 132l8 -1l-162 -173h-11q11 31 11 58q0 30 -13.5 55t-36 36.5t-44.5 13.5z" />
    <glyph glyph-name="dcaron" unicode="&#x10f;" horiz-adv-x="717" 
d="M390 705l-13 1q17 25 57 42t81 17q49 0 77.5 -26t28.5 -76q0 -28 -13.5 -93.5t-72.5 -294t-59 -275.5q0 -14 4.5 -24.5t24.5 -10.5q25 0 54.5 41t34.5 98h9q-8 -74 -47 -117t-99 -43q-28 0 -52 10t-35.5 29t-13.5 38q-62 -73 -150 -73q-55 0 -93 22.5t-59 65t-21 104.5
q0 28 8 76t37 108t68 98t81 57t87 19q44 0 74.5 -25t43.5 -74q19 73 41.5 178.5t22.5 133.5q0 33 -38 33q-16 0 -36.5 -12t-31.5 -27zM355 32q-2 29 33.5 179t40.5 173q-13 48 -39 74.5t-61 26.5q-14 0 -33 -10.5t-39.5 -37.5t-39.5 -70.5t-32 -103.5t-13 -115
q0 -74 25 -119t75 -45q45 0 83 48zM711 427l-12 1q45 35 84.5 89.5t54.5 104.5q-11 -18 -30 -32.5t-37 -14.5q-15 0 -31 8t-25.5 26.5t-9.5 40.5q0 20 9.5 41.5t32 35.5t45.5 14q27 0 45.5 -18.5t18.5 -52.5q0 -39 -25.5 -90.5t-59.5 -91t-60 -61.5z" />
    <glyph glyph-name="Dcroat" unicode="&#x110;" horiz-adv-x="1296" 
d="M486 352l3 9h75q24 76 76.5 261t81.5 268q-27 3 -55 3q-56 0 -116 -14t-114 -45.5t-92.5 -74t-58.5 -83.5t-29 -81t-2.5 -86t41 -77.5t91.5 -31.5q34 0 64.5 15t47.5 41.5t17 64.5q0 22 -5 39h8q5 -19 5 -42q0 -31 -15 -61t-50.5 -48.5t-71.5 -18.5q-48 0 -82 22
t-50.5 59t-14.5 84.5t22 95.5q21 51 61 98.5t99 85t138.5 60.5t172.5 25q28 76 50 117l9 2q-26 -55 -51 -118h7q63 0 127 -13t132.5 -48t129.5 -104.5t94 -163.5t33 -193q0 -73 -18.5 -147t-55 -137.5t-95.5 -120t-149 -91.5t-198 -35q-111 0 -200 54q-47 -48 -117 -75.5
t-140 -27.5q-51 0 -98 14.5t-83.5 44t-58 74.5t-21.5 103q0 51 23.5 90.5t61 61t86.5 21.5q34 0 68 -13v-8q-35 12 -67 12q-49 0 -87.5 -22.5t-56.5 -62t-18 -78.5q0 -33 11.5 -64.5t34.5 -56.5t59 -39.5t83 -14.5q109 0 200 150q-41 56 -77 130l10 1q31 -66 73 -121
q65 114 127 311h-75zM851 352h-213q-1 -16 -3.5 -90t-6.5 -126t-13 -93q-7 -30 -22.5 -59.5t-35.5 -52.5q32 -17 69.5 -27t70.5 -10q28 0 54 12.5t48.5 31t53 55t71.5 114t69.5 186.5t28.5 210q0 73 -16.5 138t-51 117t-91.5 86.5t-133 44.5q-36 -101 -60 -224.5t-32 -303.5
h216z" />
    <glyph glyph-name="dcroat" unicode="&#x111;" horiz-adv-x="574" 
d="M179 570l2 10h293q22 100 22 131q0 33 -38 33q-16 0 -36.5 -12t-31.5 -27l-13 1q17 25 57 42t81 17q49 0 77.5 -26t28.5 -76q0 -23 -12 -83h59l-2 -10h-59q-2 -12 -10.5 -48t-51 -204t-51 -204.5t-13.5 -67.5t-5 -46q0 -14 4.5 -24.5t24.5 -10.5q25 0 54.5 41t34.5 98h9
q-8 -74 -47 -117t-99 -43q-28 0 -52 10t-35.5 29t-13.5 38q-62 -73 -150 -73q-55 0 -93 22.5t-59 65t-21 104.5q0 28 8 76t37 108t68 98t81 57t87 19q44 0 74.5 -25t43.5 -74l15 57l25 114h-293zM355 32q-2 29 33.5 179t40.5 173q-13 48 -39 74.5t-61 26.5q-14 0 -33 -10.5
t-39.5 -37.5t-39.5 -70.5t-32 -103.5t-13 -115q0 -74 25 -119t75 -45q45 0 83 48z" />
    <glyph glyph-name="Emacron" unicode="&#x112;" horiz-adv-x="743" 
d="M235 262q0 -76 22.5 -139.5t62 -106.5t91.5 -65.5t108 -22.5q36 0 69.5 13.5t60 38.5t41.5 60t15 76q0 28 -11 60t-32 52.5t-43.5 28.5t-43.5 8q-71 0 -90 -65h-10q11 37 38.5 56t61.5 19q23 0 49 -10.5t47 -31.5t33 -51t12 -66q0 -53 -19 -108.5t-62.5 -101.5t-93.5 -70
t-89 -31t-67 -7q-79 0 -140 25.5t-101 69.5t-59.5 100.5t-19.5 118.5q0 45 13 100.5t45.5 112t76 94t83.5 56t72 26.5l-14 27q-50 -8 -89 -8q-50 0 -94 14t-67.5 46t-23.5 75q0 18 5.5 39t20 40t40 33.5t62.5 14.5q21 0 42.5 -8t36.5 -24t23 -33h-8q-15 24 -36 40t-58 16
q-57 0 -88 -35.5t-31 -82.5q0 -42 20.5 -69.5t59.5 -42t96 -14.5q46 0 86 8q-14 35 -14 82q0 43 17.5 85t46.5 77t71.5 66.5t87 47t74.5 15.5q37 0 59.5 -20t22.5 -59q0 -59 -36 -113t-102 -99t-154 -73q3 -19 9 -34l32 1q23 0 47.5 -5.5t42 -18t25 -30t-3 -33t-35.5 -15.5
q-53 0 -95 20t-68 55q-61 -26 -95.5 -88.5t-34.5 -135.5zM406 600q0 -25 3 -46q55 17 106.5 44t91.5 63t63.5 79.5t23.5 91.5q0 34 -13.5 48.5t-41.5 14.5q-33 0 -73.5 -21.5t-77 -61t-59.5 -94.5t-23 -118zM452 504l-28 -2q9 -19 24.5 -39t37.5 -31.5t42 -11.5
q10 0 19.5 4.5t13 16t-7 27t-37.5 26t-64 10.5zM482 955l2 10h215l-2 -10h-215z" />
    <glyph glyph-name="emacron" unicode="&#x113;" horiz-adv-x="455" 
d="M349 499q56 0 86.5 -30t30.5 -76q0 -36 -19.5 -76t-57 -75t-93.5 -59.5t-124 -30.5q2 -33 13 -72t40 -66t73 -27t81 30.5t69 102.5h8q-35 -90 -96 -131t-147 -41q-39 0 -76 15.5t-62.5 51.5t-36 89.5t1.5 119.5q10 52 35.5 101.5t65 88.5t93 62t115.5 23zM360 487
q-20 0 -45 -10t-50 -36t-47 -68.5t-35 -100.5t-12 -111q67 6 121 30t90.5 58.5t55 73t18.5 72.5q0 41 -25 66.5t-71 25.5zM229 546l2 10h215l-2 -10h-215z" />
    <glyph glyph-name="Ebreve" unicode="&#x114;" horiz-adv-x="743" 
d="M235 262q0 -76 22.5 -139.5t62 -106.5t91.5 -65.5t108 -22.5q36 0 69.5 13.5t60 38.5t41.5 60t15 76q0 28 -11 60t-32 52.5t-43.5 28.5t-43.5 8q-71 0 -90 -65h-10q11 37 38.5 56t61.5 19q23 0 49 -10.5t47 -31.5t33 -51t12 -66q0 -53 -19 -108.5t-62.5 -101.5t-93.5 -70
t-89 -31t-67 -7q-79 0 -140 25.5t-101 69.5t-59.5 100.5t-19.5 118.5q0 45 13 100.5t45.5 112t76 94t83.5 56t72 26.5l-14 27q-50 -8 -89 -8q-50 0 -94 14t-67.5 46t-23.5 75q0 18 5.5 39t20 40t40 33.5t62.5 14.5q21 0 42.5 -8t36.5 -24t23 -33h-8q-15 24 -36 40t-58 16
q-57 0 -88 -35.5t-31 -82.5q0 -42 20.5 -69.5t59.5 -42t96 -14.5q46 0 86 8q-14 35 -14 82q0 43 17.5 85t46.5 77t71.5 66.5t87 47t74.5 15.5q37 0 59.5 -20t22.5 -59q0 -59 -36 -113t-102 -99t-154 -73q3 -19 9 -34l32 1q23 0 47.5 -5.5t42 -18t25 -30t-3 -33t-35.5 -15.5
q-53 0 -95 20t-68 55q-61 -26 -95.5 -88.5t-34.5 -135.5zM406 600q0 -25 3 -46q55 17 106.5 44t91.5 63t63.5 79.5t23.5 91.5q0 34 -13.5 48.5t-41.5 14.5q-33 0 -73.5 -21.5t-77 -61t-59.5 -94.5t-23 -118zM442 1035q0 15 3 28l19 3l41 -6l19 3l-1 -22q0 -65 60 -65
q25 0 52.5 14.5t42.5 35t20 37.5h10q-4 -22 -23 -47t-57.5 -44t-78.5 -19q-46 0 -76.5 24t-30.5 58zM452 504l-28 -2q9 -19 24.5 -39t37.5 -31.5t42 -11.5q10 0 19.5 4.5t13 16t-7 27t-37.5 26t-64 10.5z" />
    <glyph glyph-name="ebreve" unicode="&#x115;" horiz-adv-x="455" 
d="M349 499q56 0 86.5 -30t30.5 -76q0 -36 -19.5 -76t-57 -75t-93.5 -59.5t-124 -30.5q2 -33 13 -72t40 -66t73 -27t81 30.5t69 102.5h8q-35 -90 -96 -131t-147 -41q-39 0 -76 15.5t-62.5 51.5t-36 89.5t1.5 119.5q10 52 35.5 101.5t65 88.5t93 62t115.5 23zM360 487
q-20 0 -45 -10t-50 -36t-47 -68.5t-35 -100.5t-12 -111q67 6 121 30t90.5 58.5t55 73t18.5 72.5q0 41 -25 66.5t-71 25.5zM194 632q0 15 3 28l19 3l41 -6l19 3l-1 -22q0 -65 60 -65q25 0 52.5 14.5t42.5 35t20 37.5h10q-4 -22 -23 -47t-57.5 -44t-78.5 -19q-46 0 -76.5 24
t-30.5 58z" />
    <glyph glyph-name="Edotaccent" unicode="&#x116;" horiz-adv-x="743" 
d="M235 262q0 -76 22.5 -139.5t62 -106.5t91.5 -65.5t108 -22.5q36 0 69.5 13.5t60 38.5t41.5 60t15 76q0 28 -11 60t-32 52.5t-43.5 28.5t-43.5 8q-71 0 -90 -65h-10q11 37 38.5 56t61.5 19q23 0 49 -10.5t47 -31.5t33 -51t12 -66q0 -53 -19 -108.5t-62.5 -101.5t-93.5 -70
t-89 -31t-67 -7q-79 0 -140 25.5t-101 69.5t-59.5 100.5t-19.5 118.5q0 45 13 100.5t45.5 112t76 94t83.5 56t72 26.5l-14 27q-50 -8 -89 -8q-50 0 -94 14t-67.5 46t-23.5 75q0 18 5.5 39t20 40t40 33.5t62.5 14.5q21 0 42.5 -8t36.5 -24t23 -33h-8q-15 24 -36 40t-58 16
q-57 0 -88 -35.5t-31 -82.5q0 -42 20.5 -69.5t59.5 -42t96 -14.5q46 0 86 8q-14 35 -14 82q0 43 17.5 85t46.5 77t71.5 66.5t87 47t74.5 15.5q37 0 59.5 -20t22.5 -59q0 -59 -36 -113t-102 -99t-154 -73q3 -19 9 -34l32 1q23 0 47.5 -5.5t42 -18t25 -30t-3 -33t-35.5 -15.5
q-53 0 -95 20t-68 55q-61 -26 -95.5 -88.5t-34.5 -135.5zM406 600q0 -25 3 -46q55 17 106.5 44t91.5 63t63.5 79.5t23.5 91.5q0 34 -13.5 48.5t-41.5 14.5q-33 0 -73.5 -21.5t-77 -61t-59.5 -94.5t-23 -118zM586 1123q27 0 45.5 -23t18.5 -52q0 -25 -12.5 -47.5t-31 -32
t-34.5 -9.5q-28 0 -48 20t-20 52q0 25 12.5 48.5t32 33.5t37.5 10zM452 504l-28 -2q9 -19 24.5 -39t37.5 -31.5t42 -11.5q10 0 19.5 4.5t13 16t-7 27t-37.5 26t-64 10.5z" />
    <glyph glyph-name="edotaccent" unicode="&#x117;" horiz-adv-x="455" 
d="M359 726q27 0 45.5 -23t18.5 -52q0 -25 -12.5 -47.5t-31 -32t-34.5 -9.5q-28 0 -48 20t-20 52q0 25 12.5 48.5t32 33.5t37.5 10zM349 499q56 0 86.5 -30t30.5 -76q0 -36 -19.5 -76t-57 -75t-93.5 -59.5t-124 -30.5q2 -33 13 -72t40 -66t73 -27t81 30.5t69 102.5h8
q-35 -90 -96 -131t-147 -41q-39 0 -76 15.5t-62.5 51.5t-36 89.5t1.5 119.5q10 52 35.5 101.5t65 88.5t93 62t115.5 23zM360 487q-20 0 -45 -10t-50 -36t-47 -68.5t-35 -100.5t-12 -111q67 6 121 30t90.5 58.5t55 73t18.5 72.5q0 41 -25 66.5t-71 25.5z" />
    <glyph glyph-name="Eogonek" unicode="&#x118;" horiz-adv-x="743" 
d="M235 262q0 -76 22.5 -139.5t62 -106.5t91.5 -65.5t108 -22.5q36 0 69.5 13.5t60 38.5t41.5 60t15 76q0 28 -11 60t-32 52.5t-43.5 28.5t-43.5 8q-71 0 -90 -65h-10q11 37 38.5 56t61.5 19q23 0 49 -10.5t47 -31.5t33 -51t12 -66q0 -80 -35.5 -145.5t-101 -111.5
t-150.5 -58q-34 -17 -57.5 -50t-23.5 -70q0 -22 13.5 -33t32.5 -11q17 0 35 9.5t26 22.5l7 -2q-14 -26 -43.5 -42.5t-59.5 -16.5q-29 0 -48.5 17t-19.5 50q0 30 26.5 65.5t69.5 57.5h-2q-79 0 -140 25.5t-101 69.5t-59.5 100.5t-19.5 118.5q0 45 13 100.5t45.5 112t76 94
t83.5 56t72 26.5l-14 27q-50 -8 -89 -8q-50 0 -94 14t-67.5 46t-23.5 75q0 18 5.5 39t20 40t40 33.5t62.5 14.5q21 0 42.5 -8t36.5 -24t23 -33h-8q-15 24 -36 40t-58 16q-57 0 -88 -35.5t-31 -82.5q0 -42 20.5 -69.5t59.5 -42t96 -14.5q46 0 86 8q-14 35 -14 82
q0 43 17.5 85t46.5 77t71.5 66.5t87 47t74.5 15.5q37 0 59.5 -20t22.5 -59q0 -59 -36 -113t-102 -99t-154 -73q3 -19 9 -34l32 1q23 0 47.5 -5.5t42 -18t25 -30t-3 -33t-35.5 -15.5q-53 0 -95 20t-68 55q-61 -26 -95.5 -88.5t-34.5 -135.5zM406 600q0 -25 3 -46
q55 17 106.5 44t91.5 63t63.5 79.5t23.5 91.5q0 34 -13.5 48.5t-41.5 14.5q-33 0 -73.5 -21.5t-77 -61t-59.5 -94.5t-23 -118zM452 504l-28 -2q9 -19 24.5 -39t37.5 -31.5t42 -11.5q10 0 19.5 4.5t13 16t-7 27t-37.5 26t-64 10.5z" />
    <glyph glyph-name="eogonek" unicode="&#x119;" horiz-adv-x="455" 
d="M349 499q56 0 86.5 -30t30.5 -76q0 -36 -19.5 -76t-57 -75t-93.5 -59.5t-124 -30.5q2 -33 13 -72t40 -66t73 -27t81 30.5t69 102.5h8q-33 -83 -85 -123t-121 -47q-19 -6 -42 -22t-40 -45t-17 -60q0 -22 13.5 -33t32.5 -11q17 0 35 9.5t26 22.5l7 -2q-14 -26 -43.5 -42.5
t-59.5 -16.5q-29 0 -48.5 17t-19.5 50t32 71.5t82 59.5q-51 1 -88.5 25t-58.5 63.5t-25.5 88.5t6 101.5t35.5 101t64.5 87.5t92.5 61.5t115 22.5zM360 487q-20 0 -45 -10t-50 -36t-47 -68.5t-35 -100.5t-12 -111q67 6 121 30t90.5 58.5t55 73t18.5 72.5q0 41 -25 66.5
t-71 25.5z" />
    <glyph glyph-name="Ecaron" unicode="&#x11a;" horiz-adv-x="743" 
d="M235 262q0 -76 22.5 -139.5t62 -106.5t91.5 -65.5t108 -22.5q36 0 69.5 13.5t60 38.5t41.5 60t15 76q0 28 -11 60t-32 52.5t-43.5 28.5t-43.5 8q-71 0 -90 -65h-10q11 37 38.5 56t61.5 19q23 0 49 -10.5t47 -31.5t33 -51t12 -66q0 -53 -19 -108.5t-62.5 -101.5t-93.5 -70
t-89 -31t-67 -7q-79 0 -140 25.5t-101 69.5t-59.5 100.5t-19.5 118.5q0 45 13 100.5t45.5 112t76 94t83.5 56t72 26.5l-14 27q-50 -8 -89 -8q-50 0 -94 14t-67.5 46t-23.5 75q0 18 5.5 39t20 40t40 33.5t62.5 14.5q21 0 42.5 -8t36.5 -24t23 -33h-8q-15 24 -36 40t-58 16
q-57 0 -88 -35.5t-31 -82.5q0 -42 20.5 -69.5t59.5 -42t96 -14.5q46 0 86 8q-14 35 -14 82q0 43 17.5 85t46.5 77t71.5 66.5t87 47t74.5 15.5q37 0 59.5 -20t22.5 -59q0 -59 -36 -113t-102 -99t-154 -73q3 -19 9 -34l32 1q23 0 47.5 -5.5t42 -18t25 -30t-3 -33t-35.5 -15.5
q-53 0 -95 20t-68 55q-61 -26 -95.5 -88.5t-34.5 -135.5zM406 600q0 -25 3 -46q55 17 106.5 44t91.5 63t63.5 79.5t23.5 91.5q0 34 -13.5 48.5t-41.5 14.5q-33 0 -73.5 -21.5t-77 -61t-59.5 -94.5t-23 -118zM504 1102q28 14 54 14q35 0 58.5 -21.5t23.5 -56.5q0 -27 -12 -57
l124 132l8 -1l-162 -173h-11q11 31 11 58q0 30 -13.5 55t-36 36.5t-44.5 13.5zM452 504l-28 -2q9 -19 24.5 -39t37.5 -31.5t42 -11.5q10 0 19.5 4.5t13 16t-7 27t-37.5 26t-64 10.5z" />
    <glyph glyph-name="ecaron" unicode="&#x11b;" horiz-adv-x="455" 
d="M349 499q56 0 86.5 -30t30.5 -76q0 -36 -19.5 -76t-57 -75t-93.5 -59.5t-124 -30.5q2 -33 13 -72t40 -66t73 -27t81 30.5t69 102.5h8q-35 -90 -96 -131t-147 -41q-39 0 -76 15.5t-62.5 51.5t-36 89.5t1.5 119.5q10 52 35.5 101.5t65 88.5t93 62t115.5 23zM360 487
q-20 0 -45 -10t-50 -36t-47 -68.5t-35 -100.5t-12 -111q67 6 121 30t90.5 58.5t55 73t18.5 72.5q0 41 -25 66.5t-71 25.5zM232 702q28 14 54 14q35 0 58.5 -21.5t23.5 -56.5q0 -27 -12 -57l124 132l8 -1l-162 -173h-11q11 31 11 58q0 30 -13.5 55t-36 36.5t-44.5 13.5z" />
    <glyph glyph-name="Gcircumflex" unicode="&#x11c;" horiz-adv-x="693" 
d="M288 103l-6 -3q-12 16 -30 28.5t-51 12.5q-31 0 -57 -12.5t-47.5 -33t-39.5 -58t-18 -85.5q0 -44 15.5 -82t44 -65t69.5 -42t89 -15q50 0 89 23t68 61t57 99t80 245q-52 -22 -109 -22q-67 0 -113 22t-71.5 64.5t-25.5 106.5v7l-25 -1q-49 0 -94 11.5t-75.5 36t-46.5 58.5
t-16 72q0 34 15 70.5t45 59t74 22.5q76 0 106 -61h-9q-24 52 -97 52q-26 0 -47 -9t-37 -25t-28.5 -46.5t-12.5 -61.5q0 -47 23.5 -85t72.5 -61t127 -23l25 1q4 81 47 174t114 174t159.5 131t179.5 50q18 0 39.5 -8t37 -29t15.5 -49q0 -44 -21.5 -92.5t-59.5 -94t-97.5 -93.5
t-130.5 -85t-130 -57v-24q0 -38 8 -69t25 -53t44.5 -34t64.5 -12q17 0 30 4q34 120 63 166.5t66 46.5q16 0 25.5 -10.5t9.5 -27.5q0 -27 -22.5 -66t-59.5 -73q12 -102 13.5 -129.5t1.5 -43.5q0 -124 -50.5 -193.5t-138.5 -98.5t-207 -29q-62 0 -107 20t-71.5 52t-38.5 68.5
t-12 70.5q0 45 15 83t40.5 64t56 40t59.5 14q27 0 50 -12.5t38 -35.5zM726 883q-49 0 -106 -29t-108 -88t-86 -152t-40 -219q79 27 166.5 79t150.5 118t87 119.5t24 95.5q0 34 -24 55t-64 21zM800 961q-28 -14 -54 -14q-35 0 -58.5 21.5t-23.5 56.5q0 27 12 57l-124 -132
l-8 1l162 173h11q-11 -31 -11 -58q0 -30 13.5 -55t36 -36.5t44.5 -13.5zM633 318q0 -29 5 -74q32 30 53 67.5t21 62.5q0 12 -9 19.5t-20 7.5q-20 0 -35 -21t-15 -62z" />
    <glyph glyph-name="gcircumflex" unicode="&#x11d;" horiz-adv-x="570" 
d="M164 -395q-48 0 -86 18.5t-62.5 53t-24.5 79.5q0 46 26 85t71 66.5t109 40.5q-52 2 -88 24.5t-56 64.5t-20 103q0 28 8 76t37 108t68 98t81 57t87 19q44 0 74.5 -25t43.5 -74l18 77q36 -18 60 -18q28 0 65 14l9 38h7l-120 -530q-23 -102 -55 -175t-70.5 -116.5t-84 -63.5
t-97.5 -20zM351 28l78 357q-11 45 -38 72.5t-62 27.5q-14 0 -33 -10.5t-39.5 -37.5t-39.5 -70.5t-32 -103.5t-13 -115q0 -74 25.5 -119t75.5 -45q20 0 43.5 13.5t34.5 30.5zM346 9q-15 -16 -36 -30t-43 -21t-39 -9q-66 -14 -113 -39t-74.5 -58.5t-27.5 -69.5t28 -61t74 -25
q77 0 136.5 81.5t94.5 231.5zM511 567q-28 -14 -54 -14q-35 0 -58.5 21.5t-23.5 56.5q0 27 12 57l-124 -132l-8 1l162 173h11q-11 -31 -11 -58q0 -30 13.5 -55t36 -36.5t44.5 -13.5z" />
    <glyph glyph-name="Gbreve" unicode="&#x11e;" horiz-adv-x="693" 
d="M288 103l-6 -3q-12 16 -30 28.5t-51 12.5q-31 0 -57 -12.5t-47.5 -33t-39.5 -58t-18 -85.5q0 -44 15.5 -82t44 -65t69.5 -42t89 -15q50 0 89 23t68 61t57 99t80 245q-52 -22 -109 -22q-67 0 -113 22t-71.5 64.5t-25.5 106.5v7l-25 -1q-49 0 -94 11.5t-75.5 36t-46.5 58.5
t-16 72q0 34 15 70.5t45 59t74 22.5q76 0 106 -61h-9q-24 52 -97 52q-26 0 -47 -9t-37 -25t-28.5 -46.5t-12.5 -61.5q0 -47 23.5 -85t72.5 -61t127 -23l25 1q4 81 47 174t114 174t159.5 131t179.5 50q18 0 39.5 -8t37 -29t15.5 -49q0 -44 -21.5 -92.5t-59.5 -94t-97.5 -93.5
t-130.5 -85t-130 -57v-24q0 -38 8 -69t25 -53t44.5 -34t64.5 -12q17 0 30 4q34 120 63 166.5t66 46.5q16 0 25.5 -10.5t9.5 -27.5q0 -27 -22.5 -66t-59.5 -73q12 -102 13.5 -129.5t1.5 -43.5q0 -124 -50.5 -193.5t-138.5 -98.5t-207 -29q-62 0 -107 20t-71.5 52t-38.5 68.5
t-12 70.5q0 45 15 83t40.5 64t56 40t59.5 14q27 0 50 -12.5t38 -35.5zM726 883q-49 0 -106 -29t-108 -88t-86 -152t-40 -219q79 27 166.5 79t150.5 118t87 119.5t24 95.5q0 34 -24 55t-64 21zM545 1029q0 15 3 28l19 3l41 -6l19 3l-1 -22q0 -65 60 -65q25 0 52.5 14.5
t42.5 35t20 37.5h10q-4 -22 -23 -47t-57.5 -44t-78.5 -19q-46 0 -76.5 24t-30.5 58zM633 318q0 -29 5 -74q32 30 53 67.5t21 62.5q0 12 -9 19.5t-20 7.5q-20 0 -35 -21t-15 -62z" />
    <glyph glyph-name="gbreve" unicode="&#x11f;" horiz-adv-x="570" 
d="M164 -395q-31 0 -60 8l-25 10q-36 17 -58 46l-7 10q-17 26 -22 60l-1 11v6v6l1 12l2 12l6 23l5 12q18 39 59 70.5t102 49.5l31 7l-17 1l-38 8l-13 5l-13 6l-6 4q-16 11 -30 24l-9 10q-13 17 -22 40q-16 42 -16 86v8q0 33 7.5 73t20.5 74l10 24l18 35l6 11q6 10 18 26.5
t20 24.5l8 10l27 25l20 15l10 6l32 17l11 4l12 4l12 3l24 4l25 2l17 -1l8 -1l12 -3l4 -1l4 -2l17 -8q14 -9 21 -17l10 -12l3 -4q10 -18 12 -23l4 -8l1 -5l5 -14l18 77l1 -1l10 -5l3 -1l5 -3l9 -3l11 -3l3 -1l11 -1h7h9h5l12 2l14 3l2 1l4 1l16 6l3 1l9 38h7l-120 -530
l-15 -60l-6 -19q-9 -33 -23 -68l-19 -44l-6 -14q-18 -34 -28 -48l-14 -21l-16 -19q-23 -26 -49 -43l-17 -11q-33 -18 -65 -23l-19 -3l-20 -2h-10zM351 28l78 357l-4 13l-11 27l-6 11l-5 6l-4 6l-5 6l-11 10l-3 3l-2 2q-12 8 -22 11l-13 4l-14 1l-13 -2l-6 -1l-12 -6l-6 -3
l-11 -9l-6 -5l-6 -6l-16 -20l-5 -7l-15 -25l-5 -9l-13 -29q-6 -14 -14 -38t-11 -38q-11 -43 -16 -93q-2 -16 -2 -46v-14q0 -20 6 -52l5 -22l11 -25l5 -9l2 -4q14 -18 26 -25l4 -3l9 -4q12 -4 28 -6h5h4l4 1h3l11 3l15 6l13 7q16 11 23 20l1 2l3 3zM346 9l-10 -10
q-27 -23 -58 -37l-4 -1l-13 -5l-18 -5h-4l-11 -2l-42 -10l-19 -6l-27 -11l-8 -3l-16 -8l-14 -8l-20 -13l-12 -8q-28 -23 -42.5 -49.5t-14.5 -50.5v-3q2 -30 19 -50l10 -10q4 -4 13.5 -9t16.5 -7l20 -5l23 -2l17 1l12 2l6 2l12 4q15 5 25 12q29 17 50 42l18 24l12 18l6 10
l12 21l5 11l6 12l5 13l11 27l5 14l5 15q9 27 19 67zM251 631q0 15 3 28l19 3l41 -6l19 3l-1 -22q0 -65 60 -65q25 0 52.5 14.5t42.5 35t20 37.5h10q-4 -22 -23 -47t-57.5 -44t-78.5 -19q-46 0 -76.5 24t-30.5 58z" />
    <glyph glyph-name="Gdotaccent" unicode="&#x120;" horiz-adv-x="693" 
d="M288 103l-6 -3q-12 16 -30 28.5t-51 12.5q-31 0 -57 -12.5t-47.5 -33t-39.5 -58t-18 -85.5q0 -44 15.5 -82t44 -65t69.5 -42t89 -15q50 0 89 23t68 61t57 99t80 245q-52 -22 -109 -22q-67 0 -113 22t-71.5 64.5t-25.5 106.5v7l-25 -1q-49 0 -94 11.5t-75.5 36t-46.5 58.5
t-16 72q0 34 15 70.5t45 59t74 22.5q76 0 106 -61h-9q-24 52 -97 52q-26 0 -47 -9t-37 -25t-28.5 -46.5t-12.5 -61.5q0 -47 23.5 -85t72.5 -61t127 -23l25 1q4 81 47 174t114 174t159.5 131t179.5 50q18 0 39.5 -8t37 -29t15.5 -49q0 -44 -21.5 -92.5t-59.5 -94t-97.5 -93.5
t-130.5 -85t-130 -57v-24q0 -38 8 -69t25 -53t44.5 -34t64.5 -12q17 0 30 4q34 120 63 166.5t66 46.5q16 0 25.5 -10.5t9.5 -27.5q0 -27 -22.5 -66t-59.5 -73q12 -102 13.5 -129.5t1.5 -43.5q0 -124 -50.5 -193.5t-138.5 -98.5t-207 -29q-62 0 -107 20t-71.5 52t-38.5 68.5
t-12 70.5q0 45 15 83t40.5 64t56 40t59.5 14q27 0 50 -12.5t38 -35.5zM726 883q-49 0 -106 -29t-108 -88t-86 -152t-40 -219q79 27 166.5 79t150.5 118t87 119.5t24 95.5q0 34 -24 55t-64 21zM658 1119q27 0 45.5 -23t18.5 -52q0 -25 -12.5 -47.5t-31 -32t-34.5 -9.5
q-28 0 -48 20t-20 52q0 25 12.5 48.5t32 33.5t37.5 10zM633 318q0 -29 5 -74q32 30 53 67.5t21 62.5q0 12 -9 19.5t-20 7.5q-20 0 -35 -21t-15 -62z" />
    <glyph glyph-name="gdotaccent" unicode="&#x121;" horiz-adv-x="570" 
d="M-8 -247q0 66 55 119t157 76q-21 0 -46 5t-47.5 18.5t-40 36.5t-27.5 57.5t-10 74.5q0 28 8 76t37 108t68 98t81 57t87 19q44 0 74.5 -25t43.5 -74l18 77q36 -18 60 -18t69 17l9 35h1l-118 -530q-17 -76 -43 -146.5t-63 -121t-86 -79t-115 -28.5q-34 0 -73.5 15t-69 52
t-29.5 81zM350 28l80 364q-10 44 -37.5 72t-62.5 28q-22 0 -48 -21.5t-50 -69t-42 -116t-18 -137.5q0 -34 8 -74.5t31 -68.5t61 -28q20 0 41 14.5t37 36.5zM349 22q-51 -67 -127 -73q-69 -14 -122.5 -44.5t-70.5 -59t-17 -52.5q0 -17 10 -40t36 -40t57 -17q30 0 62 17
t63.5 55t59.5 102t49 152zM373 726q27 0 45.5 -23t18.5 -52q0 -25 -12.5 -47.5t-31 -32t-34.5 -9.5q-28 0 -48 20t-20 52q0 25 12.5 48.5t32 33.5t37.5 10z" />
    <glyph glyph-name="Gcommaaccent" unicode="&#x122;" horiz-adv-x="693" 
d="M288 103l-6 -3q-12 16 -30 28.5t-51 12.5q-31 0 -57 -12.5t-47.5 -33t-39.5 -58t-18 -85.5q0 -44 15.5 -82t44 -65t69.5 -42t89 -15q50 0 89 23t68 61t57 99t80 245q-52 -22 -109 -22q-67 0 -113 22t-71.5 64.5t-25.5 106.5v7l-25 -1q-49 0 -94 11.5t-75.5 36t-46.5 58.5
t-16 72q0 34 15 70.5t45 59t74 22.5q76 0 106 -61h-9q-24 52 -97 52q-26 0 -47 -9t-37 -25t-28.5 -46.5t-12.5 -61.5q0 -47 23.5 -85t72.5 -61t127 -23l25 1q4 81 47 174t114 174t159.5 131t179.5 50q18 0 39.5 -8t37 -29t15.5 -49q0 -44 -21.5 -92.5t-59.5 -94t-97.5 -93.5
t-130.5 -85t-130 -57v-24q0 -38 8 -69t25 -53t44.5 -34t64.5 -12q17 0 30 4q34 120 63 166.5t66 46.5q16 0 25.5 -10.5t9.5 -27.5q0 -27 -22.5 -66t-59.5 -73q12 -102 13.5 -129.5t1.5 -43.5q0 -124 -50.5 -193.5t-138.5 -98.5t-207 -29q-62 0 -107 20t-71.5 52t-38.5 68.5
t-12 70.5q0 45 15 83t40.5 64t56 40t59.5 14q27 0 50 -12.5t38 -35.5zM726 883q-49 0 -106 -29t-108 -88t-86 -152t-40 -219q79 27 166.5 79t150.5 118t87 119.5t24 95.5q0 34 -24 55t-64 21zM326 -124l-8 1q31 25 58.5 63t38.5 73q-8 -13 -22 -23t-25 -10q-22 0 -34 15.5
t-12 37.5q0 28 19 45.5t42 17.5q19 0 32 -12.5t13 -36.5q0 -18 -10.5 -47t-36.5 -64t-55 -60zM633 318q0 -29 5 -74q32 30 53 67.5t21 62.5q0 12 -9 19.5t-20 7.5q-20 0 -35 -21t-15 -62z" />
    <glyph glyph-name="gcommaaccent" unicode="&#x123;" horiz-adv-x="570" 
d="M164 -395q-48 0 -86 18.5t-62.5 53t-24.5 79.5q0 46 26 85t71 66.5t109 40.5q-52 2 -88 24.5t-56 64.5t-20 103q0 28 8 76t37 108t68 98t81 57t87 19q44 0 74.5 -25t43.5 -74l18 77q36 -18 60 -18q28 0 65 14l9 38h7l-120 -530q-23 -102 -55 -175t-70.5 -116.5t-84 -63.5
t-97.5 -20zM351 28l78 357q-11 45 -38 72.5t-62 27.5q-14 0 -33 -10.5t-39.5 -37.5t-39.5 -70.5t-32 -103.5t-13 -115q0 -74 25.5 -119t75.5 -45q20 0 43.5 13.5t34.5 30.5zM346 9q-15 -16 -36 -30t-43 -21t-39 -9q-66 -14 -113 -39t-74.5 -58.5t-27.5 -69.5t28 -61t74 -25
q77 0 136.5 81.5t94.5 231.5zM430 907l12 -1q-45 -35 -84.5 -89.5t-54.5 -104.5q11 18 30 32.5t37 14.5q15 0 31 -8t25.5 -26.5t9.5 -40.5q0 -20 -9.5 -41.5t-32 -35.5t-45.5 -14q-27 0 -45.5 18.5t-18.5 52.5q0 39 25.5 90.5t59.5 91t60 61.5z" />
    <glyph glyph-name="Hcircumflex" unicode="&#x124;" horiz-adv-x="998" 
d="M227 257l-1 -8q-31 15 -59 15q-26 0 -55.5 -17.5t-52 -60t-22.5 -85.5q0 -23 9 -51.5t30 -52t53.5 -38t75.5 -14.5q70 0 129.5 52t109.5 164t92 308q-117 -12 -165 -37.5t-48 -67.5q0 -25 17.5 -43.5t43.5 -18.5q35 0 63 37l1 -9q-30 -37 -65 -37q-30 0 -49.5 22.5
t-19.5 48.5q0 46 51 73.5t173 40.5l29 151q-41 -27 -82.5 -42.5t-73.5 -15.5q-33 0 -63 11t-47.5 37.5t-17.5 57.5q0 19 9.5 42t33.5 40.5t51 17.5q18 0 35 -8t29 -23l-1 -8q-11 14 -28.5 22t-33.5 8q-28 0 -49.5 -17t-30 -42.5t-3 -52.5t26 -45.5t44.5 -24.5t46 -6
q24 0 64 13t94 49q19 98 31 132q16 46 41.5 75.5t51 38t42.5 -1t17 -33.5q0 -37 -36 -87t-91 -95q-4 -56 -6 -185q67 5 134 12q37 82 95 154.5t117 109.5t97 37q30 0 48.5 -24.5t18.5 -61.5q0 -73 -52 -124t-170 -77q-17 -102 -17 -217q0 -138 30.5 -246t79.5 -179
t104.5 -106.5t103.5 -35.5q44 0 71 25.5t27 75.5q0 15 -8.5 34t-29 33t-43.5 14t-42 -13l-1 8q20 13 44 13q40 0 70 -35t30 -94q0 -30 -9 -65.5t-32.5 -67t-63.5 -54.5t-97.5 -27.5t-115.5 15.5q-61 21 -118 68.5t-102 123t-71.5 182t-26.5 237.5q0 151 59 287l-130 -11
q-4 -173 -18.5 -263.5t-41 -158.5t-69.5 -113t-100.5 -67.5t-132.5 -22.5q-48 0 -91 17.5t-74.5 49.5t-49 77t-17.5 98q0 43 18 86.5t52 68t72 24.5q30 0 59 -16zM1121 714q0 30 -17 52t-41 22q-29 0 -56 -23t-53.5 -82.5t-44.5 -160.5q113 25 162.5 73.5t49.5 118.5z
M640 777q-10 -38 -13 -92q37 31 66 66t40 61t11 42q0 11 -7 19t-18 10t-24 -5.5t-25.5 -26.5t-20 -41.5t-9.5 -32.5zM1034 876q-28 -14 -54 -14q-35 0 -58.5 21.5t-23.5 56.5q0 27 12 57l-124 -132l-8 1l162 173h11q-11 -31 -11 -58q0 -30 13.5 -55t36 -36.5t44.5 -13.5z
" />
    <glyph glyph-name="hcircumflex" unicode="&#x125;" horiz-adv-x="576" 
d="M549 399q0 -33 -38 -172.5t-43.5 -171.5t-5.5 -44q0 -17 8 -30.5t27 -13.5q9 0 26.5 11t33 37t21 51t6.5 42h8q-2 -29 -11 -58t-29.5 -55.5t-48 -37.5t-50.5 -11q-4 0 -14.5 1t-32 8.5t-39.5 32.5t-18 62q0 53 28.5 166t32.5 144t4 47q0 30 -13.5 45t-34.5 15
q-25 0 -57 -19t-53 -43q-19 -92 -97 -445q-36 18 -59 18q-29 0 -65 -13l-8 -39h-8q1 3 3.5 15.5t61.5 283.5t61.5 283.5t16 83.5t13.5 92q0 13 -8.5 24t-31.5 11q-15 0 -33.5 -11.5t-35.5 -33.5l-9 2q20 31 58 48t81 17q30 0 53.5 -11.5t36.5 -34.5t13 -60q0 -24 -39 -214
q31 32 83 54t100 22q34 0 59.5 -13t36 -35.5t10.5 -49.5zM379 792q-28 -14 -54 -14q-35 0 -58.5 21.5t-23.5 56.5q0 27 12 57l-124 -132l-8 1l162 173h11q-11 -31 -11 -58q0 -30 13.5 -55t36 -36.5t44.5 -13.5z" />
    <glyph glyph-name="Hbar" unicode="&#x126;" horiz-adv-x="998" 
d="M494 561l2 10h60l11 58q-41 -27 -82.5 -42.5t-73.5 -15.5q-33 0 -63 11t-47.5 37.5t-17.5 57.5q0 19 9.5 42t33.5 40.5t51 17.5q18 0 35 -8t29 -23l-1 -8q-11 14 -28.5 22t-33.5 8q-28 0 -49.5 -17t-30 -42.5t-3 -52.5t26 -45.5t44.5 -24.5t46 -6q24 0 64 13t94 49
q19 98 31 132q16 46 41.5 75.5t51 38t42.5 -1t17 -33.5q0 -37 -36 -87t-91 -95l-5 -100h171q60 102 138 165t133 63q30 0 48.5 -24.5t18.5 -61.5q0 -73 -52 -124t-170 -77q-17 -102 -17 -217q0 -138 30.5 -246t79.5 -179t104.5 -106.5t103.5 -35.5q44 0 71 25.5t27 75.5
q0 15 -8.5 34t-29 33t-43.5 14t-42 -13l-1 8q20 13 44 13q40 0 70 -35t30 -94q0 -30 -9 -65.5t-32.5 -67t-63.5 -54.5t-97.5 -27.5t-115.5 15.5q-61 21 -118 68.5t-102 123t-71.5 182t-26.5 237.5q0 151 59 287l-130 -11q-4 -173 -18.5 -263.5t-41 -158.5t-69.5 -113
t-100.5 -67.5t-132.5 -22.5q-48 0 -91 17.5t-74.5 49.5t-49 77t-17.5 98q0 43 18 86.5t52 68t72 24.5q30 0 59 -16l-1 -8q-31 15 -59 15q-26 0 -55.5 -17.5t-52 -60t-22.5 -85.5q0 -23 9 -51.5t30 -52t53.5 -38t75.5 -14.5q70 0 129.5 52t109.5 164t92 308
q-117 -12 -165 -37.5t-48 -67.5q0 -25 17.5 -43.5t43.5 -18.5q35 0 63 37l1 -9q-30 -37 -65 -37q-30 0 -49.5 22.5t-19.5 48.5q0 46 51 73.5t173 40.5l16 83h-60zM1121 714q0 30 -17 52t-41 22q-32 0 -59 -25.5t-48.5 -74.5t-36.5 -117h32l-2 -10h-32l-8 -39
q113 25 162.5 73.5t49.5 118.5zM640 777q-10 -38 -13 -92q37 31 66 66t40 61t11 42q0 11 -7 19t-18 10t-24 -5.5t-25.5 -26.5t-20 -41.5t-9.5 -32.5zM620 486q67 5 134 12q18 40 32 63h-165z" />
    <glyph glyph-name="hbar" unicode="&#x127;" horiz-adv-x="576" 
d="M66 674l-9 2q20 31 58 48t81 17q30 0 53.5 -11.5t36.5 -34.5t13 -60q0 -15 -9 -59h216l-2 -10h-216l-28 -145q31 32 83 54t100 22q34 0 59.5 -13t36 -35.5t10.5 -49.5q0 -33 -38 -172.5t-43.5 -171.5t-5.5 -44q0 -17 8 -30.5t27 -13.5q9 0 26.5 11t33 37t21 51t6.5 42h8
q-2 -29 -11 -58t-29.5 -55.5t-48 -37.5t-50.5 -11q-4 0 -14.5 1t-32 8.5t-39.5 32.5t-18 62q0 53 28.5 166t32.5 144t4 47q0 30 -13.5 45t-34.5 15q-25 0 -57 -19t-53 -43q-19 -92 -97 -445q-36 18 -59 18q-29 0 -65 -13l-8 -39h-8q5 27 60.5 278t76.5 362h-68l2 10h68
q17 90 17 108q0 13 -8.5 24t-31.5 11q-15 0 -33.5 -11.5t-35.5 -33.5z" />
    <glyph glyph-name="Itilde" unicode="&#x128;" horiz-adv-x="726" 
d="M670 418l-2 7q21 14 41 14q22 0 36 -17t14 -41t-17.5 -50t-62.5 -48.5t-100 -29.5q-19 -72 -48.5 -141t-70.5 -119.5t-91 -79.5t-107 -29q-45 0 -88 19t-75.5 52t-51.5 75.5t-19 87.5q0 42 21.5 83t59.5 64t74 23q37 0 67 -20l-2 -8q-31 20 -64 20q-44 0 -77.5 -29
t-33.5 -71q0 -18 11.5 -39t42.5 -36t70 -15q136 0 243 169q-62 14 -105 44.5t-66 74t-23 99.5q0 62 29.5 105t75 68t90 39.5t111.5 31t89 23.5q32 85 53.5 108.5t42.5 23.5q14 0 22.5 -11.5t8.5 -24.5q0 -24 -21 -48.5t-89 -56.5q-24 -98 -43 -275q-12 -108 -33 -194
q72 8 120 41.5t48 73.5q0 22 -12.5 35.5t-29.5 13.5q-19 0 -38 -12zM367 460q0 -54 25.5 -99.5t65.5 -70.5q47 83 94 204q20 52 48 132t34 98q-117 -51 -153.5 -75.5t-61 -51t-38.5 -61.5t-14 -76zM863 1022h9q-22 -45 -55 -71.5t-63 -26.5q-23 0 -60.5 27.5t-60.5 27.5
q-28 0 -45.5 -11t-33.5 -32h-9q34 49 69.5 70.5t65.5 21.5q24 0 60.5 -25t59.5 -25q22 0 34.5 8.5t28.5 35.5zM737 868q-22 0 -41.5 -30.5t-33.5 -86.5q46 16 71.5 37.5t25.5 53.5q0 10 -6.5 18t-15.5 8z" />
    <glyph glyph-name="itilde" unicode="&#x129;" horiz-adv-x="298" 
d="M270 402q0 -6 -2 -25.5t-9 -50.5t-41 -153t-34 -159q0 -26 8.5 -39t22.5 -13q15 0 38.5 21t39.5 53t19 71l9 1q-5 -38 -22 -76.5t-50 -61t-69 -22.5q-35 0 -62.5 17t-38 43t-10.5 49q0 13 2 31t8 47.5t36 149t30 165.5q0 36 -30 36q-19 0 -44 -14.5t-37 -30.5h-9
q17 25 55.5 43t83.5 18q33 0 58.5 -13t36.5 -36.5t11 -50.5zM343 650h9q-22 -45 -55 -71.5t-63 -26.5q-23 0 -60.5 27.5t-60.5 27.5q-28 0 -45.5 -11t-33.5 -32h-9q34 49 69.5 70.5t65.5 21.5q24 0 60.5 -25t59.5 -25q22 0 34.5 8.5t28.5 35.5z" />
    <glyph glyph-name="Imacron" unicode="&#x12a;" horiz-adv-x="726" 
d="M670 418l-2 7q21 14 41 14q22 0 36 -17t14 -41t-17.5 -50t-62.5 -48.5t-100 -29.5q-19 -72 -48.5 -141t-70.5 -119.5t-91 -79.5t-107 -29q-45 0 -88 19t-75.5 52t-51.5 75.5t-19 87.5q0 42 21.5 83t59.5 64t74 23q37 0 67 -20l-2 -8q-31 20 -64 20q-44 0 -77.5 -29
t-33.5 -71q0 -18 11.5 -39t42.5 -36t70 -15q136 0 243 169q-62 14 -105 44.5t-66 74t-23 99.5q0 62 29.5 105t75 68t90 39.5t111.5 31t89 23.5q32 85 53.5 108.5t42.5 23.5q14 0 22.5 -11.5t8.5 -24.5q0 -24 -21 -48.5t-89 -56.5q-24 -98 -43 -275q-12 -108 -33 -194
q72 8 120 41.5t48 73.5q0 22 -12.5 35.5t-29.5 13.5q-19 0 -38 -12zM367 460q0 -54 25.5 -99.5t65.5 -70.5q47 83 94 204q20 52 48 132t34 98q-117 -51 -153.5 -75.5t-61 -51t-38.5 -61.5t-14 -76zM737 868q-22 0 -41.5 -30.5t-33.5 -86.5q46 16 71.5 37.5t25.5 53.5
q0 10 -6.5 18t-15.5 8zM591 918l2 10h215l-2 -10h-215z" />
    <glyph glyph-name="imacron" unicode="&#x12b;" horiz-adv-x="298" 
d="M270 402q0 -6 -2 -25.5t-9 -50.5t-41 -153t-34 -159q0 -26 8.5 -39t22.5 -13q15 0 38.5 21t39.5 53t19 71l9 1q-5 -38 -22 -76.5t-50 -61t-69 -22.5q-35 0 -62.5 17t-38 43t-10.5 49q0 13 2 31t8 47.5t36 149t30 165.5q0 36 -30 36q-19 0 -44 -14.5t-37 -30.5h-9
q17 25 55.5 43t83.5 18q33 0 58.5 -13t36.5 -36.5t11 -50.5zM91 546l2 10h215l-2 -10h-215z" />
    <glyph glyph-name="Ibreve" unicode="&#x12c;" horiz-adv-x="726" 
d="M670 418l-2 7q21 14 41 14q22 0 36 -17t14 -41t-17.5 -50t-62.5 -48.5t-100 -29.5q-19 -72 -48.5 -141t-70.5 -119.5t-91 -79.5t-107 -29q-45 0 -88 19t-75.5 52t-51.5 75.5t-19 87.5q0 42 21.5 83t59.5 64t74 23q37 0 67 -20l-2 -8q-31 20 -64 20q-44 0 -77.5 -29
t-33.5 -71q0 -18 11.5 -39t42.5 -36t70 -15q136 0 243 169q-62 14 -105 44.5t-66 74t-23 99.5q0 62 29.5 105t75 68t90 39.5t111.5 31t89 23.5q32 85 53.5 108.5t42.5 23.5q14 0 22.5 -11.5t8.5 -24.5q0 -24 -21 -48.5t-89 -56.5q-24 -98 -43 -275q-12 -108 -33 -194
q72 8 120 41.5t48 73.5q0 22 -12.5 35.5t-29.5 13.5q-19 0 -38 -12zM367 460q0 -54 25.5 -99.5t65.5 -70.5q47 83 94 204q20 52 48 132t34 98q-117 -51 -153.5 -75.5t-61 -51t-38.5 -61.5t-14 -76zM563 1004q0 15 3 28l19 3l41 -6l19 3l-1 -22q0 -65 60 -65q25 0 52.5 14.5
t42.5 35t20 37.5h10q-4 -22 -23 -47t-57.5 -44t-78.5 -19q-46 0 -76.5 24t-30.5 58zM737 868q-22 0 -41.5 -30.5t-33.5 -86.5q46 16 71.5 37.5t25.5 53.5q0 10 -6.5 18t-15.5 8z" />
    <glyph glyph-name="ibreve" unicode="&#x12d;" horiz-adv-x="298" 
d="M270 402q0 -6 -2 -25.5t-9 -50.5t-41 -153t-34 -159q0 -26 8.5 -39t22.5 -13q15 0 38.5 21t39.5 53t19 71l9 1q-5 -38 -22 -76.5t-50 -61t-69 -22.5q-35 0 -62.5 17t-38 43t-10.5 49q0 13 2 31t8 47.5t36 149t30 165.5q0 36 -30 36q-19 0 -44 -14.5t-37 -30.5h-9
q17 25 55.5 43t83.5 18q33 0 58.5 -13t36.5 -36.5t11 -50.5zM70 632q0 15 3 28l19 3l41 -6l19 3l-1 -22q0 -65 60 -65q25 0 52.5 14.5t42.5 35t20 37.5h10q-4 -22 -23 -47t-57.5 -44t-78.5 -19q-46 0 -76.5 24t-30.5 58z" />
    <glyph glyph-name="Iogonek" unicode="&#x12e;" horiz-adv-x="726" 
d="M670 418l-2 7q21 14 41 14q22 0 36 -17t14 -41t-17.5 -50t-62.5 -48.5t-100 -29.5q-91 -333 -284 -366q-37 -16 -62 -50.5t-25 -72.5q0 -22 13.5 -33t32.5 -11q17 0 35 9.5t26 22.5l7 -2q-14 -26 -43.5 -42.5t-59.5 -16.5q-29 0 -48.5 17t-19.5 50q0 31 28.5 68t73.5 58
q-55 2 -109.5 35t-85 88.5t-30.5 110.5q0 42 21.5 83t59.5 64t74 23q37 0 67 -20l-2 -8q-31 20 -64 20q-44 0 -77.5 -29t-33.5 -71q0 -18 11.5 -39t42.5 -36t70 -15q136 0 243 169q-62 14 -105 44.5t-66 74t-23 99.5q0 62 29.5 105t75 68t90 39.5t111.5 31t89 23.5
q32 85 53.5 108.5t42.5 23.5q14 0 22.5 -11.5t8.5 -24.5q0 -24 -21 -48.5t-89 -56.5q-24 -98 -43 -275q-12 -108 -33 -194q72 8 120 41.5t48 73.5q0 22 -12.5 35.5t-29.5 13.5q-19 0 -38 -12zM367 460q0 -54 25.5 -99.5t65.5 -70.5q47 83 94 204q20 52 48 132t34 98
q-117 -51 -153.5 -75.5t-61 -51t-38.5 -61.5t-14 -76zM737 868q-22 0 -41.5 -30.5t-33.5 -86.5q46 16 71.5 37.5t25.5 53.5q0 10 -6.5 18t-15.5 8z" />
    <glyph glyph-name="iogonek" unicode="&#x12f;" horiz-adv-x="298" 
d="M270 402q0 -6 -2 -25.5t-9 -50.5t-41 -153t-34 -159q0 -26 8.5 -39t22.5 -13q15 0 38.5 21t39.5 53t19 71l9 1q-5 -37 -20.5 -73t-46.5 -60t-66 -26q-20 -5 -45.5 -21t-45 -46.5t-19.5 -63.5q0 -22 13.5 -33t32.5 -11q17 0 35 9.5t26 22.5l7 -2q-14 -26 -43.5 -42.5
t-59.5 -16.5q-29 0 -48.5 17t-19.5 50q0 26 21.5 58t53 52.5t59.5 28.5q-38 7 -62 35.5t-24 70.5q0 13 2 31t8 47.5t36 149t30 165.5q0 36 -30 36q-19 0 -44 -14.5t-37 -30.5h-9q17 25 55.5 43t83.5 18q33 0 58.5 -13t36.5 -36.5t11 -50.5zM266 726q27 0 45.5 -23t18.5 -52
q0 -25 -12.5 -47.5t-31 -32t-34.5 -9.5q-28 0 -48 20t-20 52q0 25 12.5 48.5t32 33.5t37.5 10z" />
    <glyph glyph-name="Idotaccent" unicode="&#x130;" horiz-adv-x="726" 
d="M670 418l-2 7q21 14 41 14q22 0 36 -17t14 -41t-17.5 -50t-62.5 -48.5t-100 -29.5q-19 -72 -48.5 -141t-70.5 -119.5t-91 -79.5t-107 -29q-45 0 -88 19t-75.5 52t-51.5 75.5t-19 87.5q0 42 21.5 83t59.5 64t74 23q37 0 67 -20l-2 -8q-31 20 -64 20q-44 0 -77.5 -29
t-33.5 -71q0 -18 11.5 -39t42.5 -36t70 -15q136 0 243 169q-62 14 -105 44.5t-66 74t-23 99.5q0 62 29.5 105t75 68t90 39.5t111.5 31t89 23.5q32 85 53.5 108.5t42.5 23.5q14 0 22.5 -11.5t8.5 -24.5q0 -24 -21 -48.5t-89 -56.5q-24 -98 -43 -275q-12 -108 -33 -194
q72 8 120 41.5t48 73.5q0 22 -12.5 35.5t-29.5 13.5q-19 0 -38 -12zM367 460q0 -54 25.5 -99.5t65.5 -70.5q47 83 94 204q20 52 48 132t34 98q-117 -51 -153.5 -75.5t-61 -51t-38.5 -61.5t-14 -76zM741 1087q27 0 45.5 -23t18.5 -52q0 -25 -12.5 -47.5t-31 -32t-34.5 -9.5
q-28 0 -48 20t-20 52q0 25 12.5 48.5t32 33.5t37.5 10zM737 868q-22 0 -41.5 -30.5t-33.5 -86.5q46 16 71.5 37.5t25.5 53.5q0 10 -6.5 18t-15.5 8z" />
    <glyph glyph-name="dotlessi" unicode="&#x131;" horiz-adv-x="298" 
d="M270 402q0 -6 -2 -25.5t-9 -50.5t-41 -153t-34 -159q0 -26 8.5 -39t22.5 -13q15 0 38.5 21t39.5 53t19 71l9 1q-5 -38 -22 -76.5t-50 -61t-69 -22.5q-35 0 -62.5 17t-38 43t-10.5 49q0 13 2 31t8 47.5t36 149t30 165.5q0 36 -30 36q-19 0 -44 -14.5t-37 -30.5h-9
q17 25 55.5 43t83.5 18q33 0 58.5 -13t36.5 -36.5t11 -50.5z" />
    <glyph glyph-name="ij" unicode="&#x133;" horiz-adv-x="561" 
d="M270 402q0 -6 -2 -25.5t-9 -50.5t-41 -153t-34 -159q0 -26 8.5 -39t22.5 -13q15 0 38.5 21t39.5 53t19 71l9 1q-5 -38 -22 -76.5t-50 -61t-69 -22.5q-35 0 -62.5 17t-38 43t-10.5 49q0 13 2 31t8 47.5t36 149t30 165.5q0 36 -30 36q-19 0 -44 -14.5t-37 -30.5h-9
q17 25 55.5 43t83.5 18q33 0 58.5 -13t36.5 -36.5t11 -50.5zM266 726q27 0 45.5 -23t18.5 -52q0 -25 -12.5 -47.5t-31 -32t-34.5 -9.5q-28 0 -48 20t-20 52q0 25 12.5 48.5t32 33.5t37.5 10zM334 32q51 186 70 274.5t19 136.5q0 40 -30 40q-23 0 -46 -13t-35 -29h-9
q16 25 57 43t82 18q33 0 58.5 -13t36.5 -36.5t11 -50.5q0 -4 -1 -18t-9 -64t-83 -336q-33 -128 -75 -209t-97.5 -123.5t-134.5 -42.5q-34 0 -73.5 15t-69 52t-29.5 81q0 20 7.5 45.5t27 51.5t53.5 49t82 38l4 -9q-34 -9 -75 -33t-60 -53t-19 -56q0 -17 10 -38.5t35.5 -36.5
t57.5 -15q46 0 88.5 37.5t79.5 110t67 184.5zM544 726q27 0 45.5 -23t18.5 -52q0 -25 -12.5 -47.5t-31 -32t-34.5 -9.5q-28 0 -48 20t-20 52q0 25 12.5 48.5t32 33.5t37.5 10z" />
    <glyph glyph-name="Jcircumflex" unicode="&#x134;" horiz-adv-x="723" 
d="M450 188l9 -1q-11 -25 -33 -39.5t-44 -14.5q-33 0 -55.5 19t-29.5 50t2.5 68t34.5 70q-50 56 -50 137q0 78 61 132t338 139q43 128 92 128q11 0 22 -9.5t11 -26.5q0 -35 -23.5 -67.5t-93.5 -62.5q-27 -119 -35 -254q38 -5 65 -20.5t36.5 -34t9.5 -33.5q0 -23 -16.5 -45
t-45 -36.5t-55.5 -20.5q-4 -71 -16.5 -141t-38 -141.5t-71.5 -130.5t-104.5 -88.5t-118.5 -29.5q-52 0 -101.5 20t-88.5 56t-61.5 83.5t-22.5 99.5q0 42 21.5 82.5t59.5 63t74 22.5q40 0 67 -18l-2 -8q-28 18 -64 18q-31 0 -59.5 -15.5t-40 -37t-11.5 -38.5q0 -20 11.5 -43
t42.5 -38.5t70 -15.5q64 0 128.5 35t120.5 98t97 156q-59 1 -112.5 21.5t-89.5 56.5q-23 -31 -32 -65.5t-3 -63t26.5 -45.5t51.5 -17q21 0 39 12t28 34zM405 460q0 -28 6 -52q81 46 195 49q42 178 62 243q-11 -4 -49.5 -19t-69.5 -29t-53.5 -29.5t-40.5 -33.5t-34 -49.5
t-16 -79.5zM603 448q-110 -3 -189 -50q11 -37 36 -66t51.5 -43t47.5 -18q24 59 41 123zM758 368q0 30 -27 51.5t-76 27.5l-2 -87q0 -44 -3 -85q50 11 79 38t29 55zM904 941q-28 -14 -54 -14q-35 0 -58.5 21.5t-23.5 56.5q0 27 12 57l-124 -132l-8 1l162 173h11
q-11 -31 -11 -58q0 -30 13.5 -55t36 -36.5t44.5 -13.5zM775 868q-19 0 -38 -30t-34 -82q96 36 96 86q0 12 -7 19t-17 7z" />
    <glyph glyph-name="jcircumflex" unicode="&#x135;" horiz-adv-x="263" 
d="M36 32q51 186 70 274.5t19 136.5q0 40 -30 40q-23 0 -46 -13t-35 -29h-9q16 25 57 43t82 18q33 0 58.5 -13t36.5 -36.5t11 -50.5q0 -4 -1 -18t-9 -64t-83 -336q-33 -128 -75 -209t-97.5 -123.5t-134.5 -42.5q-34 0 -73.5 15t-69 52t-29.5 81q0 20 7.5 45.5t27 51.5
t53.5 49t82 38l4 -9q-34 -9 -75 -33t-60 -53t-19 -56q0 -17 10 -38.5t35.5 -36.5t57.5 -15q46 0 88.5 37.5t79.5 110t67 184.5zM302 565q-28 -14 -54 -14q-35 0 -58.5 21.5t-23.5 56.5q0 27 12 57l-124 -132l-8 1l162 173h11q-11 -31 -11 -58q0 -30 13.5 -55t36 -36.5
t44.5 -13.5z" />
    <glyph glyph-name="Kcommaaccent" unicode="&#x136;" horiz-adv-x="947" 
d="M225 277l-1 -8q-31 15 -59 15q-26 0 -55.5 -17.5t-52 -60t-22.5 -85.5q0 -23 9 -51.5t30 -52t53.5 -38t75.5 -14.5q93 0 167 92t128 287q-21 9 -33.5 25t-12.5 35q0 28 20.5 47.5t57.5 22.5q10 45 35 175q-41 -27 -82.5 -42.5t-73.5 -15.5q-33 0 -63 11t-47.5 37.5
t-17.5 57.5q0 19 9.5 42t33.5 40.5t51 17.5q18 0 35 -8t29 -23l-1 -8q-11 14 -28.5 22t-33.5 8q-28 0 -49.5 -17t-30 -42.5t-3 -52.5t26 -45.5t44.5 -24.5t46 -6q24 0 64 13t94 49q19 98 31 132q16 46 41.5 75.5t51 38t42.5 -1t17 -33.5q0 -37 -36 -87t-91 -95
q-3 -47 -5 -132t-2 -97q42 -16 76 -50q9 11 18.5 29t17.5 41.5t13 45.5t19.5 96.5t25.5 103.5t24.5 50t39.5 37.5t69 16.5q44 0 69 -30.5t25 -69.5q0 -26 -13 -51.5t-33.5 -37.5t-39.5 -14v9q31 2 49 22t18 44q0 15 -10.5 25t-30.5 10q-16 0 -30.5 -10t-28.5 -32t-43 -90.5
t-44 -96.5t-29 -48.5t-30.5 -39.5t-34.5 -33q21 -25 43.5 -64t77 -158.5t91 -180t79 -107.5t97.5 -82t126.5 -55t158.5 -20q32 0 64.5 12.5t52.5 34.5t20 54q0 45 -18 91t-53 87l8 2q36 -42 55 -92.5t19 -100.5q0 -70 -30.5 -133.5t-85.5 -111.5t-130.5 -75t-160.5 -27
q-60 0 -117.5 16t-109 51t-96.5 101t-72.5 173.5t-27.5 251.5v17.5t1 125.5t-17 173q-38 -23 -78 -31q-13 -185 -60.5 -285.5t-122 -142t-172.5 -41.5q-48 0 -91 17.5t-74.5 49.5t-49 77t-17.5 98q0 43 18 86.5t52 68t72 24.5q30 0 59 -16zM638 797q-10 -38 -13 -92
q37 31 66 66t40 61t11 42q0 11 -7 19t-18 10t-24 -5.5t-25.5 -26.5t-20 -41.5t-9.5 -32.5zM501 -380l-8 1q31 25 58.5 63t38.5 73q-8 -13 -22 -23t-25 -10q-22 0 -34 15.5t-12 37.5q0 28 19 45.5t42 17.5q19 0 32 -12.5t13 -36.5q0 -18 -10.5 -47t-36.5 -64t-55 -60z
M462 405q0 -18 11 -31t28 -20l27 110q-31 -3 -48.5 -20t-17.5 -39zM612 355q40 11 67 40q-20 42 -63 58z" />
    <glyph glyph-name="kcommaaccent" unicode="&#x137;" horiz-adv-x="563" 
d="M66 674l-9 2q20 31 58 48t81 17q30 0 53.5 -11.5t36.5 -34.5t13 -60q0 -39 -74 -373q21 12 42.5 32.5t55 65.5t47.5 58.5t24.5 21.5t27 15.5t40.5 7.5q22 0 46 -11.5t39.5 -39t15.5 -57.5q0 -28 -18 -49.5t-44 -21.5q-25 0 -39 16.5t-14 40.5q0 28 18.5 50.5t41.5 22.5
q10 0 21.5 -7t19.5 -20q-10 35 -34.5 51t-52.5 16q-26 0 -48 -12t-37.5 -29t-56.5 -72t-81 -78q22 11 47.5 20t41.5 9q30 0 51.5 -19.5t39 -56t36.5 -113t27.5 -95t16 -26.5t16.5 -8q13 0 29 20.5t22 58.5h8q-5 -40 -28.5 -69.5t-51 -40.5t-48.5 -11q-28 0 -52.5 16t-41 55
t-32 117t-26.5 99t-22 29t-24 8q-12 0 -26 -9l-63 -287q-36 18 -59 18q-29 0 -65 -13l-8 -39h-8q1 3 3.5 15.5t61.5 283.5t61.5 283.5t16 83.5t13.5 92q0 13 -8.5 24t-31.5 11q-15 0 -33.5 -11.5t-35.5 -33.5zM202 -299l-8 1q31 25 58.5 63t38.5 73q-8 -13 -22 -23t-25 -10
q-22 0 -34 15.5t-12 37.5q0 28 19 45.5t42 17.5q19 0 32 -12.5t13 -36.5q0 -18 -10.5 -47t-36.5 -64t-55 -60z" />
    <glyph glyph-name="kgreenlandic" unicode="&#x138;" horiz-adv-x="563" 
d="M22 456l-9 2q20 31 58 48t81 17q30 0 53.5 -11.5t36.5 -34.5t13 -60q0 -26 -29 -155q17 10 37.5 28.5t51 59t42 54t24.5 25.5t33 23t48 11q22 0 46 -11.5t39.5 -39t15.5 -57.5q0 -28 -18 -49.5t-44 -21.5q-25 0 -39 16.5t-14 40.5q0 28 18.5 50.5t41.5 22.5q10 0 21.5 -7
t19.5 -20q-10 35 -34.5 51t-52.5 16q-26 0 -48 -12t-37.5 -29t-56.5 -72t-81 -78q22 11 47.5 20t41.5 9q30 0 51.5 -19.5t39 -56t36.5 -113t27.5 -95t16 -26.5t16.5 -8q13 0 29 20.5t22 58.5h8q-5 -40 -28.5 -69.5t-51 -40.5t-48.5 -11q-28 0 -52.5 16t-41 55t-32 117
t-26.5 99t-22 29t-24 8q-12 0 -26 -9l-62 -284q-33 15 -60 15q-29 0 -65 -13l-8 -39h-8q4 23 58 266t54 274q0 13 -8.5 24t-31.5 11q-15 0 -33.5 -11.5t-35.5 -33.5z" />
    <glyph glyph-name="Lacute" unicode="&#x139;" horiz-adv-x="634" 
d="M1390 -119h9q38 -38 57.5 -86t19.5 -98q0 -57 -25 -113t-74 -100t-120 -70t-158 -26q-61 0 -125 18.5t-126 58t-135 111t-188.5 231.5t-136.5 186q-87 -63 -203 -63q-70 0 -109.5 26.5t-45.5 62t12 67t55.5 51.5t89.5 20q113 0 228 -56q12 51 12 125q0 53 -5 121
q-54 -9 -116 -9q-56 0 -112 12.5t-106.5 44.5t-80 82t-33 103.5t17.5 99.5t64.5 74.5t102.5 28.5q41 0 68 -15t50 -43l-3 -5q-26 29 -50 41t-64 12q-45 0 -81 -17.5t-59 -48t-31.5 -69t-2.5 -77.5q7 -41 29.5 -79t62.5 -68.5t98 -48t131 -17.5q61 0 115 9q-6 96 -6 139
q0 87 23 163t62.5 130t90 83t103.5 29q33 0 58 -18.5t40.5 -55.5t15.5 -85q0 -45 -14.5 -94.5t-45 -97.5t-78 -90.5t-108.5 -70.5q-1 -58 -14 -122t-35.5 -113.5t-45.5 -80.5q35 -20 84 -53t155 -117t159 -122t99 -64.5t96 -49.5t119.5 -41.5t149.5 -18.5q45 0 74.5 13.5
t43.5 39t14 60.5q0 28 -10 59.5t-27.5 57.5t-34.5 44zM550 699q0 -59 6.5 -164.5t6.5 -133.5q73 35 124.5 88.5t81 119.5t29.5 135q0 62 -27.5 104.5t-73.5 42.5q-70 0 -108.5 -47t-38.5 -145zM185 -60q130 0 189 70q-54 66 -101.5 101t-94.5 35q-44 0 -78 -18.5t-50 -46.5
t-10.5 -58t30 -50t56 -26.5t59.5 -6.5zM702 1147l67 -26q-1 -64 -51 -105t-127 -54v9q65 15 92 46.5t27 76.5q0 23 -8 53z" />
    <glyph glyph-name="lacute" unicode="&#x13a;" horiz-adv-x="297" 
d="M328 669q0 -3 -1 -14t-10.5 -64.5t-73 -306.5t-63.5 -275q0 -19 5.5 -29.5t25.5 -10.5q27 0 58 42t35 96h9q-3 -29 -13 -58t-31 -53.5t-49.5 -36t-50.5 -11.5q-33 0 -57 10t-37 29.5t-13 50.5q0 35 52 252t63 269.5t18.5 91.5t7.5 59q0 40 -30 40q-22 0 -45.5 -12.5
t-38.5 -29.5l-5 5q18 23 57.5 39.5t80.5 16.5q33 0 58.5 -13t36.5 -36.5t11 -50.5zM293 1007l67 -26q-1 -64 -51 -105t-127 -54v9q65 15 92 46.5t27 76.5q0 23 -8 53z" />
    <glyph glyph-name="Lcommaaccent" unicode="&#x13b;" horiz-adv-x="634" 
d="M1390 -119h9q38 -38 57.5 -86t19.5 -98q0 -57 -25 -113t-74 -100t-120 -70t-158 -26q-61 0 -125 18.5t-126 58t-135 111t-188.5 231.5t-136.5 186q-87 -63 -203 -63q-70 0 -109.5 26.5t-45.5 62t12 67t55.5 51.5t89.5 20q113 0 228 -56q12 51 12 125q0 53 -5 121
q-54 -9 -116 -9q-56 0 -112 12.5t-106.5 44.5t-80 82t-33 103.5t17.5 99.5t64.5 74.5t102.5 28.5q41 0 68 -15t50 -43l-3 -5q-26 29 -50 41t-64 12q-45 0 -81 -17.5t-59 -48t-31.5 -69t-2.5 -77.5q7 -41 29.5 -79t62.5 -68.5t98 -48t131 -17.5q61 0 115 9q-6 96 -6 139
q0 87 23 163t62.5 130t90 83t103.5 29q33 0 58 -18.5t40.5 -55.5t15.5 -85q0 -45 -14.5 -94.5t-45 -97.5t-78 -90.5t-108.5 -70.5q-1 -58 -14 -122t-35.5 -113.5t-45.5 -80.5q35 -20 84 -53t155 -117t159 -122t99 -64.5t96 -49.5t119.5 -41.5t149.5 -18.5q45 0 74.5 13.5
t43.5 39t14 60.5q0 28 -10 59.5t-27.5 57.5t-34.5 44zM550 699q0 -59 6.5 -164.5t6.5 -133.5q73 35 124.5 88.5t81 119.5t29.5 135q0 62 -27.5 104.5t-73.5 42.5q-70 0 -108.5 -47t-38.5 -145zM185 -60q130 0 189 70q-54 66 -101.5 101t-94.5 35q-44 0 -78 -18.5t-50 -46.5
t-10.5 -58t30 -50t56 -26.5t59.5 -6.5zM299 -354l-8 1q31 25 58.5 63t38.5 73q-8 -13 -22 -23t-25 -10q-22 0 -34 15.5t-12 37.5q0 28 19 45.5t42 17.5q19 0 32 -12.5t13 -36.5q0 -18 -10.5 -47t-36.5 -64t-55 -60z" />
    <glyph glyph-name="lcommaaccent" unicode="&#x13c;" horiz-adv-x="297" 
d="M328 669q0 -3 -1 -14t-10.5 -64.5t-73 -306.5t-63.5 -275q0 -19 5.5 -29.5t25.5 -10.5q27 0 58 42t35 96h9q-3 -29 -13 -58t-31 -53.5t-49.5 -36t-50.5 -11.5q-33 0 -57 10t-37 29.5t-13 50.5q0 35 52 252t63 269.5t18.5 91.5t7.5 59q0 40 -30 40q-22 0 -45.5 -12.5
t-38.5 -29.5l-5 5q18 23 57.5 39.5t80.5 16.5q33 0 58.5 -13t36.5 -36.5t11 -50.5zM88 -330l-8 1q31 25 58.5 63t38.5 73q-8 -13 -22 -23t-25 -10q-22 0 -34 15.5t-12 37.5q0 28 19 45.5t42 17.5q19 0 32 -12.5t13 -36.5q0 -18 -10.5 -47t-36.5 -64t-55 -60z" />
    <glyph glyph-name="Lcaron" unicode="&#x13d;" horiz-adv-x="893" 
d="M1390 -119h9q38 -38 57.5 -86t19.5 -98q0 -57 -25 -113t-74 -100t-120 -70t-158 -26q-61 0 -125 18.5t-126 58t-135 111t-188.5 231.5t-136.5 186q-87 -63 -203 -63q-70 0 -109.5 26.5t-45.5 62t12 67t55.5 51.5t89.5 20q113 0 228 -56q12 51 12 125q0 53 -5 121
q-54 -9 -116 -9q-56 0 -112 12.5t-106.5 44.5t-80 82t-33 103.5t17.5 99.5t64.5 74.5t102.5 28.5q41 0 68 -15t50 -43l-3 -5q-26 29 -50 41t-64 12q-45 0 -81 -17.5t-59 -48t-31.5 -69t-2.5 -77.5q7 -41 29.5 -79t62.5 -68.5t98 -48t131 -17.5q61 0 115 9q-6 96 -6 139
q0 87 23 163t62.5 130t90 83t103.5 29q33 0 58 -18.5t40.5 -55.5t15.5 -85q0 -45 -14.5 -94.5t-45 -97.5t-78 -90.5t-108.5 -70.5q-1 -58 -14 -122t-35.5 -113.5t-45.5 -80.5q35 -20 84 -53t155 -117t159 -122t99 -64.5t96 -49.5t119.5 -41.5t149.5 -18.5q45 0 74.5 13.5
t43.5 39t14 60.5q0 28 -10 59.5t-27.5 57.5t-34.5 44zM550 699q0 -59 6.5 -164.5t6.5 -133.5q73 35 124.5 88.5t81 119.5t29.5 135q0 62 -27.5 104.5t-73.5 42.5q-70 0 -108.5 -47t-38.5 -145zM185 -60q130 0 189 70q-54 66 -101.5 101t-94.5 35q-44 0 -78 -18.5t-50 -46.5
t-10.5 -58t30 -50t56 -26.5t59.5 -6.5zM876 416l-12 1q45 35 84.5 89.5t54.5 104.5q-11 -18 -30 -32.5t-37 -14.5q-15 0 -31 8t-25.5 26.5t-9.5 40.5q0 20 9.5 41.5t32 35.5t45.5 14q27 0 45.5 -18.5t18.5 -52.5q0 -39 -25.5 -90.5t-59.5 -91t-60 -61.5z" />
    <glyph glyph-name="lcaron" unicode="&#x13e;" horiz-adv-x="423" 
d="M328 669q0 -3 -1 -14t-10.5 -64.5t-73 -306.5t-63.5 -275q0 -19 5.5 -29.5t25.5 -10.5q27 0 58 42t35 96h9q-3 -29 -13 -58t-31 -53.5t-49.5 -36t-50.5 -11.5q-33 0 -57 10t-37 29.5t-13 50.5q0 35 52 252t63 269.5t18.5 91.5t7.5 59q0 40 -30 40q-22 0 -45.5 -12.5
t-38.5 -29.5l-5 5q18 23 57.5 39.5t80.5 16.5q33 0 58.5 -13t36.5 -36.5t11 -50.5zM416 428l-12 1q45 35 84.5 89.5t54.5 104.5q-11 -18 -30 -32.5t-37 -14.5q-15 0 -31 8t-25.5 26.5t-9.5 40.5q0 20 9.5 41.5t32 35.5t45.5 14q27 0 45.5 -18.5t18.5 -52.5
q0 -39 -25.5 -90.5t-59.5 -91t-60 -61.5z" />
    <glyph glyph-name="Lslash" unicode="&#x141;" horiz-adv-x="634" 
d="M329 203l1 9l97 38l-5 97q-54 -9 -116 -9q-56 0 -112 12.5t-106.5 44.5t-80 82t-33 103.5t17.5 99.5t64.5 74.5t102.5 28.5q41 0 68 -15t50 -43l-3 -5q-26 29 -50 41t-64 12q-45 0 -81 -17.5t-59 -48t-31.5 -69t-2.5 -77.5q7 -41 29.5 -79t62.5 -68.5t98 -48t131 -17.5
q61 0 115 9q-6 96 -6 139q0 87 23 163t62.5 130t90 83t103.5 29q33 0 58 -18.5t40.5 -55.5t15.5 -85q0 -45 -14.5 -94.5t-45 -97.5t-78 -90.5t-108.5 -70.5q0 -34 -7 -87l76 30l-1 -9l-77 -31q-10 -60 -32 -117t-54 -102q35 -20 84 -53t155 -117t159 -122t99 -64.5t96 -49.5
t119.5 -41.5t149.5 -18.5q45 0 74.5 13.5t43.5 39t14 60.5q0 28 -10 59.5t-27.5 57.5t-34.5 44h9q38 -38 57.5 -86t19.5 -98q0 -57 -25 -113t-74 -100t-120 -70t-158 -26q-61 0 -125 18.5t-126 58t-135 111t-188.5 231.5t-136.5 186q-87 -63 -203 -63q-70 0 -109.5 26.5
t-45.5 62t12 67t55.5 51.5t89.5 20q113 0 228 -56q12 51 12 125v16zM550 699q0 -59 6.5 -164.5t6.5 -133.5q73 35 124.5 88.5t81 119.5t29.5 135q0 62 -27.5 104.5t-73.5 42.5q-70 0 -108.5 -47t-38.5 -145zM185 -60q130 0 189 70q-54 66 -101.5 101t-94.5 35
q-44 0 -78 -18.5t-50 -46.5t-10.5 -58t30 -50t56 -26.5t59.5 -6.5z" />
    <glyph glyph-name="lslash" unicode="&#x142;" horiz-adv-x="297" 
d="M328 669q0 -51 -70 -327l70 28l-1 -9l-71 -28q-4 -15 -20.5 -80.5t-36 -145t-19.5 -98.5t5.5 -29.5t25.5 -10.5q27 0 58 42t35 96h9q-3 -29 -13 -58t-31 -53.5t-49.5 -36t-50.5 -11.5q-33 0 -57 10t-37 29.5t-13 50.5q0 32 48 237l-62 -24l1 9l63 25q59 243 75 320.5
t16 104.5q0 40 -30 40q-22 0 -45.5 -12.5t-38.5 -29.5l-5 5q18 23 57.5 39.5t80.5 16.5q33 0 58.5 -13t36.5 -36.5t11 -50.5z" />
    <glyph glyph-name="Nacute" unicode="&#x143;" horiz-adv-x="679" 
d="M34 -84l-9 -1q3 57 19.5 111.5t48.5 115.5t103.5 160t95 135.5t41.5 71t28.5 64.5t17.5 61.5t7 69.5q0 24 -10 49t-34.5 41t-55.5 16q-32 0 -67.5 -18t-66 -54t-50 -91t-20.5 -124l-8 1q0 71 20 128t53 94.5t73 56.5t78 19q28 0 60.5 -12t61.5 -38t47.5 -67t18.5 -95
q0 -16 -5 -38q75 60 143 60q24 0 50.5 -11.5t44 -40.5t17.5 -66q0 -69 -25.5 -135t-80.5 -155t-72 -122t-28 -61.5t-19.5 -64t-8.5 -76.5q0 -78 39.5 -127t113.5 -49q32 0 62 18.5t42 44t12 46.5q0 22 -14 43t-32.5 29.5t-32.5 8.5v9q16 0 37.5 -10t38 -34.5t16.5 -51.5
q0 -56 -21 -101t-56.5 -75.5t-80 -46t-91.5 -15.5q-48 0 -94.5 16.5t-83 50t-58 84t-21.5 114.5q0 80 41 165.5t166.5 217t152.5 172t42 76.5t15 76q0 27 -17 43t-52 16q-75 0 -149 -65q-11 -37 -38 -89.5t-99 -162t-92 -144t-32 -59t-21 -51t-9 -49.5q-15 -5 -33 -5
q-12 0 -43.5 6t-44.5 6q-8 0 -17 -3q-10 -32 -14 -88zM676 889l67 -26q-1 -64 -51 -105t-127 -54v9q65 15 92 46.5t27 76.5q0 23 -8 53z" />
    <glyph glyph-name="nacute" unicode="&#x144;" horiz-adv-x="569" 
d="M542 399q0 -33 -38 -172.5t-43.5 -171.5t-5.5 -44q0 -17 8 -30.5t27 -13.5q9 0 26.5 11t33 37t21 51t6.5 42h8q-2 -29 -11 -58t-29.5 -55.5t-48 -37.5t-50.5 -11q-4 0 -14.5 1t-32 8.5t-39.5 32.5t-18 62q0 53 28.5 166t32.5 144t4 47q0 30 -13.5 45t-34.5 15
q-25 0 -56.5 -19t-53.5 -43v-4q0 -2 -0.5 -8.5t-5 -38t-21.5 -113t-38.5 -177t-23.5 -104.5q-36 18 -61 18q-29 0 -65 -13l-8 -39h-8q5 24 44.5 199.5t50 236.5t10.5 79q0 14 -8.5 25t-22.5 11q-22 0 -43.5 -14t-34.5 -32l-9 2q20 31 57.5 47.5t77.5 16.5q43 0 73 -18.5
t35 -62.5q30 34 84 57.5t104 23.5q34 0 59.5 -13t36 -35.5t10.5 -49.5zM388 734l67 -26q-1 -64 -51 -105t-127 -54v9q65 15 92 46.5t27 76.5q0 23 -8 53z" />
    <glyph glyph-name="Ncommaaccent" unicode="&#x145;" horiz-adv-x="679" 
d="M34 -84l-9 -1q3 57 19.5 111.5t48.5 115.5t103.5 160t95 135.5t41.5 71t28.5 64.5t17.5 61.5t7 69.5q0 24 -10 49t-34.5 41t-55.5 16q-32 0 -67.5 -18t-66 -54t-50 -91t-20.5 -124l-8 1q0 71 20 128t53 94.5t73 56.5t78 19q28 0 60.5 -12t61.5 -38t47.5 -67t18.5 -95
q0 -16 -5 -38q75 60 143 60q24 0 50.5 -11.5t44 -40.5t17.5 -66q0 -69 -25.5 -135t-80.5 -155t-72 -122t-28 -61.5t-19.5 -64t-8.5 -76.5q0 -78 39.5 -127t113.5 -49q32 0 62 18.5t42 44t12 46.5q0 22 -14 43t-32.5 29.5t-32.5 8.5v9q16 0 37.5 -10t38 -34.5t16.5 -51.5
q0 -56 -21 -101t-56.5 -75.5t-80 -46t-91.5 -15.5q-48 0 -94.5 16.5t-83 50t-58 84t-21.5 114.5q0 80 41 165.5t166.5 217t152.5 172t42 76.5t15 76q0 27 -17 43t-52 16q-75 0 -149 -65q-11 -37 -38 -89.5t-99 -162t-92 -144t-32 -59t-21 -51t-9 -49.5q-15 -5 -33 -5
q-12 0 -43.5 6t-44.5 6q-8 0 -17 -3q-10 -32 -14 -88zM108 -308l-8 1q31 25 58.5 63t38.5 73q-8 -13 -22 -23t-25 -10q-22 0 -34 15.5t-12 37.5q0 28 19 45.5t42 17.5q19 0 32 -12.5t13 -36.5q0 -18 -10.5 -47t-36.5 -64t-55 -60z" />
    <glyph glyph-name="ncommaaccent" unicode="&#x146;" horiz-adv-x="569" 
d="M542 399q0 -33 -38 -172.5t-43.5 -171.5t-5.5 -44q0 -17 8 -30.5t27 -13.5q9 0 26.5 11t33 37t21 51t6.5 42h8q-2 -29 -11 -58t-29.5 -55.5t-48 -37.5t-50.5 -11q-4 0 -14.5 1t-32 8.5t-39.5 32.5t-18 62q0 53 28.5 166t32.5 144t4 47q0 30 -13.5 45t-34.5 15
q-25 0 -56.5 -19t-53.5 -43v-4q0 -2 -0.5 -8.5t-5 -38t-21.5 -113t-38.5 -177t-23.5 -104.5q-36 18 -61 18q-29 0 -65 -13l-8 -39h-8q5 24 44.5 199.5t50 236.5t10.5 79q0 14 -8.5 25t-22.5 11q-22 0 -43.5 -14t-34.5 -32l-9 2q20 31 57.5 47.5t77.5 16.5q43 0 73 -18.5
t35 -62.5q30 34 84 57.5t104 23.5q34 0 59.5 -13t36 -35.5t10.5 -49.5zM209 -306l-8 1q31 25 58.5 63t38.5 73q-8 -13 -22 -23t-25 -10q-22 0 -34 15.5t-12 37.5q0 28 19 45.5t42 17.5q19 0 32 -12.5t13 -36.5q0 -18 -10.5 -47t-36.5 -64t-55 -60z" />
    </font>
</defs>
</svg>
